<?xml version="1.0" encoding="UTF-8" standalone="no"?>
<!-- Created with Inkscape (http://www.inkscape.org/) -->

<svg
   width="481.95023mm"
   height="154.98999mm"
   viewBox="0 0 481.95024 154.98997"
   version="1.1"
   id="svg5"
   inkscape:version="1.1 (ce6663b3b7, 2021-05-25)"
   sodipodi:docname="ospologylogo.svg"
   inkscape:export-filename="/home/anajsana/Downloads/ospology7.png"
   inkscape:export-xdpi="96"
   inkscape:export-ydpi="96"
   xmlns:inkscape="http://www.inkscape.org/namespaces/inkscape"
   xmlns:sodipodi="http://sodipodi.sourceforge.net/DTD/sodipodi-0.dtd"
   xmlns:xlink="http://www.w3.org/1999/xlink"
   xmlns="http://www.w3.org/2000/svg"
   xmlns:svg="http://www.w3.org/2000/svg">
  <sodipodi:namedview
     id="namedview7"
     pagecolor="#ffffff"
     bordercolor="#666666"
     borderopacity="1.0"
     inkscape:pageshadow="2"
     inkscape:pageopacity="0.0"
     inkscape:pagecheckerboard="0"
     inkscape:document-units="mm"
     showgrid="false"
     fit-margin-top="2.5"
     fit-margin-left="2.5"
     fit-margin-right="2.5"
     fit-margin-bottom="2.5"
     lock-margins="true"
     inkscape:zoom="0.18796998"
     inkscape:cx="2191.8394"
     inkscape:cy="242.05993"
     inkscape:window-width="1848"
     inkscape:window-height="1016"
     inkscape:window-x="2632"
     inkscape:window-y="27"
     inkscape:window-maximized="1"
     inkscape:current-layer="layer1" />
  <defs
     id="defs2">
    <linearGradient
       inkscape:collect="always"
       id="linearGradient11066">
      <stop
         style="stop-color:#000000;stop-opacity:1;"
         offset="0"
         id="stop11062" />
      <stop
         style="stop-color:#000000;stop-opacity:0;"
         offset="1"
         id="stop11064" />
    </linearGradient>
    <rect
       x="115.72166"
       y="792.90002"
       width="586.40906"
       height="164.65694"
       id="rect3778" />
    <style
       id="style824">.cls-1{fill:#002e6d;}.cls-2{fill:#febe85;}.cls-3{fill:#4ac1e0;}.cls-4{fill:#2ed9c3;}</style>
    <linearGradient
       inkscape:collect="always"
       xlink:href="#linearGradient11066"
       id="linearGradient11068"
       x1="119.42338"
       y1="817.87109"
       x2="209.86958"
       y2="817.87109"
       gradientUnits="userSpaceOnUse" />
  </defs>
  <g
     inkscape:groupmode="layer"
     id="layer3"
     inkscape:label="Layer 3"
     transform="translate(-56.967849,-131.33365)" />
  <g
     inkscape:label="Layer 1"
     inkscape:groupmode="layer"
     id="layer1"
     transform="translate(-52.57298,-208.5738)">
    <g
       id="g919"
       transform="matrix(1.5588805,0,0,1.5588805,50.276476,205.92571)"
       inkscape:export-filename="/home/anajsana/Downloads/ospology-logo.png"
       inkscape:export-xdpi="96"
       inkscape:export-ydpi="96">
      <path
         class="cls-1"
         d="m 137.11864,90.36187 -5.69095,5.691 a 1.21107,1.21107 0 0 0 1.70943,1.70943 l 5.61056,-5.61057 a 5.10147,5.10147 0 0 1 -0.72343,-0.60554 5.79222,5.79222 0 0 1 -0.90561,-1.18432 z"
         id="path828"
         style="fill:#ffffff" />
      <path
         class="cls-1"
         d="m 130.999,23.86024 h 4.287 c 0,-0.18219 -0.0268,-0.36439 -0.0268,-0.53587 a 5.92673,5.92673 0 0 1 0.3001,-1.85947 h -4.72638 a 5.943,5.943 0 0 1 0.16608,2.39534 z"
         id="path830"
         style="fill:#ffffff" />
      <path
         class="cls-1"
         d="m 77.99594,21.61494 a 1.75143,1.75143 0 0 0 -0.24114,0 5.84109,5.84109 0 0 1 0.08574,2.37927 0.76571,0.76571 0 0 0 0.1554,0 h 12.86091 a 5.98586,5.98586 0 0 1 0,-2.41678 z"
         id="path832"
         style="fill:#ffffff" />
      <path
         class="cls-1"
         d="M 53.13687,43.63925 68.8379,27.965 a 5.73436,5.73436 0 0 1 -0.96992,-0.7663 5.56772,5.56772 0 0 1 -0.7663,-0.94314 L 51.4596,41.89767 c 0.58945,0.55195 1.14676,1.13605 1.67727,1.74158 z"
         id="path834"
         style="fill:#ffffff" />
      <path
         class="cls-1"
         d="m 76.97243,19.80905 5.67487,-5.67487 a 5.56814,5.56814 0 0 1 -0.94849,-0.7663 5.73485,5.73485 0 0 1 -0.76628,-0.94313 l -5.66417,5.66416 a 5.73346,5.73346 0 0 1 0.94313,0.76629 5.56883,5.56883 0 0 1 0.76094,0.95385 z"
         id="path836"
         style="fill:#ffffff" />
      <path
         class="cls-1"
         d="m 119.37593,24.05851 a 5.92684,5.92684 0 0 1 0.0804,-2.41678 H 102.421 a 6.12077,6.12077 0 0 1 0.11789,1.18428 5.83017,5.83017 0 0 1 -0.134,1.2325 z"
         id="path838"
         style="fill:#ffffff" />
      <path
         class="cls-1"
         d="m 12.1963,82.44706 a 5.73354,5.73354 0 0 1 0.94314,0.76629 5.5675,5.5675 0 0 1 0.76629,0.94313 l 5.5945,-5.5945 A 22.43075,22.43075 0 0 1 17.689,76.95437 Z"
         id="path840"
         style="fill:#ffffff" />
      <path
         class="cls-1"
         d="m 145.41928,82.44706 a 5.73361,5.73361 0 0 1 0.94315,0.76629 5.56672,5.56672 0 0 1 0.76629,0.94313 l 4.989,-4.989 q -0.98063,-0.72342 -1.88092,-1.53795 z"
         id="path842"
         style="fill:#ffffff" />
      <path
         class="cls-1"
         d="m 19.2698,40.89559 -5.35871,-5.35871 a 5.89462,5.89462 0 0 1 -1.70943,1.70943 L 17.48535,42.53 a 23.5312,23.5312 0 0 1 1.78445,-1.63441 z"
         id="path844"
         style="fill:#ffffff" />
      <path
         class="cls-1"
         d="M 147.92178,44.068 130.10944,26.25558 a 5.56772,5.56772 0 0 1 -0.7663,0.94314 5.73352,5.73352 0 0 1 -0.94313,0.7663 l 18.05885,18.06422 a 23.88674,23.88674 0 0 1 1.46292,-1.96124 z"
         id="path848"
         style="fill:#ffffff" />
      <path
         class="cls-1"
         d="M 57.67035,59.66181 A 22.93536,22.93536 0 0 0 52.15623,44.62526 23.4686,23.4686 0 0 0 50.479,42.87832 22.73163,22.73163 0 0 0 34.79941,36.79082 22.82281,22.82281 0 0 0 20.24509,41.887 a 22.25963,22.25963 0 0 0 -1.78445,1.60762 23.17644,23.17644 0 0 0 0.19827,32.46838 21.31611,21.31611 0 0 0 1.81125,1.60761 23.46044,23.46044 0 0 0 26.76677,1.33969 l 0.493,0.493 0.50372,0.50372 4.2441,4.2441 a 5.568,5.568 0 0 1 0.7663,-0.94313 5.73491,5.73491 0 0 1 0.94313,-0.76629 L 50.211,78.46554 49.718,77.97254 49.23571,77.48489 A 22.6941,22.6941 0 0 0 57.67035,59.66181 Z M 34.79936,71.451 c -6.96633,0 -10.83,-5.15509 -10.83,-11.78917 0,-6.63408 3.869,-11.85348 10.83,-11.85348 6.827,0 10.8246,5.21939 10.8246,11.85348 0,6.63409 -3.9976,11.79451 -10.8246,11.79451 z"
         id="path850"
         style="fill:#ffffff" />
      <path
         class="cls-1"
         d="m 63.21125,51.02892 c 0,7.98984 5.41766,12.37327 13.21459,13.14492 0.45013,0.0643 1.07175,0.12861 1.54331,0.19292 5.92675,0.70735 7.79693,2.38462 7.79693,5.02647 0,2.96338 -2.0631,4.31913 -6.50547,4.31913 A 8.33213,8.33213 0 0 1 71.46368,68.493 C 71.38329,68.17148 71.35114,68.04823 71.2011,68.04823 a 1.79987,1.79987 0 0 0 -0.45013,0.12325 l -7.92554,3.21523 c -0.45013,0.19291 -0.53587,0.53587 -0.25722,1.22178 2.19171,6.31792 7.66832,9.86 16.43516,9.86 10.11189,0 18.3,-4.38342 18.3,-14.30241 0,-8.03807 -4.76926,-12.43757 -13.01632,-13.60041 -0.84134,-0.12861 -1.54867,-0.25723 -2.1435,-0.32153 -5.80349,-0.96456 -8.18276,-2.19171 -8.18276,-5.15509 0,-2.38462 1.4147,-4.05654 5.92674,-4.05654 a 8.03811,8.03811 0 0 1 7.2182,5.09078 c 0.08573,0.21435 0.20362,0.34831 0.41262,0.34831 a 1.00216,1.00216 0 0 0 0.359,-0.09109 l 7.53971,-3.02768 c 0.38583,-0.12861 0.643,-0.39119 0.45013,-1.09854 C 94.19,40.842 88.90091,36.78545 80.327,36.78545 68.95044,36.79082 63.21125,42.65325 63.21125,51.02892 Z"
         id="path852"
         style="fill:#ffffff" />
      <path
         class="cls-1"
         d="m 124.23628,37.69108 h -19.46285 c -0.22506,0 -0.45013,0.04287 -0.45013,0.57874 v 42.516 c 0,0.53588 0,0.5841 0.3376,0.5841 h 10.67992 c 0.53587,0 0.58409,-0.0643 0.58409,-0.5841 V 70.4221 c 0,0 7.27714,-0.0643 9.14733,-0.25721 8.24707,-0.96457 14.50068,-5.15509 14.50068,-15.72247 0,-9.92434 -5.73382,-16.75134 -15.33664,-16.75134 z m -2.883,23.06926 -5.4123,0.19292 V 47.29389 h 5.28369 c 3.92794,0 6.43046,2.44358 6.43046,6.7627 -0.005,3.6868 -1.81123,6.51084 -6.30185,6.70375 z"
         id="path854"
         style="fill:#ffffff" />
      <path
         class="cls-1"
         d="m 166.63441,36.79082 a 22.47444,22.47444 0 0 0 -19.1681,10.23518 23.04255,23.04255 0 0 0 -3.70824,12.63049 22.53879,22.53879 0 0 0 9.3456,18.51971 22.96742,22.96742 0 0 0 13.53074,4.287 22.56017,22.56017 0 0 0 22.84421,-21.6332 c 0,-0.39118 0.0322,-0.78238 0.0322,-1.17892 0,-0.39654 0,-0.8306 -0.0322,-1.23786 a 22.61376,22.61376 0 0 0 -22.84421,-21.6224 z m 0,34.66551 c -6.96632,0 -10.82461,-5.15508 -10.82461,-11.78917 0,-6.63409 3.86363,-11.85347 10.82461,-11.85347 6.83237,0 10.82462,5.21938 10.82462,11.85347 0,6.63409 -3.99225,11.78917 -10.82462,11.78917 z"
         id="path856"
         style="fill:#ffffff" />
      <path
         class="cls-1"
         d="m 62.3485,90.603 a 5.568,5.568 0 0 1 -0.7663,0.94313 5.734,5.734 0 0 1 -0.94313,0.76629 l 5.44445,5.4498 a 1.21107,1.21107 0 0 0 1.70948,-1.7094 z"
         id="path858"
         style="fill:#ffffff" />
      <path
         class="cls-2"
         d="m 147.12871,84.15648 a 5.56677,5.56677 0 0 0 -0.7663,-0.94313 5.73354,5.73354 0 0 0 -0.94314,-0.76629 5.89458,5.89458 0 0 0 -8.30065,7.91482 5.79331,5.79331 0 0 0 0.90561,1.18428 5.10211,5.10211 0 0 0 0.72344,0.60554 5.89459,5.89459 0 0 0 8.381,-7.99521 z"
         id="path860" />
      <path
         class="cls-1"
         d="m 250.02966,43.512763 6.25686,5.062228 a 1.21107,1.21107 0 0 0 1.52057,-1.879403 l -6.16843,-4.990721 a 5.10147,5.10147 0 0 1 -0.52627,0.782988 5.79222,5.79222 0 0 1 -1.08273,1.024908 z"
         id="path828-3"
         style="fill:#ffffff"
         inkscape:transform-center-x="3.8154104"
         inkscape:transform-center-y="7.9724718" />
      <path
         class="cls-1"
         d="m 241.28738,36.088659 a 5.73361,5.73361 0 0 1 0.66307,-1.018367 5.56672,5.56672 0 0 1 0.85749,-0.861043 l -5.48506,-4.43783 q -0.6165,1.05114 -1.33204,2.031946 z"
         id="path842-6"
         style="fill:#ffffff"
         inkscape:transform-center-x="20.226634"
         inkscape:transform-center-y="-5.769682" />
      <path
         class="cls-2"
         d="m 242.80795,34.209259 a 5.56677,5.56677 0 0 0 -0.8575,0.861053 5.73354,5.73354 0 0 0 -0.66307,1.018357 5.89458,5.89458 0 0 0 8.74229,7.424113 5.79331,5.79331 0 0 0 1.0827,-1.024903 5.10211,5.10211 0 0 0 0.52626,-0.782999 5.89459,5.89459 0 0 0 -8.83067,-7.495582 z"
         id="path860-7"
         style="fill:#febe85"
         inkscape:transform-center-x="12.27743"
         inkscape:transform-center-y="0.75184543" />
      <path
         class="cls-2"
         d="m 96.64427,16.92607 a 5.89458,5.89458 0 0 0 -5.77134,4.68887 5.9855,5.9855 0 0 0 0,2.41678 5.89458,5.89458 0 0 0 11.532,0 5.82951,5.82951 0 0 0 0.134,-1.2325 6.1192,6.1192 0 0 0 -0.11789,-1.18428 5.89458,5.89458 0 0 0 -5.77677,-4.68887 z"
         id="path862" />
      <path
         class="cls-3"
         d="m 144.50189,17.41371 a 5.89458,5.89458 0 0 0 -5.89458,5.89458 3.45154,3.45154 0 0 0 0.0268,0.53588 5.89459,5.89459 0 1 0 5.89458,-6.43046 z"
         id="path864" />
      <path
         class="cls-3"
         d="m 13.13944,83.21335 a 5.73354,5.73354 0 0 0 -0.94314,-0.76629 5.89459,5.89459 0 1 0 1.70943,1.70943 5.56718,5.56718 0 0 0 -0.76629,-0.94314 z"
         id="path866" />
      <path
         class="cls-1"
         d="m 299.20019,90.596726 a 5.73354,5.73354 0 0 1 0.78142,-0.930643 5.5675,5.5675 0 0 1 0.95538,-0.750961 l -5.50344,-5.684108 a 22.43075,22.43075 0 0 1 -1.63664,1.785035 z"
         id="path840-5"
         style="fill:#ffffff" />
      <path
         class="cls-3"
         d="m 299.03907,89.389603 a 5.73354,5.73354 0 0 0 -0.78142,0.930643 5.89459,5.89459 0 1 0 1.73681,-1.681604 5.56718,5.56718 0 0 0 -0.95539,0.750961 z"
         id="path866-3"
         style="fill:#4ac1e0" />
      <path
         class="cls-3"
         d="m 12.1963,37.24631 a 5.8946,5.8946 0 1 0 -6.44962,0 5.89457,5.89457 0 0 0 6.44962,0 z"
         id="path868" />
      <path
         class="cls-3"
         d="m 129.34314,18.86592 a 5.89458,5.89458 0 1 0 -0.94314,9.10981 5.73321,5.73321 0 0 0 0.94313,-0.777 5.56812,5.56812 0 0 0 0.7663,-0.94314 5.825,5.825 0 0 0 0.88956,-2.39534 5.94281,5.94281 0 0 0 -0.1554,-2.41678 5.81955,5.81955 0 0 0 -1.50045,-2.57755 z"
         id="path870" />
      <path
         class="cls-1"
         d="m 222.19557,29.592217 h 4.287 c 0,-0.182189 -0.0268,-0.36439 -0.0268,-0.53587 a 5.92673,5.92673 0 0 1 0.3001,-1.85947 h -4.72638 a 5.943,5.943 0 0 1 0.16608,2.39534 z"
         id="path830-6"
         style="fill:#ffffff" />
      <path
         class="cls-3"
         d="m 232.3771,22.671206 a 5.89458,5.89458 0 0 0 -5.89458,5.89458 3.45154,3.45154 0 0 0 0.0268,0.53588 5.89459,5.89459 0 1 0 5.89458,-6.43046 z"
         id="path864-2"
         style="fill:#4ac1e0" />
      <path
         class="cls-3"
         d="m 220.53971,24.597897 a 5.89458,5.89458 0 1 0 -0.94314,9.10981 5.73321,5.73321 0 0 0 0.94313,-0.777 5.56812,5.56812 0 0 0 0.7663,-0.94314 5.825,5.825 0 0 0 0.88956,-2.39534 5.94281,5.94281 0 0 0 -0.1554,-2.41678 5.81955,5.81955 0 0 0 -1.50045,-2.57755 z"
         id="path870-9"
         style="fill:#4ac1e0" />
      <path
         class="cls-4"
         d="m 81.69881,5.02972 a 5.8946,5.8946 0 0 0 -0.76629,7.395 5.73439,5.73439 0 0 0 0.76629,0.94313 5.56726,5.56726 0 0 0 0.94313,0.7663 5.89459,5.89459 0 1 0 -0.94313,-9.10982 z"
         id="path872" />
      <path
         class="cls-4"
         d="m 76.97243,19.80905 a 5.568,5.568 0 0 0 -0.7663,-0.94313 5.73324,5.73324 0 0 0 -0.93777,-0.777 5.89458,5.89458 0 0 0 -8.16132,8.156 5.56709,5.56709 0 0 0 0.76094,0.95385 5.73386,5.73386 0 0 0 0.96992,0.7663 5.89235,5.89235 0 0 0 8.13453,-8.156 z"
         id="path874" />
      <path
         class="cls-4"
         d="m 54.18718,82.44706 a 5.73346,5.73346 0 0 0 -0.94313,0.76629 5.568,5.568 0 0 0 -0.7663,0.94313 5.89458,5.89458 0 0 0 8.16132,8.156 5.734,5.734 0 0 0 0.94313,-0.76629 5.568,5.568 0 0 0 0.7663,-0.94313 5.89458,5.89458 0 0 0 -8.16132,-8.156 z"
         id="path878" />
      <text
         xml:space="preserve"
         transform="matrix(1.4569042,0,0,1.4521664,18.527275,-1128.19)"
         id="text3776"
         style="font-style:normal;font-weight:normal;font-size:31.316px;line-height:1.25;font-family:sans-serif;white-space:pre;shape-inside:url(#rect3778);fill:#2ed9c3;fill-opacity:1;stroke:#2ed9c3;stroke-width:1.49252;stroke-linecap:round;stroke-linejoin:round;stroke-miterlimit:4;stroke-dasharray:none;stroke-opacity:1;paint-order:fill markers stroke"><tspan
           x="115.7207"
           y="831.38283"
           id="tspan1225"><tspan
   style="font-size:43.4945px"
   id="tspan1223">L</tspan>ogy</tspan></text>
    </g>
  </g>
  <g
     inkscape:groupmode="layer"
     id="layer2"
     inkscape:label="Layer 2"
     transform="translate(-56.967849,-131.33365)" />
</svg>
