<svg id="Layer_1" data-name="Layer 1" xmlns="http://www.w3.org/2000/svg" viewBox="0 0 359 182"><defs><style>.cls-1{fill:#002e6d;}.cls-2{fill:#febe85;}.cls-3{fill:#4ac1e0;}.cls-4{fill:#2ed9c3;}</style></defs><path class="cls-1" d="M243.00762,45.77316h8.021c-.03195-.34086-.05239-.68508-.05239-1.03413a10.94013,10.94013,0,0,1,.56781-3.46519c-.03569-.00292-.06956-.01406-.10582-.01406H242.7177A11.06857,11.06857,0,0,1,243.00762,45.77316Z"/><path class="cls-1" d="M144.08593,41.57964a2.26346,2.26346,0,0,0-.44225.0446,11.07193,11.07193,0,0,1,.15921,4.44024,2.2253,2.2253,0,0,0,.283.02853h24.03576a10.96109,10.96109,0,0,1,0-4.51337Z"/><path class="cls-1" d="M97.70219,82.68394l29.25038-29.25038a10.96163,10.96163,0,0,1-3.19144-3.19144L94.56957,79.43368A44.31957,44.31957,0,0,1,97.70219,82.68394Z"/><path class="cls-1" d="M142.17876,38.20736l10.589-10.589a10.96163,10.96163,0,0,1-3.19144-3.19144l-10.589,10.589a10.96066,10.96066,0,0,1,3.1914,3.19143Z"/><path class="cls-1" d="M221.31072,46.14029a11.07479,11.07479,0,0,1,.14763-4.51338H189.66644a10.95712,10.95712,0,0,1-.02382,4.51338Z"/><path class="cls-1" d="M21.30015,155.09646a10.96067,10.96067,0,0,1,3.19144,3.19144l10.43715-10.43715a44.29366,44.29366,0,0,1-3.38276-3.00012Z"/><path class="cls-1" d="M269.90909,155.09646a10.96067,10.96067,0,0,1,3.19144,3.19144l9.3118-9.31181a44.33,44.33,0,0,1-3.51607-2.8668Z"/><path class="cls-1" d="M34.49534,77.56229,24.49159,67.55854A10.96163,10.96163,0,0,1,21.30018,70.75l9.86131,9.86131A44.32554,44.32554,0,0,1,34.49534,77.56229Z"/><path class="cls-1" d="M274.583,83.48356,241.34152,50.24212a10.96067,10.96067,0,0,1-3.19144,3.19144l33.70271,33.7027A44.372,44.372,0,0,1,274.583,83.48356Z"/><path class="cls-1" d="M106.16309,112.58264a42.79293,42.79293,0,0,0-10.2965-28.0631,41.85069,41.85069,0,0,0-3.12288-3.26,42.45991,42.45991,0,0,0-29.2685-11.3645,42.58721,42.58721,0,0,0-27.15312,9.51537,41.78378,41.78378,0,0,0-3.33426,3.02721,43.24463,43.24463,0,0,0,.3763,60.59482,41.628,41.628,0,0,0,3.37682,2.98019,43.78875,43.78875,0,0,0,49.95368,2.49817l.92021.92021.93488.93488,7.922,7.922a10.96067,10.96067,0,0,1,3.19144-3.19144L92.244,147.67735l-.91953-.91952-.9081-.9081A42.34564,42.34564,0,0,0,106.16309,112.58264ZM63.47521,134.58822c-12.9867,0-20.20156-9.6198-20.20156-22.00558,0-12.38518,7.21486-22.12524,20.20156-22.12524,12.74626,0,20.20159,9.74006,20.20159,22.12524C83.6768,124.96842,76.22147,134.58822,63.47521,134.58822Z"/><path class="cls-1" d="M116.50437,96.46976c0,14.91041,10.10078,23.08723,24.65072,24.53021.84174.12054,2.04421.24047,2.886.361,11.06278,1.32244,14.54994,4.44887,14.54994,9.37932,0,5.53138-3.84792,8.05629-12.145,8.05629-7.57558,0-13.10695-5.2909-14.54993-9.73977-.14919-.59672-.20582-.82329-.48563-.82329a3.351,3.351,0,0,0-.83709.22177l-14.79045,6.01239c-.84174.361-.962.962-.481,2.285,4.0884,11.78426,14.30943,18.39757,30.6631,18.39757,18.87884,0,34.1503-8.17682,34.1503-26.69493,0-15.03063-8.89831-23.20745-24.29-25.37192-1.56323-.24048-2.886-.481-3.96817-.60152-10.82227-1.80342-15.27146-4.08839-15.27146-9.61951,0-4.44916,2.64545-7.57559,11.06278-7.57559a15.00153,15.00153,0,0,1,13.46771,9.49955c.16342.40856.38227.65048.7699.65048a1.75784,1.75784,0,0,0,.67308-.1695l14.069-5.65163c.72149-.24051,1.20248-.72149.84175-2.04421-3.12643-10.10078-12.98674-17.67637-28.97965-17.67637C127.20639,69.89508,116.50437,80.83761,116.50437,96.46976Z"/><path class="cls-1" d="M230.37844,71.57854H194.30419c-.08017,0-.1637-.00333-.2472-.00333-.41751,0-.835.08353-.835,1.08557V152.0244c0,1.002-.00013,1.08526.62691,1.08526.12512,0,.27532-.00333.45531-.00333h19.4801c.962,0,1.08194-.12,1.08194-1.08193V132.66426s13.58825-.12053,17.07572-.481c15.39168-1.804,27.05541-9.6198,27.05541-29.34038C258.99736,84.32476,248.29559,71.57854,230.37844,71.57854Zm-5.41143,43.0486-10.10078.36044V89.49541h9.86087c7.33479,0,12.02474,4.56941,12.02474,12.626C236.75184,108.97523,233.38493,114.26609,224.967,114.62714Z"/><path class="cls-1" d="M309.5007,69.89508a42.00216,42.00216,0,0,0-35.771,19.11812,43.04075,43.04075,0,0,0-6.91719,23.56944,42.42311,42.42311,0,0,0,13.90435,31.706,41.63,41.63,0,0,0,3.53474,2.84813,42.83949,42.83949,0,0,0,25.24907,8.01344,42.10814,42.10814,0,0,0,42.634-40.37088q.05349-1.09123.05362-2.19671c0-.77749-.02279-1.54939-.06241-2.31667A42.20048,42.20048,0,0,0,309.5007,69.89508Zm0,64.69314c-12.98674,0-20.20156-9.6198-20.20156-22.00558,0-12.38518,7.21482-22.12524,20.20156-22.12524,12.74566,0,20.20156,9.74006,20.20156,22.12524C329.70226,124.96842,322.24636,134.58822,309.5007,134.58822Z"/><path class="cls-2" d="M273.10053,158.2879a10.99316,10.99316,0,1,0-1.42967,13.79649A11.00021,11.00021,0,0,0,273.10053,158.2879Z"/><path class="cls-2" d="M178.88825,32.835a10.996,10.996,0,1,0,10.77819,8.792A11.01909,11.01909,0,0,0,178.88825,32.835Z"/><path class="cls-3" d="M261.97758,33.73768A11.02958,11.02958,0,0,0,250.97623,44.739c0,.349.02044.69327.05239,1.03413a10.99961,10.99961,0,1,0,10.949-12.03548Z"/><path class="cls-3" d="M23.06192,156.52613a11.00608,11.00608,0,1,0,1.42967,1.76177A11.00021,11.00021,0,0,0,23.06192,156.52613Z"/><path class="cls-3" d="M21.30018,70.75a11.00088,11.00088,0,1,0-13.79652-1.4297A11.00021,11.00021,0,0,0,21.30018,70.75Z"/><path class="cls-3" d="M239.91185,36.44559a10.99,10.99,0,1,0,2.80585,4.81419A11.01393,11.01393,0,0,0,239.91185,36.44559Z"/><path class="cls-4" d="M151.00607,10.63039a11.00135,11.00135,0,1,0,15.55826,0A11.01882,11.01882,0,0,0,151.00607,10.63039Z"/><path class="cls-4" d="M142.17876,38.20736a11.11695,11.11695,0,1,0,1.46492,3.41688A11,11,0,0,0,142.17876,38.20736Z"/><path class="cls-4" d="M99.66313,155.09646a11.00028,11.00028,0,1,0,13.79652,1.42967A10.99977,10.99977,0,0,0,99.66313,155.09646Z"/></svg>