<svg xmlns="http://www.w3.org/2000/svg" role="img" viewBox="-16.30 -23.30 1211.60 345.60"><path fill="#002E6D" d="M696.398 261c-4.764 0-8.445-1.227-11.043-3.681-2.455-2.599-3.682-6.28-3.682-11.044V123.066c0-4.764 1.227-8.373 3.682-10.827 2.598-2.599 6.279-3.898 11.043-3.898h51.969c10.682 0 19.777 1.588 27.284 4.764 7.506 3.176 13.208 7.723 17.106 13.642 4.042 5.919 6.063 12.992 6.063 21.221 0 9.238-2.671 17.034-8.012 23.386-5.341 6.351-12.631 10.61-21.87 12.775v-3.248c10.682 1.588 18.983 5.63 24.902 12.126 5.918 6.496 8.878 14.941 8.878 25.335 0 13.57-4.62 24.108-13.859 31.615-9.094 7.362-21.798 11.043-38.11 11.043h-54.351zm11.909-21.004h38.977c9.817 0 17.034-1.877 21.654-5.63 4.619-3.898 6.929-9.672 6.929-17.323 0-7.795-2.31-13.57-6.929-17.323-4.62-3.753-11.837-5.63-21.654-5.63h-38.977v45.906zm0-66.91h35.296c9.528 0 16.601-1.805 21.221-5.414 4.764-3.753 7.145-9.239 7.145-16.456 0-7.218-2.381-12.632-7.145-16.241-4.62-3.753-11.693-5.63-21.221-5.63h-35.296v43.741zm168.137 90.079c-10.972 0-20.499-2.237-28.583-6.712s-14.364-10.827-18.839-19.056c-4.475-8.372-6.713-18.189-6.713-29.449 0-8.517 1.227-16.096 3.681-22.736 2.599-6.785 6.28-12.559 11.044-17.323 4.764-4.908 10.466-8.589 17.106-11.043 6.641-2.599 14.075-3.898 22.304-3.898 10.971 0 20.498 2.237 28.583 6.713 8.084 4.475 14.363 10.826 18.838 19.055 4.475 8.228 6.713 17.972 6.713 29.232 0 8.517-1.299 16.168-3.898 22.953-2.454 6.785-6.063 12.632-10.827 17.54-4.763 4.764-10.466 8.445-17.106 11.043-6.641 2.454-14.075 3.681-22.303 3.681zm0-20.571c5.341 0 10.033-1.299 14.075-3.897 4.042-2.599 7.145-6.424 9.311-11.477 2.309-5.197 3.464-11.621 3.464-19.272 0-11.548-2.454-20.138-7.362-25.768-4.908-5.774-11.404-8.661-19.488-8.661-5.342 0-10.033 1.299-14.075 3.898-4.042 2.454-7.218 6.279-9.528 11.476-2.165 5.053-3.248 11.404-3.248 19.055 0 11.405 2.454 20.066 7.362 25.985 4.908 5.774 11.405 8.661 19.489 8.661zm124.766 20.571c-10.975 0-20.503-2.237-28.587-6.712s-14.363-10.827-18.838-19.056c-4.475-8.372-6.713-18.189-6.713-29.449 0-8.517 1.227-16.096 3.681-22.736 2.599-6.785 6.28-12.559 11.044-17.323 4.763-4.908 10.466-8.589 17.106-11.043 6.64-2.599 14.075-3.898 22.307-3.898 10.97 0 20.5 2.237 28.58 6.713 8.08 4.475 14.36 10.826 18.84 19.055 4.47 8.228 6.71 17.972 6.71 29.232 0 8.517-1.3 16.168-3.9 22.953-2.45 6.785-6.06 12.632-10.82 17.54-4.77 4.764-10.47 8.445-17.11 11.043-6.64 2.454-14.08 3.681-22.3 3.681zm0-20.571c5.34 0 10.03-1.299 14.07-3.897 4.04-2.599 7.15-6.424 9.31-11.477 2.31-5.197 3.47-11.621 3.47-19.272 0-11.548-2.46-20.138-7.37-25.768-4.9-5.774-11.4-8.661-19.48-8.661-5.345 0-10.037 1.299-14.079 3.898-4.042 2.454-7.217 6.279-9.527 11.476-2.166 5.053-3.248 11.404-3.248 19.055 0 11.405 2.454 20.066 7.362 25.985 4.908 5.774 11.404 8.661 19.492 8.661zm89.9 20.138c-4.33 0-7.65-1.155-9.96-3.464-2.31-2.454-3.47-5.919-3.47-10.394V120.251c0-4.475 1.16-7.868 3.47-10.178 2.31-2.309 5.63-3.464 9.96-3.464 4.33 0 7.65 1.155 9.96 3.464 2.45 2.31 3.68 5.703 3.68 10.178v79.902h.43l35.73-37.677c2.89-2.888 5.41-5.125 7.58-6.713 2.16-1.588 5.12-2.382 8.88-2.382 3.75 0 6.57 1.01 8.44 3.031 2.02 1.877 3.03 4.187 3.03 6.93 0 2.742-1.3 5.485-3.89 8.228l-37.68 39.843v-11.26l41.36 44.607c2.6 2.743 3.75 5.557 3.46 8.445-.14 2.742-1.3 5.052-3.46 6.929-2.17 1.732-4.91 2.598-8.23 2.598-4.04 0-7.29-.794-9.75-2.382-2.31-1.588-4.9-3.969-7.79-7.145l-37.68-39.41h-.43v35.079c0 9.239-4.55 13.858-13.64 13.858z"/><g clip-path="url(#clip0_935_2)"><path fill="#002E6D" d="M433.944 68.7373h14.323c-.057-.6086-.094-1.2233-.094-1.8466.003-2.1038.345-4.1933 1.014-6.1879-.063-.0052-.124-.0251-.189-.0251h-15.572c.725 2.6223.902 5.3661.518 8.0596zM257.295 61.248c-.266.0006-.53.0273-.79.0797.629 2.5966.726 5.2939.284 7.929.167.0277.336.0448.506.0509h42.921c-.56-2.6574-.56-5.4021 0-8.0596h-42.921zm-82.827 73.404l52.233-52.2333c-2.275-1.4837-4.215-3.4245-5.699-5.699l-52.128 52.1283c1.962 1.838 3.829 3.775 5.594 5.804zm79.423-79.4249l18.909-18.909a19.58023 19.58023 0 0 1-5.699-5.699l-18.909 18.909c2.275 1.4837 4.216 3.4246 5.699 5.699zm141.306 14.1665a19.7952 19.7952 0 0 1 .264-8.0596H338.69c.545 2.6604.531 5.4051-.043 8.0596h56.55zM38.0324 263.958a19.58023 19.58023 0 0 1 5.699 5.699l18.6378-18.638a78.80914 78.80914 0 0 1-6.0406-5.357l-18.2962 18.296zm443.9456 0c2.275 1.483 4.216 3.424 5.699 5.699l16.629-16.629c-2.179-1.598-4.275-3.306-6.279-5.119l-16.049 16.049zM61.5952 125.503L43.7314 107.64a19.58266 19.58266 0 0 1-5.699 5.699l17.6095 17.609c1.8906-1.915 3.8776-3.732 5.9533-5.445zm428.7298 10.576l-59.359-59.3593a19.58023 19.58023 0 0 1-5.699 5.699l60.183 60.1833c1.512-2.256 3.14-4.433 4.875-6.523zm-300.747 51.962c.094-18.371-6.433-36.162-18.387-50.113-1.752-2.039-3.614-3.982-5.576-5.821-14.189-13.194-32.891-20.456-52.266-20.294-17.6439-.132-34.7853 5.874-48.4873 16.992-2.0804 1.694-4.0679 3.498-5.954 5.406-14.0881 14.527-21.9108 34.004-21.7851 54.24.1257 20.236 8.1897 39.614 22.457 53.965 1.9126 1.881 3.9255 3.658 6.0301 5.322 12.6348 9.762 27.9552 15.422 43.9023 16.219 15.946.798 31.755-3.306 45.301-11.758l1.643 1.643 1.669 1.669 14.147 14.147c1.484-2.275 3.424-4.216 5.699-5.699l-13.249-13.249-1.642-1.642-1.621-1.621c8.855-7.148 15.982-16.202 20.851-26.488 4.869-10.286 7.353-21.538 7.268-32.918zm-76.229 39.296c-23.1901 0-36.0738-17.178-36.0738-39.296 0-22.116 12.8837-39.509 36.0738-39.509 22.762 0 36.075 17.393 36.075 39.509 0 22.118-13.313 39.296-36.075 39.296zm94.693-68.07c0 26.626 18.037 41.228 44.019 43.804 1.503.216 3.651.43 5.154.645 19.755 2.361 25.982 7.944 25.982 16.749 0 9.877-6.871 14.386-21.688 14.386-13.528 0-23.405-9.448-25.982-17.392-.266-1.066-.367-1.471-.867-1.471-.513.067-1.016.2-1.495.396l-26.411 10.737c-1.503.644-1.718 1.718-.859 4.08 7.3 21.044 25.552 32.853 54.755 32.853 33.713 0 60.983-14.601 60.983-47.67 0-26.84-15.89-41.442-43.375-45.307-2.791-.429-5.154-.859-7.086-1.074-19.325-3.22-27.27-7.3-27.27-17.177 0-7.945 4.724-13.528 19.755-13.528 5.226.171 10.289 1.869 14.562 4.883 4.274 3.014 7.572 7.214 9.487 12.08.292.73.683 1.162 1.375 1.162.417-.02.825-.123 1.202-.303l25.123-10.092c1.288-.43 2.147-1.289 1.503-3.651-5.583-18.037-23.191-31.564-51.749-31.564-38.007-.001-57.118 19.54-57.118 47.454zm203.351-44.45h-64.419c-.143 0-.292-.005-.441-.005-.745 0-1.491.149-1.491 1.938v141.721c0 1.789 0 1.938 1.119 1.938.224 0 .492-.006.814-.006h34.785c1.718 0 1.933-.214 1.933-1.932v-34.572s24.264-.215 30.492-.859c27.485-3.221 48.313-17.178 48.313-52.393 0-33.068-19.11-55.83-51.105-55.83zm-9.663 76.873l-18.038.644v-45.522h17.609c13.098 0 21.473 8.16 21.473 22.546 0 12.239-6.012 21.687-21.044 22.332zm150.952-79.878c-12.664-.165-25.163 2.879-36.332 8.849-11.17 5.969-20.646 14.67-27.545 25.291-8.118 12.531-12.41 27.156-12.352 42.088-.075 10.652 2.098 21.201 6.376 30.957 4.279 9.756 10.566 18.5 18.453 25.661 2.01 1.809 4.117 3.507 6.312 5.086 13.14 9.413 28.924 14.423 45.088 14.309 19.578.262 38.486-7.124 52.703-20.587 14.218-13.463 22.623-31.94 23.429-51.503.064-1.3.096-2.607.096-3.923 0-1.389-.041-2.767-.112-4.137-.847-19.546-9.262-37.997-23.467-51.451-14.205-13.453-33.085-20.855-52.649-20.64zm0 115.524c-23.191 0-36.074-17.179-36.074-39.296s12.883-39.509 36.074-39.509c22.76 0 36.074 17.392 36.074 39.509s-13.314 39.296-36.074 39.296z"/><path fill="#FEBE85" d="M487.68 269.658c-2.22-3.393-5.436-6.015-9.207-7.506-3.77-1.492-7.91-1.779-11.85-.823-3.94.956-7.487 3.109-10.155 6.163-2.667 3.053-4.323 6.858-4.741 10.891-.418 4.033.423 8.096 2.407 11.632 1.985 3.535 5.016 6.37 8.676 8.113 3.66 1.744 7.771 2.312 11.767 1.625 3.996-.686 7.681-2.593 10.55-5.459 3.189-3.189 5.183-7.379 5.648-11.865.465-4.486-.628-8.996-3.095-12.771zM319.441 45.6328c-4.052.002-8.005 1.2575-11.315 3.5944-3.31 2.3369-5.817 5.6407-7.175 9.4582-1.359 3.8176-1.503 7.9619-.413 11.8647 1.09 3.9027 3.361 7.3727 6.5 9.934 3.14 2.5613 6.996 4.0885 11.038 4.372 4.042.2836 8.073-.6903 11.54-2.7881 3.467-2.0978 6.199-5.2168 7.824-8.9291 1.624-3.7123 2.06-7.8362 1.247-11.8061-.914-4.4306-3.327-8.4109-6.833-11.2705-3.505-2.8597-7.889-4.4239-12.413-4.4295z"/><path fill="#4AC1E0" d="M467.816 47.2442c-5.206.0133-10.195 2.0873-13.876 5.7686-3.682 3.6814-5.756 8.6705-5.769 13.8766 0 .6232.036 1.238.093 1.8467a19.6497 19.6497 0 0 0 4.179 10.3722c2.368 2.9796 5.551 5.2069 9.162 6.4111 3.61 1.2043 7.493 1.3336 11.176.3722 3.682-.9614 7.007-2.972 9.568-5.7875 2.561-2.8154 4.249-6.3143 4.859-10.0713.61-3.757.115-7.6102-1.425-11.0911-1.539-3.4809-4.057-6.4396-7.247-8.5162-3.189-2.0767-6.914-3.1819-10.72-3.1813zM41.1809 266.509c-3.5601-3.563-8.3523-5.623-13.3875-5.755-5.0352-.132-9.9289 1.674-13.6711 5.045-3.7421 3.372-6.04696 8.051-6.4388 13.073-.39184 5.022 1.15927 10.002 4.3331 13.913 3.1739 3.911 7.7283 6.454 12.723 7.105 4.9947.65 10.0486-.642 14.1183-3.609 4.0697-2.968 6.8446-7.385 7.752-12.34.9073-4.954-.1222-10.068-2.876-14.285-.7403-1.134-1.5958-2.189-2.553-3.147zm-3.1464-153.168c3.3972-2.22 6.0235-5.438 7.5178-9.211 1.4943-3.773 1.7833-7.9168.8274-11.8609-.956-3.9441-3.11-7.4954-6.166-10.1657-3.0561-2.6702-6.8641-4.3285-10.9008-4.7468a19.64502 19.64502 0 0 0-11.6425 2.4107 19.64448 19.64448 0 0 0-8.11952 8.6853 19.64474 19.64474 0 0 0-1.62224 11.7784c.68885 3.999 2.59946 7.687 5.46926 10.557 3.1892 3.189 7.3789 5.184 11.8652 5.649 4.4863.464 8.996-.629 12.7714-3.096zM428.412 52.0818c-3.369-3.3779-7.852-5.4132-12.612-5.7253-4.761-.3121-9.472 1.1204-13.252 4.0296-3.781 2.9092-6.373 7.0959-7.291 11.7772-.917 4.6814-.099 9.5368 2.303 13.6583 2.403 4.1215 6.224 7.227 10.749 8.7357 4.526 1.5086 9.446 1.3172 13.841-.5385s7.963-5.2486 10.038-9.5443c2.074-4.2957 2.513-9.2 1.234-13.7959-.905-3.2477-2.631-6.208-5.01-8.5968z"/><path fill="#2ED9C3" d="M269.651 5.98327a19.64776 19.64776 0 0 0-5.376 10.05873 19.64457 19.64457 0 0 0 1.118 11.3505 19.6486 19.6486 0 0 0 7.235 8.8165 19.64668 19.64668 0 0 0 10.915 3.3109c3.885 0 7.683-1.1522 10.914-3.3109a19.6443 19.6443 0 0 0 7.236-8.8165 19.64457 19.64457 0 0 0 1.118-11.3505 19.642 19.642 0 0 0-5.377-10.05873C293.746 2.30669 288.75.24219 283.543.24219c-5.208 0-10.203 2.0645-13.892 5.74108zM253.893 55.2273c-2.698-4.1817-6.869-7.1974-11.685-8.4498-4.817-1.2523-9.928-.6499-14.321 1.688-4.394 2.3379-7.749 6.2406-9.401 10.9351-1.652 4.6945-1.48 9.8382.481 14.4122 1.961 4.5741 5.568 8.2447 10.108 10.2847 4.539 2.0401 9.679 2.3008 14.401.7304 4.723-1.5703 8.683-4.8571 11.097-9.2093 2.414-4.3522 3.105-9.4522 1.936-14.2897-.52-2.1675-1.404-4.2309-2.616-6.1016z"/><path fill="#0ECAB2" d="M177.969 263.96c-3.397 2.22-6.023 5.437-7.517 9.21a19.64423 19.64423 0 0 0-.827 11.86c.956 3.944 3.11 7.495 6.166 10.165 3.056 2.67 6.863 4.328 10.9 4.746 4.036.418 8.103-.424 11.642-2.41 3.538-1.987 6.374-5.021 8.119-8.685 1.744-3.664 2.311-7.778 1.622-11.777-.689-3.999-2.599-7.687-5.468-10.557-3.19-3.189-7.379-5.184-11.866-5.649-4.486-.464-8.996.629-12.771 3.097z"/></g><defs><clipPath id="clip0_935_2"><path fill="#fff" d="M0 0h629v300H0z"/></clipPath></defs></svg>