<svg width="538" height="68" viewBox="0 0 538 68" fill="none" xmlns="http://www.w3.org/2000/svg">
<path d="M152 0C157.523 0 162 4.4772 162 10V26.0381L170 33.5L162 40.9609V58C162 63.5228 157.523 68 152 68H104C98.477 68 94 63.5228 94 58V10C94 4.4772 98.477 0 104 0H152Z" fill="#F8D85C"/>
<path d="M247 0C252.523 0 257 4.4772 257 10V26.9707L264 33.5L257 40.0283V58C257 63.5228 252.523 68 247 68H199C193.477 68 189 63.5228 189 58V10C189 4.4772 193.477 0 199 0H247Z" fill="#A1D33C"/>
<path d="M340 0C345.523 0 350 4.4772 350 10V26.0381L358 33.5L350 40.9609V58C350 63.5228 345.523 68 340 68H292C286.477 68 282 63.5228 282 58V10C282 4.4772 286.477 0 292 0H340Z" fill="#A1D33C"/>
<path d="M434 0C439.523 0 444 4.4772 444 10V26.0381L452 33.5L444 40.9609V58C444 63.5228 439.523 68 434 68H386C380.477 68 376 63.5228 376 58V10C376 4.4772 380.477 0 386 0H434Z" fill="#10A984"/>
<path d="M528 0H480C474.477 0 470 4.47715 470 10V58C470 63.5228 474.477 68 480 68H528C533.523 68 538 63.5228 538 58V10C538 4.47715 533.523 0 528 0Z" fill="#0B6554"/>
<path d="M106.969 33.5898H110.084V37.6611C109.673 37.7972 109.245 37.9064 108.801 37.9888C108.357 38.0675 107.854 38.1069 107.292 38.1069C106.511 38.1069 105.848 37.953 105.304 37.645C104.76 37.3371 104.346 36.8823 104.063 36.2807C103.781 35.6792 103.639 34.9398 103.639 34.0625C103.639 33.2389 103.797 32.5264 104.112 31.9248C104.431 31.3232 104.894 30.8577 105.503 30.5283C106.115 30.1989 106.862 30.0342 107.743 30.0342C108.158 30.0342 108.568 30.0789 108.973 30.1684C109.377 30.258 109.744 30.3743 110.074 30.5176L109.521 31.8496C109.281 31.7279 109.007 31.6258 108.699 31.5434C108.391 31.4611 108.069 31.4199 107.732 31.4199C107.249 31.4199 106.828 31.5309 106.47 31.7529C106.115 31.9749 105.84 32.2864 105.643 32.6875C105.449 33.0849 105.353 33.554 105.353 34.0947C105.353 34.6068 105.422 35.0615 105.562 35.459C105.702 35.8529 105.922 36.1626 106.223 36.3882C106.523 36.6102 106.916 36.7212 107.399 36.7212C107.635 36.7212 107.834 36.7104 107.995 36.689C108.16 36.6639 108.314 36.6388 108.457 36.6138V34.9756H106.969V33.5898ZM114.247 30.147C114.96 30.147 115.547 30.2329 116.009 30.4048C116.474 30.5766 116.82 30.8363 117.045 31.1836C117.271 31.5309 117.384 31.9696 117.384 32.4995C117.384 32.8576 117.316 33.1709 117.18 33.4394C117.044 33.708 116.865 33.9354 116.643 34.1216C116.421 34.3078 116.181 34.4599 115.923 34.5781L118.232 37.9995H116.385L114.51 34.9863H113.624V37.9995H111.959V30.147H114.247ZM114.129 31.5112H113.624V33.6328H114.161C114.713 33.6328 115.106 33.5415 115.343 33.3589C115.583 33.1727 115.703 32.9005 115.703 32.5425C115.703 32.1701 115.574 31.9051 115.316 31.7475C115.062 31.59 114.666 31.5112 114.129 31.5112ZM126.348 34.0625C126.348 34.6676 126.273 35.2191 126.123 35.7168C125.972 36.2109 125.743 36.637 125.435 36.9951C125.131 37.3532 124.744 37.6289 124.275 37.8223C123.806 38.012 123.251 38.1069 122.61 38.1069C121.969 38.1069 121.414 38.012 120.945 37.8223C120.476 37.6289 120.087 37.3532 119.779 36.9951C119.475 36.637 119.248 36.2091 119.097 35.7114C118.947 35.2137 118.872 34.6605 118.872 34.0517C118.872 33.2389 119.004 32.5317 119.269 31.9302C119.538 31.325 119.949 30.8559 120.504 30.5229C121.059 30.1899 121.765 30.0234 122.621 30.0234C123.473 30.0234 124.173 30.1899 124.721 30.5229C125.272 30.8559 125.68 31.325 125.945 31.9302C126.214 32.5353 126.348 33.2461 126.348 34.0625ZM120.617 34.0625C120.617 34.6103 120.685 35.083 120.821 35.4805C120.961 35.8743 121.178 36.1787 121.471 36.3935C121.765 36.6048 122.144 36.7104 122.61 36.7104C123.083 36.7104 123.466 36.6048 123.759 36.3935C124.053 36.1787 124.266 35.8743 124.398 35.4805C124.535 35.083 124.603 34.6103 124.603 34.0625C124.603 33.2389 124.449 32.5908 124.141 32.1182C123.833 31.6455 123.326 31.4092 122.621 31.4092C122.152 31.4092 121.768 31.5166 121.471 31.7314C121.178 31.9427 120.961 32.2471 120.821 32.6445C120.685 33.0384 120.617 33.5111 120.617 34.0625ZM137.622 30.147L135.624 37.9995H133.728L132.665 33.8745C132.643 33.7957 132.614 33.6758 132.579 33.5146C132.543 33.3535 132.505 33.178 132.466 32.9883C132.426 32.7949 132.391 32.6141 132.358 32.4458C132.33 32.2739 132.31 32.1378 132.299 32.0376C132.289 32.1378 132.267 32.2721 132.235 32.4404C132.206 32.6087 132.172 32.7877 132.133 32.9775C132.097 33.1673 132.061 33.3446 132.025 33.5093C131.99 33.674 131.961 33.7993 131.939 33.8852L130.881 37.9995H128.991L126.987 30.147H128.625L129.63 34.4331C129.659 34.562 129.691 34.716 129.727 34.895C129.766 35.074 129.804 35.262 129.839 35.459C129.879 35.6523 129.913 35.8403 129.941 36.0229C129.974 36.202 129.997 36.3577 130.011 36.4902C130.029 36.3542 130.052 36.1966 130.081 36.0176C130.11 35.8349 130.14 35.6505 130.172 35.4643C130.208 35.2746 130.244 35.0991 130.28 34.938C130.316 34.7768 130.348 34.6461 130.376 34.5459L131.521 30.147H133.094L134.238 34.5459C134.263 34.6426 134.292 34.7733 134.324 34.938C134.36 35.0991 134.396 35.2746 134.432 35.4643C134.467 35.6541 134.5 35.8403 134.528 36.0229C134.561 36.202 134.584 36.3577 134.598 36.4902C134.623 36.3112 134.657 36.0946 134.7 35.8403C134.747 35.5825 134.795 35.3265 134.845 35.0723C134.899 34.818 134.945 34.605 134.985 34.4331L135.984 30.147H137.622ZM141.64 37.9995H139.975V31.5327H137.842V30.147H143.772V31.5327H141.64V37.9995ZM151.415 37.9995H149.755V34.6103H146.646V37.9995H144.98V30.147H146.646V33.2246H149.755V30.147H151.415V37.9995Z" fill="#282828"/>
<path d="M198.313 38L196.422 31.8394H196.374C196.381 31.9862 196.392 32.2082 196.406 32.5054C196.424 32.799 196.44 33.1123 196.455 33.4453C196.469 33.7783 196.476 34.0791 196.476 34.3477V38H194.988V30.1475H197.255L199.113 36.1523H199.146L201.117 30.1475H203.383V38H201.831V34.2832C201.831 34.0361 201.835 33.7515 201.842 33.4292C201.853 33.1069 201.865 32.8008 201.879 32.5107C201.894 32.2171 201.904 31.9969 201.912 31.8501H201.863L199.838 38H198.313ZM210.172 38L209.603 36.1309H206.74L206.171 38H204.377L207.148 30.1152H209.184L211.966 38H210.172ZM209.206 34.7344L208.636 32.9082C208.6 32.7865 208.552 32.6307 208.491 32.4409C208.434 32.2476 208.375 32.0524 208.314 31.8555C208.257 31.6549 208.21 31.4813 208.174 31.3345C208.139 31.4813 208.088 31.6639 208.024 31.8823C207.963 32.0972 207.904 32.3013 207.847 32.4946C207.789 32.688 207.748 32.8258 207.723 32.9082L207.159 34.7344H209.206ZM215.989 38H214.324V31.5332H212.192V30.1475H218.122V31.5332H215.989V38ZM225.722 30.1475V35.2285C225.722 35.7692 225.602 36.258 225.362 36.6948C225.125 37.1281 224.766 37.4718 224.282 37.7261C223.802 37.9803 223.197 38.1074 222.467 38.1074C221.428 38.1074 220.637 37.8424 220.093 37.3125C219.549 36.7826 219.276 36.0807 219.276 35.207V30.1475H220.936V34.9546C220.936 35.6027 221.069 36.0575 221.333 36.3188C221.598 36.5802 221.991 36.7109 222.51 36.7109C222.875 36.7109 223.17 36.6483 223.396 36.5229C223.625 36.3976 223.793 36.2043 223.901 35.9429C224.008 35.6815 224.062 35.3485 224.062 34.9438V30.1475H225.722ZM229.933 30.1475C230.645 30.1475 231.232 30.2334 231.694 30.4053C232.16 30.5771 232.505 30.8368 232.731 31.1841C232.957 31.5314 233.069 31.9701 233.069 32.5C233.069 32.8581 233.001 33.1714 232.865 33.4399C232.729 33.7085 232.55 33.9359 232.328 34.1221C232.106 34.3083 231.866 34.4604 231.608 34.5786L233.918 38H232.07L230.196 34.9868H229.31V38H227.645V30.1475H229.933ZM229.814 31.5117H229.31V33.6333H229.847C230.398 33.6333 230.792 33.542 231.028 33.3594C231.268 33.1732 231.388 32.901 231.388 32.543C231.388 32.1706 231.259 31.9056 231.001 31.748C230.747 31.5905 230.352 31.5117 229.814 31.5117ZM234.906 38V30.1475H236.571V38H234.906ZM241.577 38H239.912V31.5332H237.78V30.1475H243.709V31.5332H241.577V38ZM247.362 33.3809L249 30.1475H250.794L248.189 34.9438V38H246.535V34.9976L243.93 30.1475H245.734L247.362 33.3809Z" fill="#282828"/>
<path d="M301.171 22.148L299.173 30.0005H297.277L296.213 25.8755C296.192 25.7967 296.163 25.6768 296.127 25.5156C296.092 25.3545 296.054 25.179 296.015 24.9893C295.975 24.7959 295.939 24.6151 295.907 24.4468C295.879 24.2749 295.859 24.1388 295.848 24.0386C295.837 24.1388 295.816 24.2731 295.784 24.4414C295.755 24.6097 295.721 24.7887 295.682 24.9785C295.646 25.1683 295.61 25.3456 295.574 25.5103C295.538 25.675 295.51 25.8003 295.488 25.8862L294.43 30.0005H292.54L290.536 22.148H292.174L293.179 26.4341C293.207 26.563 293.24 26.717 293.275 26.896C293.315 27.075 293.352 27.263 293.388 27.46C293.428 27.6533 293.462 27.8413 293.49 28.0239C293.522 28.203 293.546 28.3587 293.56 28.4912C293.578 28.3552 293.601 28.1976 293.63 28.0186C293.659 27.8359 293.689 27.6515 293.721 27.4653C293.757 27.2756 293.793 27.1001 293.829 26.939C293.864 26.7778 293.897 26.6471 293.925 26.5469L295.069 22.148H296.643L297.787 26.5469C297.812 26.6436 297.841 26.7743 297.873 26.939C297.909 27.1001 297.945 27.2756 297.98 27.4653C298.016 27.6551 298.049 27.8413 298.077 28.0239C298.109 28.203 298.133 28.3587 298.147 28.4912C298.172 28.3122 298.206 28.0956 298.249 27.8413C298.296 27.5835 298.344 27.3275 298.394 27.0733C298.448 26.819 298.494 26.606 298.534 26.4341L299.533 22.148H301.171ZM302.159 30.0005V22.148H303.824V30.0005H302.159ZM312.767 30.0005H310.651L307.235 24.0601H307.187C307.201 24.3071 307.213 24.556 307.224 24.8067C307.235 25.0573 307.246 25.308 307.256 25.5586C307.267 25.8057 307.278 26.0545 307.289 26.3052V30.0005H305.801V22.148H307.901L311.312 28.0293H311.349C311.342 27.7858 311.333 27.5441 311.322 27.3042C311.312 27.0643 311.301 26.8244 311.29 26.5845C311.283 26.3446 311.276 26.1047 311.269 25.8648V22.148H312.767V30.0005ZM321.264 25.999C321.264 26.8835 321.094 27.6229 320.754 28.2173C320.417 28.8081 319.929 29.2539 319.288 29.5547C318.647 29.8519 317.875 30.0005 316.973 30.0005H314.749V22.148H317.214C318.038 22.148 318.752 22.2948 319.357 22.5884C319.963 22.8784 320.432 23.3099 320.765 23.8828C321.098 24.4522 321.264 25.1576 321.264 25.999ZM319.535 26.042C319.535 25.4619 319.449 24.9857 319.277 24.6133C319.109 24.2373 318.858 23.9598 318.525 23.7808C318.195 23.6017 317.787 23.5122 317.3 23.5122H316.414V28.6255H317.128C317.941 28.6255 318.545 28.4089 318.938 27.9756C319.336 27.5423 319.535 26.8978 319.535 26.042ZM322.892 30.0005V22.148H324.557V30.0005H322.892ZM333.5 30.0005H331.383L327.967 24.0601H327.919C327.933 24.3071 327.946 24.556 327.957 24.8067C327.967 25.0573 327.978 25.308 327.989 25.5586C328 25.8057 328.01 26.0545 328.021 26.3052V30.0005H326.533V22.148H328.633L332.044 28.0293H332.082C332.074 27.7858 332.065 27.5441 332.055 27.3042C332.044 27.0643 332.033 26.8244 332.022 26.5845C332.015 26.3446 332.008 26.1047 332.001 25.8648V22.148H333.5V30.0005ZM338.462 25.5908H341.578V29.6621C341.166 29.7982 340.738 29.9074 340.294 29.9898C339.85 30.0685 339.347 30.1079 338.785 30.1079C338.004 30.1079 337.342 29.954 336.797 29.646C336.253 29.3381 335.84 28.8833 335.557 28.2817C335.274 27.6802 335.132 26.9408 335.132 26.0635C335.132 25.2399 335.29 24.5274 335.605 23.9258C335.924 23.3242 336.387 22.8587 336.996 22.5293C337.608 22.1999 338.355 22.0352 339.236 22.0352C339.651 22.0352 340.061 22.0799 340.466 22.1694C340.87 22.259 341.237 22.3753 341.567 22.5186L341.014 23.8506C340.774 23.7289 340.5 23.6268 340.192 23.5444C339.884 23.4621 339.562 23.4209 339.225 23.4209C338.742 23.4209 338.321 23.5319 337.963 23.7539C337.608 23.9759 337.333 24.2874 337.136 24.6885C336.942 25.0859 336.846 25.555 336.846 26.0957C336.846 26.6078 336.916 27.0625 337.055 27.46C337.195 27.8539 337.415 28.1636 337.716 28.3892C338.017 28.6112 338.409 28.7222 338.892 28.7222C339.128 28.7222 339.327 28.7114 339.488 28.69C339.653 28.6649 339.807 28.6398 339.95 28.6148V26.9766H338.462V25.5908ZM305.763 40.999C305.763 41.8835 305.593 42.6229 305.253 43.2173C304.916 43.8081 304.428 44.2539 303.787 44.5547C303.146 44.8519 302.374 45.0005 301.472 45.0005H299.248V37.148H301.713C302.537 37.148 303.251 37.2948 303.856 37.5884C304.462 37.8784 304.931 38.3099 305.264 38.8828C305.597 39.4522 305.763 40.1576 305.763 40.999ZM304.034 41.042C304.034 40.4619 303.948 39.9857 303.776 39.6133C303.608 39.2373 303.357 38.9598 303.024 38.7808C302.694 38.6017 302.286 38.5122 301.799 38.5122H300.913V43.6255H301.627C302.44 43.6255 303.044 43.4089 303.438 42.9756C303.835 42.5423 304.034 41.8978 304.034 41.042ZM314.518 41.0635C314.518 41.6686 314.443 42.2201 314.292 42.7178C314.142 43.2119 313.913 43.638 313.605 43.9961C313.301 44.3542 312.914 44.6299 312.445 44.8233C311.976 45.013 311.421 45.1079 310.78 45.1079C310.139 45.1079 309.584 45.013 309.115 44.8233C308.646 44.6299 308.257 44.3542 307.949 43.9961C307.645 43.638 307.417 43.2101 307.267 42.7124C307.117 42.2147 307.042 41.6615 307.042 41.0527C307.042 40.2399 307.174 39.5327 307.439 38.9312C307.708 38.326 308.119 37.8569 308.674 37.5239C309.229 37.1909 309.935 37.0244 310.791 37.0244C311.643 37.0244 312.343 37.1909 312.891 37.5239C313.442 37.8569 313.85 38.326 314.115 38.9312C314.384 39.5363 314.518 40.2471 314.518 41.0635ZM308.787 41.0635C308.787 41.6113 308.855 42.084 308.991 42.4815C309.131 42.8753 309.347 43.1797 309.641 43.3945C309.935 43.6058 310.314 43.7114 310.78 43.7114C311.252 43.7114 311.636 43.6058 311.929 43.3945C312.223 43.1797 312.436 42.8753 312.568 42.4815C312.704 42.084 312.772 41.6113 312.772 41.0635C312.772 40.2399 312.618 39.5918 312.311 39.1192C312.003 38.6465 311.496 38.4102 310.791 38.4102C310.321 38.4102 309.938 38.5176 309.641 38.7324C309.347 38.9437 309.131 39.2481 308.991 39.6455C308.855 40.0394 308.787 40.5121 308.787 41.0635ZM325.792 37.148L323.794 45.0005H321.898L320.834 40.8755C320.813 40.7967 320.784 40.6768 320.749 40.5156C320.713 40.3545 320.675 40.179 320.636 39.9893C320.596 39.7959 320.561 39.6151 320.528 39.4468C320.5 39.2749 320.48 39.1388 320.469 39.0386C320.458 39.1388 320.437 39.2731 320.405 39.4414C320.376 39.6097 320.342 39.7887 320.303 39.9785C320.267 40.1683 320.231 40.3456 320.195 40.5103C320.16 40.675 320.131 40.8003 320.109 40.8862L319.051 45.0005H317.161L315.157 37.148H316.795L317.8 41.4341C317.828 41.563 317.861 41.717 317.896 41.896C317.936 42.075 317.973 42.263 318.009 42.46C318.049 42.6533 318.083 42.8413 318.111 43.0239C318.144 43.203 318.167 43.3587 318.181 43.4912C318.199 43.3552 318.222 43.1976 318.251 43.0186C318.28 42.8359 318.31 42.6515 318.342 42.4653C318.378 42.2756 318.414 42.1001 318.45 41.939C318.486 41.7778 318.518 41.6471 318.546 41.5469L319.69 37.148H321.264L322.408 41.5469C322.433 41.6436 322.462 41.7743 322.494 41.939C322.53 42.1001 322.566 42.2756 322.602 42.4653C322.637 42.6551 322.67 42.8413 322.698 43.0239C322.73 43.203 322.754 43.3587 322.768 43.4912C322.793 43.3122 322.827 43.0956 322.87 42.8413C322.917 42.5835 322.965 42.3275 323.015 42.0733C323.069 41.819 323.115 41.606 323.155 41.4341L324.154 37.148H325.792ZM333.747 45.0005H331.63L328.214 39.0601H328.166C328.18 39.3071 328.193 39.556 328.204 39.8067C328.214 40.0573 328.225 40.308 328.236 40.5586C328.247 40.8057 328.257 41.0545 328.268 41.3052V45.0005H326.78V37.148H328.88L332.291 43.0293H332.329C332.321 42.7858 332.312 42.5441 332.302 42.3042C332.291 42.0643 332.28 41.8244 332.27 41.5845C332.262 41.3446 332.255 41.1047 332.248 40.8648V37.148H333.747V45.0005Z" fill="#282828"/>
<path d="M393.581 27.8188C393.581 28.2843 393.468 28.689 393.243 29.0327C393.017 29.3765 392.688 29.6414 392.254 29.8276C391.825 30.0138 391.302 30.1069 390.686 30.1069C390.414 30.1069 390.147 30.089 389.886 30.0532C389.628 30.0174 389.379 29.9655 389.139 29.8974C388.903 29.8258 388.677 29.7381 388.462 29.6343V28.0874C388.835 28.2521 389.222 28.4007 389.623 28.5332C390.024 28.6657 390.421 28.7319 390.815 28.7319C391.087 28.7319 391.306 28.6961 391.47 28.6245C391.639 28.5529 391.76 28.4544 391.835 28.3291C391.911 28.2038 391.948 28.0605 391.948 27.8994C391.948 27.7025 391.882 27.5342 391.75 27.3945C391.617 27.2549 391.434 27.1242 391.202 27.0024C390.972 26.8807 390.713 26.75 390.423 26.6103C390.24 26.5244 390.042 26.4206 389.827 26.2988C389.612 26.1735 389.408 26.0213 389.214 25.8423C389.021 25.6632 388.862 25.4466 388.736 25.1924C388.615 24.9346 388.554 24.6266 388.554 24.2685C388.554 23.7995 388.661 23.3984 388.876 23.0654C389.091 22.7324 389.397 22.4782 389.794 22.3027C390.195 22.1237 390.668 22.0342 391.212 22.0342C391.621 22.0342 392.009 22.0825 392.378 22.1792C392.75 22.2723 393.139 22.4084 393.543 22.5874L393.006 23.8818C392.645 23.735 392.321 23.6222 392.034 23.5434C391.748 23.4611 391.456 23.4199 391.159 23.4199C390.951 23.4199 390.774 23.4539 390.627 23.522C390.48 23.5864 390.369 23.6795 390.294 23.8013C390.219 23.9194 390.181 24.0573 390.181 24.2148C390.181 24.401 390.235 24.5586 390.342 24.6875C390.453 24.8128 390.618 24.9346 390.836 25.0527C391.058 25.1709 391.334 25.3087 391.664 25.4663C392.065 25.6561 392.407 25.8548 392.689 26.0625C392.976 26.2666 393.196 26.5083 393.35 26.7876C393.504 27.0633 393.581 27.4071 393.581 27.8188ZM399.527 29.9995H395.004V22.147H399.527V23.5112H396.669V25.2353H399.328V26.5996H396.669V28.6245H399.527V29.9995ZM404.506 23.4199C404.187 23.4199 403.904 23.4826 403.657 23.6079C403.414 23.7296 403.208 23.9069 403.04 24.1396C402.875 24.3724 402.75 24.6535 402.664 24.9829C402.578 25.3123 402.535 25.6829 402.535 26.0947C402.535 26.6497 402.603 27.1242 402.739 27.5181C402.878 27.9084 403.093 28.2073 403.383 28.415C403.673 28.6191 404.048 28.7212 404.506 28.7212C404.825 28.7212 405.143 28.6854 405.462 28.6138C405.784 28.5421 406.133 28.4401 406.509 28.3076V29.7041C406.162 29.8473 405.82 29.9494 405.483 30.0102C405.147 30.0747 404.769 30.1069 404.35 30.1069C403.541 30.1069 402.875 29.9404 402.352 29.6074C401.833 29.2708 401.448 28.8017 401.197 28.2002C400.947 27.595 400.821 26.8896 400.821 26.084C400.821 25.4896 400.902 24.9453 401.063 24.4512C401.224 23.957 401.46 23.5291 401.772 23.1675C402.083 22.8058 402.468 22.5265 402.927 22.3296C403.385 22.1326 403.911 22.0342 404.506 22.0342C404.896 22.0342 405.286 22.0843 405.677 22.1846C406.071 22.2812 406.447 22.4155 406.805 22.5874L406.268 23.9409C405.974 23.8013 405.679 23.6795 405.381 23.5757C405.084 23.4718 404.792 23.4199 404.506 23.4199ZM415.312 26.0625C415.312 26.6676 415.237 27.2191 415.087 27.7168C414.937 28.2109 414.707 28.637 414.399 28.9951C414.095 29.3532 413.708 29.6289 413.239 29.8223C412.77 30.012 412.215 30.1069 411.574 30.1069C410.933 30.1069 410.378 30.012 409.909 29.8223C409.44 29.6289 409.052 29.3532 408.744 28.9951C408.439 28.637 408.212 28.2091 408.062 27.7114C407.911 27.2137 407.836 26.6605 407.836 26.0517C407.836 25.2389 407.968 24.5317 408.233 23.9302C408.502 23.325 408.914 22.8559 409.469 22.5229C410.024 22.1899 410.729 22.0234 411.585 22.0234C412.437 22.0234 413.137 22.1899 413.685 22.5229C414.236 22.8559 414.645 23.325 414.91 23.9302C415.178 24.5353 415.312 25.2461 415.312 26.0625ZM409.582 26.0625C409.582 26.6103 409.65 27.083 409.786 27.4805C409.925 27.8743 410.142 28.1787 410.436 28.3935C410.729 28.6048 411.109 28.7104 411.574 28.7104C412.047 28.7104 412.43 28.6048 412.724 28.3935C413.017 28.1787 413.23 27.8743 413.363 27.4805C413.499 27.083 413.567 26.6103 413.567 26.0625C413.567 25.2389 413.413 24.5908 413.105 24.1182C412.797 23.6455 412.29 23.4092 411.585 23.4092C411.116 23.4092 410.733 23.5166 410.436 23.7314C410.142 23.9427 409.925 24.2471 409.786 24.6445C409.65 25.0384 409.582 25.5111 409.582 26.0625ZM423.906 29.9995H421.79L418.374 24.0591H418.326C418.34 24.3061 418.353 24.555 418.363 24.8057C418.374 25.0563 418.385 25.307 418.396 25.5576C418.406 25.8047 418.417 26.0535 418.428 26.3042V29.9995H416.94V22.147H419.04L422.451 28.0283H422.488C422.481 27.7848 422.472 27.5431 422.461 27.3032C422.451 27.0633 422.44 26.8234 422.429 26.5835C422.422 26.3436 422.415 26.1037 422.408 25.8638V22.147H423.906V29.9995ZM432.403 25.998C432.403 26.8825 432.233 27.6219 431.893 28.2163C431.556 28.8071 431.068 29.2529 430.427 29.5537C429.786 29.8509 429.014 29.9995 428.112 29.9995H425.888V22.147H428.354C429.177 22.147 429.891 22.2938 430.497 22.5874C431.102 22.8774 431.571 23.3089 431.904 23.8818C432.237 24.4512 432.403 25.1566 432.403 25.998ZM430.674 26.041C430.674 25.4609 430.588 24.9847 430.416 24.6123C430.248 24.2363 429.997 23.9588 429.664 23.7798C429.335 23.6007 428.926 23.5112 428.439 23.5112H427.553V28.6245H428.268C429.08 28.6245 429.684 28.4079 430.078 27.9746C430.475 27.5413 430.674 26.8968 430.674 26.041ZM405.36 37.147L403.362 44.9995H401.466L400.402 40.8745C400.381 40.7957 400.352 40.6758 400.316 40.5146C400.281 40.3535 400.243 40.178 400.204 39.9883C400.164 39.7949 400.128 39.6141 400.096 39.4458C400.068 39.2739 400.048 39.1378 400.037 39.0376C400.026 39.1378 400.005 39.2721 399.973 39.4404C399.944 39.6087 399.91 39.7877 399.871 39.9775C399.835 40.1673 399.799 40.3446 399.763 40.5093C399.727 40.674 399.699 40.7993 399.677 40.8852L398.619 44.9995H396.729L394.725 37.147H396.363L397.368 41.4331C397.396 41.562 397.429 41.716 397.464 41.895C397.504 42.074 397.541 42.262 397.577 42.459C397.617 42.6523 397.651 42.8403 397.679 43.0229C397.711 43.202 397.735 43.3577 397.749 43.4902C397.767 43.3542 397.79 43.1966 397.819 43.0176C397.847 42.8349 397.878 42.6505 397.91 42.4643C397.946 42.2746 397.982 42.0991 398.018 41.938C398.053 41.7768 398.086 41.6461 398.114 41.5459L399.258 37.147H400.832L401.976 41.5459C402.001 41.6426 402.03 41.7733 402.062 41.938C402.098 42.0991 402.134 42.2746 402.169 42.4643C402.205 42.6541 402.237 42.8403 402.266 43.0229C402.298 43.202 402.322 43.3577 402.336 43.4902C402.361 43.3112 402.395 43.0946 402.438 42.8403C402.485 42.5825 402.533 42.3265 402.583 42.0723C402.637 41.818 402.683 41.605 402.723 41.4331L403.722 37.147H405.36ZM411.155 44.9995L410.586 43.1304H407.723L407.154 44.9995H405.36L408.131 37.1147H410.167L412.949 44.9995H411.155ZM410.188 41.7339L409.619 39.9077C409.583 39.786 409.535 39.6302 409.474 39.4404C409.417 39.2471 409.358 39.0519 409.297 38.855C409.24 38.6544 409.193 38.4808 409.157 38.334C409.121 38.4808 409.071 38.6634 409.007 38.8818C408.946 39.0967 408.887 39.3008 408.83 39.4941C408.772 39.6875 408.731 39.8253 408.706 39.9077L408.142 41.7339H410.188ZM420.104 37.147L417.434 44.9995H415.619L412.955 37.147H414.636L416.113 41.8198C416.138 41.8986 416.179 42.0472 416.236 42.2656C416.294 42.4805 416.351 42.7096 416.408 42.9531C416.469 43.193 416.51 43.3918 416.532 43.5493C416.553 43.3918 416.591 43.193 416.645 42.9531C416.702 42.7132 416.757 42.4858 416.811 42.271C416.868 42.0526 416.91 41.9022 416.935 41.8198L418.422 37.147H420.104ZM425.62 44.9995H421.097V37.147H425.62V38.5112H422.762V40.2353H425.421V41.5996H422.762V43.6245H425.62V44.9995Z" fill="#282828"/>
<path d="M491.599 30H489.934V23.5332H487.801V22.1475H493.731V23.5332H491.599V30ZM501.374 30H499.714V26.6108H496.604V30H494.939V22.1475H496.604V25.2251H499.714V22.1475H501.374V30ZM503.361 30V22.1475H505.026V30H503.361ZM509.291 22.1475C510.004 22.1475 510.591 22.2334 511.053 22.4053C511.518 22.5771 511.864 22.8368 512.089 23.1841C512.315 23.5314 512.428 23.9701 512.428 24.5C512.428 24.8581 512.36 25.1714 512.224 25.4399C512.088 25.7085 511.909 25.9359 511.687 26.1221C511.465 26.3083 511.225 26.4604 510.967 26.5786L513.276 30H511.429L509.554 26.9868H508.668V30H507.003V22.1475H509.291ZM509.173 23.5117H508.668V25.6333H509.205C509.757 25.6333 510.15 25.542 510.387 25.3594C510.627 25.1732 510.747 24.901 510.747 24.543C510.747 24.1706 510.618 23.9056 510.36 23.748C510.106 23.5905 509.71 23.5117 509.173 23.5117ZM520.78 25.9985C520.78 26.883 520.61 27.6224 520.27 28.2168C519.933 28.8076 519.444 29.2534 518.803 29.5542C518.162 29.8514 517.391 30 516.488 30H514.265V22.1475H516.73C517.554 22.1475 518.268 22.2943 518.873 22.5879C519.478 22.8779 519.947 23.3094 520.28 23.8823C520.613 24.4517 520.78 25.1571 520.78 25.9985ZM519.05 26.0415C519.05 25.4614 518.964 24.9852 518.792 24.6128C518.624 24.2368 518.374 23.9593 518.041 23.7803C517.711 23.6012 517.303 23.5117 516.816 23.5117H515.93V28.625H516.644C517.457 28.625 518.06 28.4084 518.454 27.9751C518.852 27.5418 519.05 26.8973 519.05 26.0415ZM499.36 37.1475L497.362 45H495.466L494.402 40.875C494.381 40.7962 494.352 40.6763 494.316 40.5151C494.281 40.354 494.243 40.1785 494.204 39.9888C494.164 39.7954 494.128 39.6146 494.096 39.4463C494.068 39.2744 494.048 39.1383 494.037 39.0381C494.026 39.1383 494.005 39.2726 493.973 39.4409C493.944 39.6092 493.91 39.7882 493.871 39.978C493.835 40.1678 493.799 40.3451 493.763 40.5098C493.727 40.6745 493.699 40.7998 493.677 40.8857L492.619 45H490.729L488.725 37.1475H490.363L491.368 41.4336C491.396 41.5625 491.429 41.7165 491.464 41.8955C491.504 42.0745 491.541 42.2625 491.577 42.4595C491.617 42.6528 491.651 42.8408 491.679 43.0234C491.711 43.2025 491.735 43.3582 491.749 43.4907C491.767 43.3547 491.79 43.1971 491.819 43.0181C491.847 42.8354 491.878 42.651 491.91 42.4648C491.946 42.2751 491.982 42.0996 492.018 41.9385C492.053 41.7773 492.086 41.6466 492.114 41.5464L493.258 37.1475H494.832L495.976 41.5464C496.001 41.6431 496.03 41.7738 496.062 41.9385C496.098 42.0996 496.134 42.2751 496.169 42.4648C496.205 42.6546 496.237 42.8408 496.266 43.0234C496.298 43.2025 496.322 43.3582 496.336 43.4907C496.361 43.3117 496.395 43.0951 496.438 42.8408C496.485 42.583 496.533 42.327 496.583 42.0728C496.637 41.8185 496.683 41.6055 496.723 41.4336L497.722 37.1475H499.36ZM505.155 45L504.586 43.1309H501.723L501.154 45H499.36L502.131 37.1152H504.167L506.949 45H505.155ZM504.188 41.7344L503.619 39.9082C503.583 39.7865 503.535 39.6307 503.474 39.4409C503.417 39.2476 503.358 39.0524 503.297 38.8555C503.24 38.6549 503.193 38.4813 503.157 38.3345C503.121 38.4813 503.071 38.6639 503.007 38.8823C502.946 39.0972 502.887 39.3013 502.83 39.4946C502.772 39.688 502.731 39.8258 502.706 39.9082L502.142 41.7344H504.188ZM514.104 37.1475L511.434 45H509.619L506.955 37.1475H508.636L510.113 41.8203C510.138 41.8991 510.179 42.0477 510.236 42.2661C510.294 42.481 510.351 42.7101 510.408 42.9536C510.469 43.1935 510.51 43.3923 510.532 43.5498C510.553 43.3923 510.591 43.1935 510.645 42.9536C510.702 42.7137 510.757 42.4863 510.811 42.2715C510.868 42.0531 510.91 41.9027 510.935 41.8203L512.422 37.1475H514.104ZM519.62 45H515.097V37.1475H519.62V38.5117H516.762V40.2358H519.421V41.6001H516.762V43.625H519.62V45Z" fill="white"/>
<path d="M58 0C63.5228 0 68 4.4772 68 10V26.0381L76 33.5L68 40.9609V58C68 63.5228 63.5228 68 58 68H10C4.4772 68 0 63.5228 0 58V10C0 4.4772 4.4772 0 10 0H58Z" fill="#F8D85C"/>
<path d="M4.98828 37.9995V30.147H6.65328V37.9995H4.98828ZM15.5962 37.9995H13.48L10.064 32.0591H10.0156C10.0299 32.3061 10.0425 32.555 10.0532 32.8057C10.064 33.0563 10.0747 33.307 10.0854 33.5576C10.0962 33.8047 10.1069 34.0535 10.1177 34.3042V37.9995H8.62988V30.147H10.73L14.1406 36.0283H14.1782C14.1711 35.7848 14.1621 35.5431 14.1514 35.3032C14.1406 35.0633 14.1299 34.8234 14.1191 34.5835C14.112 34.3436 14.1048 34.1037 14.0977 33.8638V30.147H15.5962V37.9995ZM20.9136 31.4199C20.5949 31.4199 20.312 31.4826 20.0649 31.6079C19.8215 31.7296 19.6156 31.9069 19.4473 32.1396C19.2826 32.3724 19.1572 32.6535 19.0713 32.9829C18.9854 33.3123 18.9424 33.6829 18.9424 34.0947C18.9424 34.6497 19.0104 35.1242 19.1465 35.5181C19.2861 35.9084 19.501 36.2073 19.791 36.415C20.0811 36.6191 20.4552 36.7212 20.9136 36.7212C21.2323 36.7212 21.5509 36.6854 21.8696 36.6138C22.1919 36.5421 22.541 36.4401 22.917 36.3076V37.7041C22.5697 37.8473 22.2277 37.9494 21.8911 38.0102C21.5545 38.0747 21.1768 38.1069 20.7578 38.1069C19.9486 38.1069 19.2826 37.9404 18.7598 37.6074C18.2406 37.2708 17.8556 36.8017 17.605 36.2002C17.3543 35.595 17.229 34.8896 17.229 34.084C17.229 33.4896 17.3096 32.9453 17.4707 32.4512C17.6318 31.957 17.8682 31.5291 18.1797 31.1675C18.4912 30.8058 18.8761 30.5265 19.3345 30.3296C19.7928 30.1326 20.3192 30.0342 20.9136 30.0342C21.3039 30.0342 21.6942 30.0843 22.0845 30.1846C22.4784 30.2812 22.8543 30.4155 23.2124 30.5874L22.6753 31.9409C22.3817 31.8013 22.0863 31.6795 21.7891 31.5757C21.4919 31.4718 21.2 31.4199 20.9136 31.4199ZM29.1152 37.9995H24.5928V30.147H29.1152V31.5112H26.2578V33.2353H28.9165V34.5996H26.2578V36.6245H29.1152V37.9995ZM33.2671 30.147C34.2804 30.147 35.0199 30.3654 35.4854 30.8022C35.9508 31.2355 36.1836 31.8335 36.1836 32.5962C36.1836 32.9399 36.1317 33.2694 36.0278 33.5845C35.924 33.896 35.7539 34.1735 35.5176 34.417C35.2848 34.6605 34.9733 34.8538 34.583 34.9971C34.1927 35.1367 33.7111 35.2065 33.1382 35.2065H32.4238V37.9995H30.7588V30.147H33.2671ZM33.1812 31.5112H32.4238V33.8423H32.9717C33.2832 33.8423 33.5535 33.8011 33.7827 33.7187C34.0119 33.6364 34.1891 33.5075 34.3145 33.332C34.4398 33.1566 34.5024 32.931 34.5024 32.6553C34.5024 32.2685 34.395 31.9821 34.1802 31.7959C33.9653 31.6061 33.6323 31.5112 33.1812 31.5112ZM40.6953 37.9995H39.0303V31.5327H36.8979V30.147H42.8276V31.5327H40.6953V37.9995ZM44.0361 37.9995V30.147H45.7012V37.9995H44.0361ZM54.8052 34.0625C54.8052 34.6676 54.73 35.2191 54.5796 35.7168C54.4292 36.2109 54.2 36.637 53.8921 36.9951C53.5877 37.3532 53.201 37.6289 52.7319 37.8223C52.2629 38.012 51.7078 38.1069 51.0669 38.1069C50.4259 38.1069 49.8709 38.012 49.4019 37.8223C48.9328 37.6289 48.5443 37.3532 48.2363 36.9951C47.932 36.637 47.7046 36.2091 47.5542 35.7114C47.4038 35.2137 47.3286 34.6605 47.3286 34.0517C47.3286 33.2389 47.4611 32.5317 47.7261 31.9302C47.9946 31.325 48.4064 30.8559 48.9614 30.5229C49.5164 30.1899 50.2218 30.0234 51.0776 30.0234C51.9299 30.0234 52.6299 30.1899 53.1777 30.5229C53.7292 30.8559 54.1374 31.325 54.4023 31.9302C54.6709 32.5353 54.8052 33.2461 54.8052 34.0625ZM49.0742 34.0625C49.0742 34.6103 49.1423 35.083 49.2783 35.4805C49.418 35.8743 49.6346 36.1787 49.9282 36.3935C50.2218 36.6048 50.6014 36.7104 51.0669 36.7104C51.5396 36.7104 51.9227 36.6048 52.2163 36.3935C52.5099 36.1787 52.723 35.8743 52.8555 35.4805C52.9915 35.083 53.0596 34.6103 53.0596 34.0625C53.0596 33.2389 52.9056 32.5908 52.5977 32.1182C52.2897 31.6455 51.783 31.4092 51.0776 31.4092C50.6086 31.4092 50.2254 31.5166 49.9282 31.7314C49.6346 31.9427 49.418 32.2471 49.2783 32.6445C49.1423 33.0384 49.0742 33.5111 49.0742 34.0625ZM63.3989 37.9995H61.2827L57.8667 32.0591H57.8184C57.8327 32.3061 57.8452 32.555 57.856 32.8057C57.8667 33.0563 57.8774 33.307 57.8882 33.5576C57.8989 33.8047 57.9097 34.0535 57.9204 34.3042V37.9995H56.4326V30.147H58.5327L61.9434 36.0283H61.981C61.9738 35.7848 61.9648 35.5431 61.9541 35.3032C61.9434 35.0633 61.9326 34.8234 61.9219 34.5835C61.9147 34.3436 61.9076 34.1037 61.9004 33.8638V30.147H63.3989V37.9995Z" fill="#282828"/>
</svg>
