<svg width="739" height="529" viewBox="0 0 739 529" fill="none" xmlns="http://www.w3.org/2000/svg">
<path d="M172 288.445C106 289.428 3 289.428 3 289.428L32 335.927L2 383.428C33 383.594 107.882 382.945 179.5 382.945C204 382.945 231 369.374 250 354.445C269 339.517 300.5 307 300.5 307C211.779 200.204 219.509 283.732 172 288.445Z" fill="#A1D33C" stroke="white" stroke-width="2"/>
<path d="M172 240C153 239.5 3 239.018 3 239.018L32 192.518L2 145.018C33 144.851 107.882 145.5 179.5 145.5C204 145.5 231 159.071 250 174C269 188.929 287.5 214.393 315 216.455C342.5 218.518 487.5 216.455 487.5 216.455C403 318 385.5 310.455 309.5 310.455C309.5 310.455 272.5 310.5 240 288.5C207.5 266.5 191 240.5 172 240Z" fill="#5AA100" stroke="white" stroke-width="2"/>
<path d="M175 433.5H3L32 480L2 527.5C33 527.667 112.9 527.6 184.5 526C256.1 524.4 308 494 346 461.5C384 429 480.7 320.9 485.5 316.5C490.3 312.1 499 311.5 505.5 311.5L497 221C464 221 421.333 245.833 407 264L298.5 377.062C298.5 377.062 278 399.062 248 413.5C218 427.938 192.5 433.5 175 433.5Z" fill="#F8D85C" stroke="white" stroke-width="2"/>
<path d="M3 95.0623C3 95.0623 153 95.6246 175 95.0623C197 94.5 218 100.625 248 115.062C278 129.5 298.5 151.5 298.5 151.5L397.5 257.062C411.833 275.229 451.8 311.562 497 311.562H706L737 264.562L707 217.062H505.5C499 217.062 490.955 217.062 485.5 212.062C480.045 207.062 384 99.5625 346 67.0623C308 34.5621 256.1 4.16228 184.5 2.56228C112.9 0.962279 33 0.895613 2 1.06228L32 48.5625L3 95.0623Z" fill="#10A984"/>
<path d="M497 311.562C451.8 311.562 411.833 275.229 397.5 257.062L298.5 151.5C298.5 151.5 278 129.5 248 115.062C218 100.625 197 94.5 175 95.0623C153 95.6246 3 95.0623 3 95.0623L32 48.5625L2 1.06228C33 0.895613 112.9 0.962279 184.5 2.56228C256.1 4.16228 308 34.5621 346 67.0623C384 99.5625 480.045 207.062 485.5 212.062C490.955 217.062 499 217.062 505.5 217.062H707L737 264.562L706 311.562M497 311.562C542.2 311.562 655.167 311.562 706 311.562M497 311.562H706" stroke="white" stroke-width="2"/>
<path d="M51.875 43V28.7227H54.2188V41.0078H60.2832V43H51.875ZM64.8145 32.1895V43H62.5195V32.1895H64.8145ZM63.6816 28.0488C64.0332 28.0488 64.3359 28.1432 64.5898 28.332C64.8503 28.5208 64.9805 28.8464 64.9805 29.3086C64.9805 29.7643 64.8503 30.0898 64.5898 30.2852C64.3359 30.474 64.0332 30.5684 63.6816 30.5684C63.3171 30.5684 63.0078 30.474 62.7539 30.2852C62.5065 30.0898 62.3828 29.7643 62.3828 29.3086C62.3828 28.8464 62.5065 28.5208 62.7539 28.332C63.0078 28.1432 63.3171 28.0488 63.6816 28.0488ZM72.4609 43.1953C71.4388 43.1953 70.5534 42.9967 69.8047 42.5996C69.056 42.2025 68.4798 41.5938 68.0762 40.7734C67.6725 39.9531 67.4707 38.9115 67.4707 37.6484C67.4707 36.3333 67.6921 35.2591 68.1348 34.4258C68.5775 33.5924 69.1895 32.9772 69.9707 32.5801C70.7585 32.1829 71.6602 31.9844 72.6758 31.9844C73.3203 31.9844 73.903 32.0495 74.4238 32.1797C74.9512 32.3034 75.3971 32.4564 75.7617 32.6387L75.0781 34.4746C74.681 34.3118 74.2741 34.1751 73.8574 34.0645C73.4408 33.9538 73.0404 33.8984 72.6562 33.8984C72.0247 33.8984 71.4974 34.0384 71.0742 34.3184C70.6576 34.5983 70.3451 35.015 70.1367 35.5684C69.9349 36.1217 69.834 36.8086 69.834 37.6289C69.834 38.4232 69.9382 39.0938 70.1465 39.6406C70.3548 40.181 70.6641 40.5911 71.0742 40.8711C71.4844 41.1445 71.9889 41.2812 72.5879 41.2812C73.1803 41.2812 73.7109 41.2096 74.1797 41.0664C74.6484 40.9232 75.0911 40.7376 75.5078 40.5098V42.502C75.0977 42.7363 74.6582 42.9089 74.1895 43.0195C73.7207 43.1367 73.1445 43.1953 72.4609 43.1953ZM82.3535 31.9844C83.3171 31.9844 84.1439 32.1829 84.834 32.5801C85.5241 32.9772 86.0547 33.5404 86.4258 34.2695C86.7969 34.9987 86.9824 35.8711 86.9824 36.8867V38.1172H79.7656C79.7917 39.1654 80.0716 39.9727 80.6055 40.5391C81.1458 41.1055 81.901 41.3887 82.8711 41.3887C83.5612 41.3887 84.1797 41.3236 84.7266 41.1934C85.2799 41.0566 85.8496 40.8581 86.4355 40.5977V42.4629C85.8952 42.7168 85.3451 42.9023 84.7852 43.0195C84.2253 43.1367 83.5547 43.1953 82.7734 43.1953C81.7122 43.1953 80.778 42.9902 79.9707 42.5801C79.1699 42.1634 78.5417 41.5449 78.0859 40.7246C77.6367 39.9043 77.4121 38.8854 77.4121 37.668C77.4121 36.457 77.6172 35.4284 78.0273 34.582C78.4375 33.7357 79.0137 33.0911 79.7559 32.6484C80.498 32.2057 81.3639 31.9844 82.3535 31.9844ZM82.3535 33.7129C81.6309 33.7129 81.0449 33.9473 80.5957 34.416C80.153 34.8848 79.8926 35.5716 79.8145 36.4766H84.7363C84.7298 35.9362 84.6387 35.4577 84.4629 35.041C84.2936 34.6243 84.0332 34.2988 83.6816 34.0645C83.3366 33.8301 82.8939 33.7129 82.3535 33.7129ZM95.2051 31.9844C96.4225 31.9844 97.3698 32.3001 98.0469 32.9316C98.7305 33.5566 99.0723 34.5625 99.0723 35.9492V43H96.7773V36.3789C96.7773 35.5391 96.6048 34.9108 96.2598 34.4941C95.9147 34.071 95.3809 33.8594 94.6582 33.8594C93.61 33.8594 92.8809 34.1816 92.4707 34.8262C92.0671 35.4707 91.8652 36.4049 91.8652 37.6289V43H89.5703V32.1895H91.3574L91.6797 33.6543H91.8066C92.041 33.2767 92.3307 32.9674 92.6758 32.7266C93.0273 32.4792 93.418 32.2936 93.8477 32.1699C94.2839 32.0462 94.7363 31.9844 95.2051 31.9844ZM109.551 39.9141C109.551 40.6237 109.378 41.2227 109.033 41.7109C108.688 42.1992 108.184 42.5703 107.52 42.8242C106.862 43.0716 106.055 43.1953 105.098 43.1953C104.342 43.1953 103.691 43.14 103.145 43.0293C102.604 42.9251 102.093 42.7624 101.611 42.541V40.5586C102.126 40.7995 102.702 41.0078 103.34 41.1836C103.984 41.3594 104.593 41.4473 105.166 41.4473C105.921 41.4473 106.465 41.3301 106.797 41.0957C107.129 40.8548 107.295 40.5358 107.295 40.1387C107.295 39.9043 107.227 39.696 107.09 39.5137C106.96 39.3249 106.712 39.1328 106.348 38.9375C105.99 38.7357 105.462 38.4948 104.766 38.2148C104.082 37.9414 103.506 37.668 103.037 37.3945C102.568 37.1211 102.214 36.7923 101.973 36.4082C101.732 36.0176 101.611 35.5195 101.611 34.9141C101.611 33.957 101.989 33.2311 102.744 32.7363C103.506 32.235 104.512 31.9844 105.762 31.9844C106.426 31.9844 107.051 32.0527 107.637 32.1895C108.229 32.3197 108.809 32.5117 109.375 32.7656L108.652 34.4941C108.164 34.2793 107.673 34.1035 107.178 33.9668C106.689 33.8236 106.191 33.752 105.684 33.752C105.091 33.752 104.639 33.8431 104.326 34.0254C104.02 34.2077 103.867 34.4681 103.867 34.8066C103.867 35.0605 103.942 35.2754 104.092 35.4512C104.242 35.627 104.499 35.8027 104.863 35.9785C105.234 36.1543 105.749 36.3724 106.406 36.6328C107.051 36.8802 107.607 37.1406 108.076 37.4141C108.551 37.681 108.916 38.0098 109.17 38.4004C109.424 38.791 109.551 39.2956 109.551 39.9141ZM116.338 31.9844C117.301 31.9844 118.128 32.1829 118.818 32.5801C119.508 32.9772 120.039 33.5404 120.41 34.2695C120.781 34.9987 120.967 35.8711 120.967 36.8867V38.1172H113.75C113.776 39.1654 114.056 39.9727 114.59 40.5391C115.13 41.1055 115.885 41.3887 116.855 41.3887C117.546 41.3887 118.164 41.3236 118.711 41.1934C119.264 41.0566 119.834 40.8581 120.42 40.5977V42.4629C119.88 42.7168 119.329 42.9023 118.77 43.0195C118.21 43.1367 117.539 43.1953 116.758 43.1953C115.697 43.1953 114.762 42.9902 113.955 42.5801C113.154 42.1634 112.526 41.5449 112.07 40.7246C111.621 39.9043 111.396 38.8854 111.396 37.668C111.396 36.457 111.602 35.4284 112.012 34.582C112.422 33.7357 112.998 33.0911 113.74 32.6484C114.482 32.2057 115.348 31.9844 116.338 31.9844ZM116.338 33.7129C115.615 33.7129 115.029 33.9473 114.58 34.416C114.137 34.8848 113.877 35.5716 113.799 36.4766H118.721C118.714 35.9362 118.623 35.4577 118.447 35.041C118.278 34.6243 118.018 34.2988 117.666 34.0645C117.321 33.8301 116.878 33.7129 116.338 33.7129ZM57.959 54.5098C57.2754 54.5098 56.6634 54.6335 56.123 54.8809C55.5892 55.1283 55.1367 55.4863 54.7656 55.9551C54.3945 56.4173 54.1113 56.9805 53.916 57.6445C53.7207 58.3021 53.623 59.0443 53.623 59.8711C53.623 60.9779 53.7793 61.9316 54.0918 62.7324C54.4043 63.5267 54.8796 64.1387 55.5176 64.5684C56.1556 64.9915 56.9629 65.2031 57.9395 65.2031C58.5449 65.2031 59.1341 65.1445 59.707 65.0273C60.2799 64.9102 60.8724 64.7507 61.4844 64.5488V66.541C60.9049 66.7689 60.319 66.9349 59.7266 67.0391C59.1341 67.1432 58.4505 67.1953 57.6758 67.1953C56.2174 67.1953 55.0065 66.8926 54.043 66.2871C53.0859 65.6816 52.3698 64.8288 51.8945 63.7285C51.4258 62.6283 51.1914 61.3392 51.1914 59.8613C51.1914 58.7806 51.3411 57.791 51.6406 56.8926C51.9401 55.9941 52.3763 55.2194 52.9492 54.5684C53.5221 53.9108 54.2285 53.4062 55.0684 53.0547C55.9147 52.6966 56.8815 52.5176 57.9688 52.5176C58.6849 52.5176 59.388 52.599 60.0781 52.7617C60.7747 52.918 61.4193 53.1426 62.0117 53.4355L61.1914 55.3691C60.6966 55.1348 60.179 54.9329 59.6387 54.7637C59.0983 54.5944 58.5384 54.5098 57.959 54.5098ZM73.8867 61.5703C73.8867 62.4688 73.7695 63.2663 73.5352 63.9629C73.3008 64.6595 72.959 65.2487 72.5098 65.7305C72.0605 66.2057 71.5202 66.5703 70.8887 66.8242C70.2572 67.0716 69.5443 67.1953 68.75 67.1953C68.0078 67.1953 67.3275 67.0716 66.709 66.8242C66.0905 66.5703 65.5534 66.2057 65.0977 65.7305C64.6484 65.2487 64.3001 64.6595 64.0527 63.9629C63.8053 63.2663 63.6816 62.4688 63.6816 61.5703C63.6816 60.3789 63.8867 59.3698 64.2969 58.543C64.7135 57.7096 65.306 57.0749 66.0742 56.6387C66.8424 56.2025 67.7572 55.9844 68.8184 55.9844C69.8145 55.9844 70.6934 56.2025 71.4551 56.6387C72.2168 57.0749 72.8125 57.7096 73.2422 58.543C73.6719 59.3763 73.8867 60.3854 73.8867 61.5703ZM66.0449 61.5703C66.0449 62.3581 66.1393 63.0319 66.3281 63.5918C66.5234 64.1517 66.8229 64.5814 67.2266 64.8809C67.6302 65.1738 68.151 65.3203 68.7891 65.3203C69.4271 65.3203 69.9479 65.1738 70.3516 64.8809C70.7552 64.5814 71.0514 64.1517 71.2402 63.5918C71.429 63.0319 71.5234 62.3581 71.5234 61.5703C71.5234 60.7826 71.429 60.1152 71.2402 59.5684C71.0514 59.015 70.7552 58.5951 70.3516 58.3086C69.9479 58.0156 69.4238 57.8691 68.7793 57.8691C67.8288 57.8691 67.1354 58.1882 66.6992 58.8262C66.263 59.4642 66.0449 60.3789 66.0449 61.5703ZM88.7402 55.9844C89.9512 55.9844 90.8626 56.2969 91.4746 56.9219C92.0931 57.5469 92.4023 58.5495 92.4023 59.9297V67H90.1074V60.3398C90.1074 59.5195 89.9479 58.901 89.6289 58.4844C89.3099 58.0677 88.8249 57.8594 88.1738 57.8594C87.2624 57.8594 86.6048 58.1523 86.2012 58.7383C85.804 59.3177 85.6055 60.1608 85.6055 61.2676V67H83.3105V60.3398C83.3105 59.793 83.2389 59.3372 83.0957 58.9727C82.959 58.6016 82.7474 58.3249 82.4609 58.1426C82.1745 57.9538 81.8132 57.8594 81.377 57.8594C80.7454 57.8594 80.2409 58.0026 79.8633 58.2891C79.4922 58.5755 79.2253 58.9987 79.0625 59.5586C78.8997 60.112 78.8184 60.7923 78.8184 61.5996V67H76.5234V56.1895H78.3105L78.6328 57.6445H78.7598C78.9811 57.2669 79.2546 56.9577 79.5801 56.7168C79.9121 56.4694 80.2799 56.2871 80.6836 56.1699C81.0872 56.0462 81.5072 55.9844 81.9434 55.9844C82.7507 55.9844 83.431 56.1276 83.9844 56.4141C84.5378 56.694 84.9512 57.1237 85.2246 57.7031H85.4004C85.7389 57.1172 86.2109 56.6842 86.8164 56.4043C87.4219 56.1243 88.0632 55.9844 88.7402 55.9844ZM101.152 55.9844C102.435 55.9844 103.464 56.4531 104.238 57.3906C105.02 58.3281 105.41 59.7214 105.41 61.5703C105.41 62.7943 105.228 63.8262 104.863 64.666C104.505 65.4993 104.001 66.1309 103.35 66.5605C102.705 66.9837 101.953 67.1953 101.094 67.1953C100.547 67.1953 100.072 67.1237 99.668 66.9805C99.2643 66.8372 98.9193 66.6517 98.6328 66.4238C98.3464 66.1895 98.1055 65.9355 97.9102 65.6621H97.7734C97.806 65.9225 97.8353 66.2122 97.8613 66.5312C97.8939 66.8438 97.9102 67.1302 97.9102 67.3906V71.7949H95.6055V56.1895H97.4805L97.8027 57.6836H97.9102C98.112 57.3776 98.3561 57.0944 98.6426 56.834C98.9355 56.5736 99.2871 56.3685 99.6973 56.2188C100.114 56.0625 100.599 55.9844 101.152 55.9844ZM100.537 57.8594C99.9056 57.8594 99.3978 57.9863 99.0137 58.2402C98.6361 58.4876 98.3594 58.862 98.1836 59.3633C98.0143 59.8646 97.9232 60.4928 97.9102 61.248V61.5703C97.9102 62.3711 97.9915 63.0514 98.1543 63.6113C98.3236 64.1647 98.6003 64.5879 98.9844 64.8809C99.375 65.1673 99.9023 65.3105 100.566 65.3105C101.126 65.3105 101.589 65.1576 101.953 64.8516C102.324 64.5456 102.601 64.1094 102.783 63.543C102.965 62.9766 103.057 62.3092 103.057 61.541C103.057 60.3757 102.848 59.4707 102.432 58.8262C102.021 58.1816 101.39 57.8594 100.537 57.8594ZM110.371 67H108.066V51.8047H110.371V67ZM115.947 56.1895V67H113.652V56.1895H115.947ZM114.814 52.0488C115.166 52.0488 115.469 52.1432 115.723 52.332C115.983 52.5208 116.113 52.8464 116.113 53.3086C116.113 53.7643 115.983 54.0898 115.723 54.2852C115.469 54.474 115.166 54.5684 114.814 54.5684C114.45 54.5684 114.141 54.474 113.887 54.2852C113.639 54.0898 113.516 53.7643 113.516 53.3086C113.516 52.8464 113.639 52.5208 113.887 52.332C114.141 52.1432 114.45 52.0488 114.814 52.0488ZM123.477 55.9844C124.844 55.9844 125.876 56.2871 126.572 56.8926C127.275 57.498 127.627 58.4421 127.627 59.7246V67H125.996L125.557 65.4668H125.479C125.173 65.8574 124.857 66.1797 124.531 66.4336C124.206 66.6875 123.828 66.8763 123.398 67C122.975 67.1302 122.458 67.1953 121.846 67.1953C121.201 67.1953 120.625 67.0781 120.117 66.8438C119.609 66.6029 119.209 66.2383 118.916 65.75C118.623 65.2617 118.477 64.6432 118.477 63.8945C118.477 62.7812 118.89 61.9447 119.717 61.3848C120.55 60.8249 121.807 60.5156 123.486 60.457L125.361 60.3887V59.8223C125.361 59.0736 125.186 58.5397 124.834 58.2207C124.489 57.9017 124.001 57.7422 123.369 57.7422C122.829 57.7422 122.305 57.8203 121.797 57.9766C121.289 58.1328 120.794 58.3249 120.312 58.5527L119.57 56.9316C120.098 56.6517 120.697 56.4238 121.367 56.248C122.044 56.0723 122.747 55.9844 123.477 55.9844ZM125.352 61.834L123.955 61.8828C122.809 61.9219 122.005 62.1172 121.543 62.4688C121.081 62.8203 120.85 63.3021 120.85 63.9141C120.85 64.4479 121.009 64.8385 121.328 65.0859C121.647 65.3268 122.067 65.4473 122.588 65.4473C123.382 65.4473 124.04 65.2227 124.561 64.7734C125.088 64.3177 125.352 63.6504 125.352 62.7715V61.834ZM136.475 55.9844C137.692 55.9844 138.639 56.3001 139.316 56.9316C140 57.5566 140.342 58.5625 140.342 59.9492V67H138.047V60.3789C138.047 59.5391 137.874 58.9108 137.529 58.4941C137.184 58.071 136.65 57.8594 135.928 57.8594C134.88 57.8594 134.15 58.1816 133.74 58.8262C133.337 59.4707 133.135 60.4049 133.135 61.6289V67H130.84V56.1895H132.627L132.949 57.6543H133.076C133.311 57.2767 133.6 56.9674 133.945 56.7266C134.297 56.4792 134.688 56.2936 135.117 56.1699C135.553 56.0462 136.006 55.9844 136.475 55.9844ZM147.91 67.1953C146.888 67.1953 146.003 66.9967 145.254 66.5996C144.505 66.2025 143.929 65.5938 143.525 64.7734C143.122 63.9531 142.92 62.9115 142.92 61.6484C142.92 60.3333 143.141 59.2591 143.584 58.4258C144.027 57.5924 144.639 56.9772 145.42 56.5801C146.208 56.1829 147.109 55.9844 148.125 55.9844C148.77 55.9844 149.352 56.0495 149.873 56.1797C150.4 56.3034 150.846 56.4564 151.211 56.6387L150.527 58.4746C150.13 58.3118 149.723 58.1751 149.307 58.0645C148.89 57.9538 148.49 57.8984 148.105 57.8984C147.474 57.8984 146.947 58.0384 146.523 58.3184C146.107 58.5983 145.794 59.015 145.586 59.5684C145.384 60.1217 145.283 60.8086 145.283 61.6289C145.283 62.4232 145.387 63.0938 145.596 63.6406C145.804 64.181 146.113 64.5911 146.523 64.8711C146.934 65.1445 147.438 65.2812 148.037 65.2812C148.63 65.2812 149.16 65.2096 149.629 65.0664C150.098 64.9232 150.54 64.7376 150.957 64.5098V66.502C150.547 66.7363 150.107 66.9089 149.639 67.0195C149.17 67.1367 148.594 67.1953 147.91 67.1953ZM157.803 55.9844C158.766 55.9844 159.593 56.1829 160.283 56.5801C160.973 56.9772 161.504 57.5404 161.875 58.2695C162.246 58.9987 162.432 59.8711 162.432 60.8867V62.1172H155.215C155.241 63.1654 155.521 63.9727 156.055 64.5391C156.595 65.1055 157.35 65.3887 158.32 65.3887C159.01 65.3887 159.629 65.3236 160.176 65.1934C160.729 65.0566 161.299 64.8581 161.885 64.5977V66.4629C161.344 66.7168 160.794 66.9023 160.234 67.0195C159.674 67.1367 159.004 67.1953 158.223 67.1953C157.161 67.1953 156.227 66.9902 155.42 66.5801C154.619 66.1634 153.991 65.5449 153.535 64.7246C153.086 63.9043 152.861 62.8854 152.861 61.668C152.861 60.457 153.066 59.4284 153.477 58.582C153.887 57.7357 154.463 57.0911 155.205 56.6484C155.947 56.2057 156.813 55.9844 157.803 55.9844ZM157.803 57.7129C157.08 57.7129 156.494 57.9473 156.045 58.416C155.602 58.8848 155.342 59.5716 155.264 60.4766H160.186C160.179 59.9362 160.088 59.4577 159.912 59.041C159.743 58.6243 159.482 58.2988 159.131 58.0645C158.786 57.8301 158.343 57.7129 157.803 57.7129Z" fill="#231F20"/>
<path d="M54.1992 187H51.875V172.723H59.9414V174.695H54.1992V179.148H59.5703V181.111H54.1992V187ZM67.7832 175.984C67.9655 175.984 68.1641 175.994 68.3789 176.014C68.5938 176.033 68.7793 176.059 68.9355 176.092L68.7207 178.24C68.584 178.201 68.4147 178.172 68.2129 178.152C68.0176 178.133 67.8418 178.123 67.6855 178.123C67.2754 178.123 66.8848 178.191 66.5137 178.328C66.1426 178.458 65.8138 178.66 65.5273 178.934C65.2409 179.201 65.0163 179.536 64.8535 179.939C64.6908 180.343 64.6094 180.812 64.6094 181.346V187H62.3047V176.189H64.1016L64.4141 178.094H64.5215C64.7363 177.71 65.0033 177.358 65.3223 177.039C65.6413 176.72 66.0059 176.466 66.416 176.277C66.8327 176.082 67.2884 175.984 67.7832 175.984ZM75.1758 175.984C76.543 175.984 77.5749 176.287 78.2715 176.893C78.9746 177.498 79.3262 178.442 79.3262 179.725V187H77.6953L77.2559 185.467H77.1777C76.8717 185.857 76.556 186.18 76.2305 186.434C75.9049 186.688 75.5273 186.876 75.0977 187C74.6745 187.13 74.1569 187.195 73.5449 187.195C72.9004 187.195 72.3242 187.078 71.8164 186.844C71.3086 186.603 70.9082 186.238 70.6152 185.75C70.3223 185.262 70.1758 184.643 70.1758 183.895C70.1758 182.781 70.5892 181.945 71.416 181.385C72.2493 180.825 73.5059 180.516 75.1855 180.457L77.0605 180.389V179.822C77.0605 179.074 76.8848 178.54 76.5332 178.221C76.1882 177.902 75.6999 177.742 75.0684 177.742C74.528 177.742 74.0039 177.82 73.4961 177.977C72.9883 178.133 72.4935 178.325 72.0117 178.553L71.2695 176.932C71.7969 176.652 72.3958 176.424 73.0664 176.248C73.7435 176.072 74.4466 175.984 75.1758 175.984ZM77.0508 181.834L75.6543 181.883C74.5085 181.922 73.7044 182.117 73.2422 182.469C72.7799 182.82 72.5488 183.302 72.5488 183.914C72.5488 184.448 72.7083 184.839 73.0273 185.086C73.3464 185.327 73.7663 185.447 74.2871 185.447C75.0814 185.447 75.7389 185.223 76.2598 184.773C76.7871 184.318 77.0508 183.65 77.0508 182.771V181.834ZM85.625 191.805C84.1602 191.805 83.0371 191.541 82.2559 191.014C81.4746 190.486 81.084 189.747 81.084 188.797C81.084 188.133 81.2923 187.57 81.709 187.107C82.1257 186.652 82.7214 186.336 83.4961 186.16C83.2031 186.03 82.9492 185.828 82.7344 185.555C82.526 185.275 82.4219 184.965 82.4219 184.627C82.4219 184.223 82.5358 183.878 82.7637 183.592C82.9915 183.305 83.3333 183.029 83.7891 182.762C83.2227 182.521 82.7669 182.13 82.4219 181.59C82.0833 181.043 81.9141 180.402 81.9141 179.666C81.9141 178.885 82.0801 178.221 82.4121 177.674C82.7441 177.12 83.2292 176.701 83.8672 176.414C84.5052 176.121 85.2767 175.975 86.1816 175.975C86.377 175.975 86.5885 175.988 86.8164 176.014C87.0508 176.033 87.2656 176.059 87.4609 176.092C87.6628 176.118 87.8158 176.147 87.9199 176.18H91.6602V177.459L89.8242 177.801C90 178.048 90.14 178.331 90.2441 178.65C90.3483 178.963 90.4004 179.305 90.4004 179.676C90.4004 180.796 90.013 181.678 89.2383 182.322C88.4701 182.96 87.4089 183.279 86.0547 183.279C85.7292 183.266 85.4134 183.24 85.1074 183.201C84.873 183.344 84.694 183.504 84.5703 183.68C84.4466 183.849 84.3848 184.041 84.3848 184.256C84.3848 184.432 84.4466 184.575 84.5703 184.686C84.694 184.79 84.8763 184.868 85.1172 184.92C85.3646 184.972 85.6641 184.998 86.0156 184.998H87.8809C89.0658 184.998 89.9707 185.249 90.5957 185.75C91.2207 186.251 91.5332 186.987 91.5332 187.957C91.5332 189.188 91.0254 190.135 90.0098 190.799C88.9941 191.469 87.5326 191.805 85.625 191.805ZM85.7129 190.193C86.5137 190.193 87.1875 190.115 87.7344 189.959C88.2812 189.803 88.6947 189.578 88.9746 189.285C89.2546 188.999 89.3945 188.657 89.3945 188.26C89.3945 187.908 89.3066 187.638 89.1309 187.449C88.9551 187.26 88.6914 187.13 88.3398 187.059C87.9883 186.987 87.5521 186.951 87.0312 186.951H85.332C84.9089 186.951 84.5345 187.016 84.209 187.146C83.8835 187.283 83.6296 187.479 83.4473 187.732C83.2715 187.986 83.1836 188.292 83.1836 188.65C83.1836 189.145 83.4017 189.526 83.8379 189.793C84.2806 190.06 84.9056 190.193 85.7129 190.193ZM86.1621 181.775C86.8327 181.775 87.3307 181.593 87.6562 181.229C87.9818 180.857 88.1445 180.337 88.1445 179.666C88.1445 178.937 87.9753 178.39 87.6367 178.025C87.3047 177.661 86.8099 177.479 86.1523 177.479C85.5078 177.479 85.0163 177.664 84.6777 178.035C84.3457 178.406 84.1797 178.956 84.1797 179.686C84.1797 180.343 84.3457 180.857 84.6777 181.229C85.0163 181.593 85.5111 181.775 86.1621 181.775ZM105.85 175.984C107.061 175.984 107.972 176.297 108.584 176.922C109.202 177.547 109.512 178.549 109.512 179.93V187H107.217V180.34C107.217 179.52 107.057 178.901 106.738 178.484C106.419 178.068 105.934 177.859 105.283 177.859C104.372 177.859 103.714 178.152 103.311 178.738C102.913 179.318 102.715 180.161 102.715 181.268V187H100.42V180.34C100.42 179.793 100.348 179.337 100.205 178.973C100.068 178.602 99.8568 178.325 99.5703 178.143C99.2839 177.954 98.9225 177.859 98.4863 177.859C97.8548 177.859 97.3503 178.003 96.9727 178.289C96.6016 178.576 96.3346 178.999 96.1719 179.559C96.0091 180.112 95.9277 180.792 95.9277 181.6V187H93.6328V176.189H95.4199L95.7422 177.645H95.8691C96.0905 177.267 96.3639 176.958 96.6895 176.717C97.0215 176.469 97.3893 176.287 97.793 176.17C98.1966 176.046 98.6165 175.984 99.0527 175.984C99.86 175.984 100.54 176.128 101.094 176.414C101.647 176.694 102.061 177.124 102.334 177.703H102.51C102.848 177.117 103.32 176.684 103.926 176.404C104.531 176.124 105.173 175.984 105.85 175.984ZM117.021 175.984C117.985 175.984 118.812 176.183 119.502 176.58C120.192 176.977 120.723 177.54 121.094 178.27C121.465 178.999 121.65 179.871 121.65 180.887V182.117H114.434C114.46 183.165 114.74 183.973 115.273 184.539C115.814 185.105 116.569 185.389 117.539 185.389C118.229 185.389 118.848 185.324 119.395 185.193C119.948 185.057 120.518 184.858 121.104 184.598V186.463C120.563 186.717 120.013 186.902 119.453 187.02C118.893 187.137 118.223 187.195 117.441 187.195C116.38 187.195 115.446 186.99 114.639 186.58C113.838 186.163 113.21 185.545 112.754 184.725C112.305 183.904 112.08 182.885 112.08 181.668C112.08 180.457 112.285 179.428 112.695 178.582C113.105 177.736 113.682 177.091 114.424 176.648C115.166 176.206 116.032 175.984 117.021 175.984ZM117.021 177.713C116.299 177.713 115.713 177.947 115.264 178.416C114.821 178.885 114.561 179.572 114.482 180.477H119.404C119.398 179.936 119.307 179.458 119.131 179.041C118.962 178.624 118.701 178.299 118.35 178.064C118.005 177.83 117.562 177.713 117.021 177.713ZM129.873 175.984C131.09 175.984 132.038 176.3 132.715 176.932C133.398 177.557 133.74 178.562 133.74 179.949V187H131.445V180.379C131.445 179.539 131.273 178.911 130.928 178.494C130.583 178.071 130.049 177.859 129.326 177.859C128.278 177.859 127.549 178.182 127.139 178.826C126.735 179.471 126.533 180.405 126.533 181.629V187H124.238V176.189H126.025L126.348 177.654H126.475C126.709 177.277 126.999 176.967 127.344 176.727C127.695 176.479 128.086 176.294 128.516 176.17C128.952 176.046 129.404 175.984 129.873 175.984ZM140.977 185.34C141.276 185.34 141.572 185.314 141.865 185.262C142.158 185.203 142.425 185.135 142.666 185.057V186.795C142.412 186.906 142.083 187 141.68 187.078C141.276 187.156 140.856 187.195 140.42 187.195C139.808 187.195 139.258 187.094 138.77 186.893C138.281 186.684 137.894 186.329 137.607 185.828C137.321 185.327 137.178 184.633 137.178 183.748V177.938H135.703V176.912L137.285 176.102L138.037 173.787H139.482V176.189H142.578V177.938H139.482V183.719C139.482 184.266 139.619 184.673 139.893 184.939C140.166 185.206 140.527 185.34 140.977 185.34ZM149.17 175.984C150.133 175.984 150.96 176.183 151.65 176.58C152.34 176.977 152.871 177.54 153.242 178.27C153.613 178.999 153.799 179.871 153.799 180.887V182.117H146.582C146.608 183.165 146.888 183.973 147.422 184.539C147.962 185.105 148.717 185.389 149.688 185.389C150.378 185.389 150.996 185.324 151.543 185.193C152.096 185.057 152.666 184.858 153.252 184.598V186.463C152.712 186.717 152.161 186.902 151.602 187.02C151.042 187.137 150.371 187.195 149.59 187.195C148.529 187.195 147.594 186.99 146.787 186.58C145.986 186.163 145.358 185.545 144.902 184.725C144.453 183.904 144.229 182.885 144.229 181.668C144.229 180.457 144.434 179.428 144.844 178.582C145.254 177.736 145.83 177.091 146.572 176.648C147.314 176.206 148.18 175.984 149.17 175.984ZM149.17 177.713C148.447 177.713 147.861 177.947 147.412 178.416C146.969 178.885 146.709 179.572 146.631 180.477H151.553C151.546 179.936 151.455 179.458 151.279 179.041C151.11 178.624 150.85 178.299 150.498 178.064C150.153 177.83 149.71 177.713 149.17 177.713ZM160.02 187.195C158.73 187.195 157.695 186.727 156.914 185.789C156.139 184.845 155.752 183.455 155.752 181.619C155.752 179.764 156.146 178.361 156.934 177.41C157.728 176.46 158.773 175.984 160.068 175.984C160.615 175.984 161.094 176.059 161.504 176.209C161.914 176.352 162.266 176.548 162.559 176.795C162.858 177.042 163.112 177.319 163.32 177.625H163.428C163.395 177.423 163.356 177.133 163.311 176.756C163.271 176.372 163.252 176.017 163.252 175.691V171.805H165.557V187H163.76L163.35 185.525H163.252C163.057 185.838 162.809 186.121 162.51 186.375C162.217 186.622 161.865 186.821 161.455 186.971C161.051 187.12 160.573 187.195 160.02 187.195ZM160.664 185.33C161.647 185.33 162.34 185.047 162.744 184.48C163.148 183.914 163.356 183.064 163.369 181.932V181.629C163.369 180.418 163.174 179.49 162.783 178.846C162.393 178.195 161.68 177.869 160.645 177.869C159.818 177.869 159.186 178.204 158.75 178.875C158.32 179.539 158.105 180.467 158.105 181.658C158.105 182.85 158.32 183.761 158.75 184.393C159.186 185.018 159.824 185.33 160.664 185.33ZM63.0859 196.723V205.961C63.0859 206.957 62.8743 207.849 62.4512 208.637C62.0345 209.424 61.403 210.049 60.5566 210.512C59.7103 210.967 58.6458 211.195 57.3633 211.195C55.5339 211.195 54.1406 210.717 53.1836 209.76C52.2331 208.796 51.7578 207.517 51.7578 205.922V196.723H54.1016V205.717C54.1016 206.908 54.3815 207.787 54.9414 208.354C55.5013 208.92 56.3379 209.203 57.4512 209.203C58.2194 209.203 58.8444 209.07 59.3262 208.803C59.8145 208.529 60.1725 208.132 60.4004 207.611C60.6348 207.084 60.752 206.449 60.752 205.707V196.723H63.0859ZM73.7695 207.914C73.7695 208.624 73.597 209.223 73.252 209.711C72.9069 210.199 72.4023 210.57 71.7383 210.824C71.0807 211.072 70.2734 211.195 69.3164 211.195C68.5612 211.195 67.9102 211.14 67.3633 211.029C66.8229 210.925 66.3118 210.762 65.8301 210.541V208.559C66.3444 208.799 66.9206 209.008 67.5586 209.184C68.2031 209.359 68.8118 209.447 69.3848 209.447C70.14 209.447 70.6836 209.33 71.0156 209.096C71.3477 208.855 71.5137 208.536 71.5137 208.139C71.5137 207.904 71.4453 207.696 71.3086 207.514C71.1784 207.325 70.931 207.133 70.5664 206.938C70.2083 206.736 69.681 206.495 68.9844 206.215C68.3008 205.941 67.7246 205.668 67.2559 205.395C66.7871 205.121 66.4323 204.792 66.1914 204.408C65.9505 204.018 65.8301 203.52 65.8301 202.914C65.8301 201.957 66.2077 201.231 66.9629 200.736C67.7246 200.235 68.7305 199.984 69.9805 199.984C70.6445 199.984 71.2695 200.053 71.8555 200.189C72.4479 200.32 73.0273 200.512 73.5938 200.766L72.8711 202.494C72.3828 202.279 71.8913 202.104 71.3965 201.967C70.9082 201.824 70.4102 201.752 69.9023 201.752C69.3099 201.752 68.8574 201.843 68.5449 202.025C68.2389 202.208 68.0859 202.468 68.0859 202.807C68.0859 203.061 68.1608 203.275 68.3105 203.451C68.4603 203.627 68.7174 203.803 69.082 203.979C69.4531 204.154 69.9674 204.372 70.625 204.633C71.2695 204.88 71.8262 205.141 72.2949 205.414C72.7702 205.681 73.1348 206.01 73.3887 206.4C73.6426 206.791 73.7695 207.296 73.7695 207.914ZM80.4883 199.984C81.8555 199.984 82.8874 200.287 83.584 200.893C84.2871 201.498 84.6387 202.442 84.6387 203.725V211H83.0078L82.5684 209.467H82.4902C82.1842 209.857 81.8685 210.18 81.543 210.434C81.2174 210.688 80.8398 210.876 80.4102 211C79.987 211.13 79.4694 211.195 78.8574 211.195C78.2129 211.195 77.6367 211.078 77.1289 210.844C76.6211 210.603 76.2207 210.238 75.9277 209.75C75.6348 209.262 75.4883 208.643 75.4883 207.895C75.4883 206.781 75.9017 205.945 76.7285 205.385C77.5618 204.825 78.8184 204.516 80.498 204.457L82.373 204.389V203.822C82.373 203.074 82.1973 202.54 81.8457 202.221C81.5007 201.902 81.0124 201.742 80.3809 201.742C79.8405 201.742 79.3164 201.82 78.8086 201.977C78.3008 202.133 77.806 202.325 77.3242 202.553L76.582 200.932C77.1094 200.652 77.7083 200.424 78.3789 200.248C79.056 200.072 79.7591 199.984 80.4883 199.984ZM82.3633 205.834L80.9668 205.883C79.821 205.922 79.0169 206.117 78.5547 206.469C78.0924 206.82 77.8613 207.302 77.8613 207.914C77.8613 208.448 78.0208 208.839 78.3398 209.086C78.6589 209.327 79.0788 209.447 79.5996 209.447C80.3939 209.447 81.0514 209.223 81.5723 208.773C82.0996 208.318 82.3633 207.65 82.3633 206.771V205.834ZM90.9375 215.805C89.4727 215.805 88.3496 215.541 87.5684 215.014C86.7871 214.486 86.3965 213.747 86.3965 212.797C86.3965 212.133 86.6048 211.57 87.0215 211.107C87.4382 210.652 88.0339 210.336 88.8086 210.16C88.5156 210.03 88.2617 209.828 88.0469 209.555C87.8385 209.275 87.7344 208.965 87.7344 208.627C87.7344 208.223 87.8483 207.878 88.0762 207.592C88.304 207.305 88.6458 207.029 89.1016 206.762C88.5352 206.521 88.0794 206.13 87.7344 205.59C87.3958 205.043 87.2266 204.402 87.2266 203.666C87.2266 202.885 87.3926 202.221 87.7246 201.674C88.0566 201.12 88.5417 200.701 89.1797 200.414C89.8177 200.121 90.5892 199.975 91.4941 199.975C91.6895 199.975 91.901 199.988 92.1289 200.014C92.3633 200.033 92.5781 200.059 92.7734 200.092C92.9753 200.118 93.1283 200.147 93.2324 200.18H96.9727V201.459L95.1367 201.801C95.3125 202.048 95.4525 202.331 95.5566 202.65C95.6608 202.963 95.7129 203.305 95.7129 203.676C95.7129 204.796 95.3255 205.678 94.5508 206.322C93.7826 206.96 92.7214 207.279 91.3672 207.279C91.0417 207.266 90.7259 207.24 90.4199 207.201C90.1855 207.344 90.0065 207.504 89.8828 207.68C89.7591 207.849 89.6973 208.041 89.6973 208.256C89.6973 208.432 89.7591 208.575 89.8828 208.686C90.0065 208.79 90.1888 208.868 90.4297 208.92C90.6771 208.972 90.9766 208.998 91.3281 208.998H93.1934C94.3783 208.998 95.2832 209.249 95.9082 209.75C96.5332 210.251 96.8457 210.987 96.8457 211.957C96.8457 213.188 96.3379 214.135 95.3223 214.799C94.3066 215.469 92.8451 215.805 90.9375 215.805ZM91.0254 214.193C91.8262 214.193 92.5 214.115 93.0469 213.959C93.5938 213.803 94.0072 213.578 94.2871 213.285C94.5671 212.999 94.707 212.657 94.707 212.26C94.707 211.908 94.6191 211.638 94.4434 211.449C94.2676 211.26 94.0039 211.13 93.6523 211.059C93.3008 210.987 92.8646 210.951 92.3438 210.951H90.6445C90.2214 210.951 89.847 211.016 89.5215 211.146C89.196 211.283 88.9421 211.479 88.7598 211.732C88.584 211.986 88.4961 212.292 88.4961 212.65C88.4961 213.145 88.7142 213.526 89.1504 213.793C89.5931 214.06 90.2181 214.193 91.0254 214.193ZM91.4746 205.775C92.1452 205.775 92.6432 205.593 92.9688 205.229C93.2943 204.857 93.457 204.337 93.457 203.666C93.457 202.937 93.2878 202.39 92.9492 202.025C92.6172 201.661 92.1224 201.479 91.4648 201.479C90.8203 201.479 90.3288 201.664 89.9902 202.035C89.6582 202.406 89.4922 202.956 89.4922 203.686C89.4922 204.343 89.6582 204.857 89.9902 205.229C90.3288 205.593 90.8236 205.775 91.4746 205.775ZM103.252 199.984C104.215 199.984 105.042 200.183 105.732 200.58C106.423 200.977 106.953 201.54 107.324 202.27C107.695 202.999 107.881 203.871 107.881 204.887V206.117H100.664C100.69 207.165 100.97 207.973 101.504 208.539C102.044 209.105 102.799 209.389 103.77 209.389C104.46 209.389 105.078 209.324 105.625 209.193C106.178 209.057 106.748 208.858 107.334 208.598V210.463C106.794 210.717 106.243 210.902 105.684 211.02C105.124 211.137 104.453 211.195 103.672 211.195C102.611 211.195 101.676 210.99 100.869 210.58C100.068 210.163 99.4401 209.545 98.9844 208.725C98.5352 207.904 98.3105 206.885 98.3105 205.668C98.3105 204.457 98.5156 203.428 98.9258 202.582C99.3359 201.736 99.9121 201.091 100.654 200.648C101.396 200.206 102.262 199.984 103.252 199.984ZM103.252 201.713C102.529 201.713 101.943 201.947 101.494 202.416C101.051 202.885 100.791 203.572 100.713 204.477H105.635C105.628 203.936 105.537 203.458 105.361 203.041C105.192 202.624 104.932 202.299 104.58 202.064C104.235 201.83 103.792 201.713 103.252 201.713Z" fill="#231F20"/>
<path d="M51.875 462.723H56.123C57.9655 462.723 59.3555 462.99 60.293 463.523C61.2305 464.057 61.6992 464.979 61.6992 466.287C61.6992 466.834 61.6016 467.329 61.4062 467.771C61.2174 468.208 60.9408 468.569 60.5762 468.855C60.2116 469.135 59.7624 469.324 59.2285 469.422V469.52C59.7819 469.617 60.2734 469.79 60.7031 470.037C61.1393 470.285 61.4811 470.639 61.7285 471.102C61.9824 471.564 62.1094 472.163 62.1094 472.898C62.1094 473.771 61.901 474.513 61.4844 475.125C61.0742 475.737 60.485 476.202 59.7168 476.521C58.9551 476.84 58.0501 477 57.002 477H51.875V462.723ZM54.2188 468.611H56.4648C57.526 468.611 58.2617 468.439 58.6719 468.094C59.082 467.749 59.2871 467.244 59.2871 466.58C59.2871 465.903 59.043 465.415 58.5547 465.115C58.0729 464.816 57.3047 464.666 56.25 464.666H54.2188V468.611ZM54.2188 470.506V475.037H56.6895C57.7832 475.037 58.5514 474.826 58.9941 474.402C59.4368 473.979 59.6582 473.406 59.6582 472.684C59.6582 472.241 59.5573 471.857 59.3555 471.531C59.1602 471.206 58.8379 470.955 58.3887 470.779C57.9395 470.597 57.334 470.506 56.5723 470.506H54.2188ZM74.248 466.189V477H72.4414L72.1289 475.545H72.002C71.7741 475.916 71.4844 476.225 71.1328 476.473C70.7812 476.714 70.3906 476.893 69.9609 477.01C69.5312 477.133 69.0788 477.195 68.6035 477.195C67.7897 477.195 67.0931 477.059 66.5137 476.785C65.9408 476.505 65.5013 476.076 65.1953 475.496C64.8893 474.917 64.7363 474.168 64.7363 473.25V466.189H67.041V472.82C67.041 473.66 67.2103 474.288 67.5488 474.705C67.8939 475.122 68.4277 475.33 69.1504 475.33C69.847 475.33 70.4004 475.187 70.8105 474.9C71.2207 474.614 71.5104 474.191 71.6797 473.631C71.8555 473.071 71.9434 472.384 71.9434 471.57V466.189H74.248ZM84.8047 473.914C84.8047 474.624 84.6322 475.223 84.2871 475.711C83.9421 476.199 83.4375 476.57 82.7734 476.824C82.1159 477.072 81.3086 477.195 80.3516 477.195C79.5964 477.195 78.9453 477.14 78.3984 477.029C77.8581 476.925 77.347 476.762 76.8652 476.541V474.559C77.3796 474.799 77.9557 475.008 78.5938 475.184C79.2383 475.359 79.847 475.447 80.4199 475.447C81.1751 475.447 81.7188 475.33 82.0508 475.096C82.3828 474.855 82.5488 474.536 82.5488 474.139C82.5488 473.904 82.4805 473.696 82.3438 473.514C82.2135 473.325 81.9661 473.133 81.6016 472.938C81.2435 472.736 80.7161 472.495 80.0195 472.215C79.3359 471.941 78.7598 471.668 78.291 471.395C77.8223 471.121 77.4674 470.792 77.2266 470.408C76.9857 470.018 76.8652 469.52 76.8652 468.914C76.8652 467.957 77.2428 467.231 77.998 466.736C78.7598 466.235 79.7656 465.984 81.0156 465.984C81.6797 465.984 82.3047 466.053 82.8906 466.189C83.4831 466.32 84.0625 466.512 84.6289 466.766L83.9062 468.494C83.418 468.279 82.9264 468.104 82.4316 467.967C81.9434 467.824 81.4453 467.752 80.9375 467.752C80.3451 467.752 79.8926 467.843 79.5801 468.025C79.2741 468.208 79.1211 468.468 79.1211 468.807C79.1211 469.061 79.196 469.275 79.3457 469.451C79.4954 469.627 79.7526 469.803 80.1172 469.979C80.4883 470.154 81.0026 470.372 81.6602 470.633C82.3047 470.88 82.8613 471.141 83.3301 471.414C83.8053 471.681 84.1699 472.01 84.4238 472.4C84.6777 472.791 84.8047 473.296 84.8047 473.914ZM89.5801 466.189V477H87.2852V466.189H89.5801ZM88.4473 462.049C88.7988 462.049 89.1016 462.143 89.3555 462.332C89.6159 462.521 89.7461 462.846 89.7461 463.309C89.7461 463.764 89.6159 464.09 89.3555 464.285C89.1016 464.474 88.7988 464.568 88.4473 464.568C88.0827 464.568 87.7734 464.474 87.5195 464.285C87.2721 464.09 87.1484 463.764 87.1484 463.309C87.1484 462.846 87.2721 462.521 87.5195 462.332C87.7734 462.143 88.0827 462.049 88.4473 462.049ZM98.5059 465.984C99.7233 465.984 100.671 466.3 101.348 466.932C102.031 467.557 102.373 468.562 102.373 469.949V477H100.078V470.379C100.078 469.539 99.9056 468.911 99.5605 468.494C99.2155 468.071 98.6816 467.859 97.959 467.859C96.9108 467.859 96.1816 468.182 95.7715 468.826C95.3678 469.471 95.166 470.405 95.166 471.629V477H92.8711V466.189H94.6582L94.9805 467.654H95.1074C95.3418 467.277 95.6315 466.967 95.9766 466.727C96.3281 466.479 96.7188 466.294 97.1484 466.17C97.5846 466.046 98.0371 465.984 98.5059 465.984ZM109.893 465.984C110.856 465.984 111.683 466.183 112.373 466.58C113.063 466.977 113.594 467.54 113.965 468.27C114.336 468.999 114.521 469.871 114.521 470.887V472.117H107.305C107.331 473.165 107.611 473.973 108.145 474.539C108.685 475.105 109.44 475.389 110.41 475.389C111.1 475.389 111.719 475.324 112.266 475.193C112.819 475.057 113.389 474.858 113.975 474.598V476.463C113.434 476.717 112.884 476.902 112.324 477.02C111.764 477.137 111.094 477.195 110.312 477.195C109.251 477.195 108.317 476.99 107.51 476.58C106.709 476.163 106.081 475.545 105.625 474.725C105.176 473.904 104.951 472.885 104.951 471.668C104.951 470.457 105.156 469.428 105.566 468.582C105.977 467.736 106.553 467.091 107.295 466.648C108.037 466.206 108.903 465.984 109.893 465.984ZM109.893 467.713C109.17 467.713 108.584 467.947 108.135 468.416C107.692 468.885 107.432 469.572 107.354 470.477H112.275C112.269 469.936 112.178 469.458 112.002 469.041C111.833 468.624 111.572 468.299 111.221 468.064C110.876 467.83 110.433 467.713 109.893 467.713ZM124.375 473.914C124.375 474.624 124.202 475.223 123.857 475.711C123.512 476.199 123.008 476.57 122.344 476.824C121.686 477.072 120.879 477.195 119.922 477.195C119.167 477.195 118.516 477.14 117.969 477.029C117.428 476.925 116.917 476.762 116.436 476.541V474.559C116.95 474.799 117.526 475.008 118.164 475.184C118.809 475.359 119.417 475.447 119.99 475.447C120.745 475.447 121.289 475.33 121.621 475.096C121.953 474.855 122.119 474.536 122.119 474.139C122.119 473.904 122.051 473.696 121.914 473.514C121.784 473.325 121.536 473.133 121.172 472.938C120.814 472.736 120.286 472.495 119.59 472.215C118.906 471.941 118.33 471.668 117.861 471.395C117.393 471.121 117.038 470.792 116.797 470.408C116.556 470.018 116.436 469.52 116.436 468.914C116.436 467.957 116.813 467.231 117.568 466.736C118.33 466.235 119.336 465.984 120.586 465.984C121.25 465.984 121.875 466.053 122.461 466.189C123.053 466.32 123.633 466.512 124.199 466.766L123.477 468.494C122.988 468.279 122.497 468.104 122.002 467.967C121.514 467.824 121.016 467.752 120.508 467.752C119.915 467.752 119.463 467.843 119.15 468.025C118.844 468.208 118.691 468.468 118.691 468.807C118.691 469.061 118.766 469.275 118.916 469.451C119.066 469.627 119.323 469.803 119.688 469.979C120.059 470.154 120.573 470.372 121.23 470.633C121.875 470.88 122.432 471.141 122.9 471.414C123.376 471.681 123.74 472.01 123.994 472.4C124.248 472.791 124.375 473.296 124.375 473.914ZM134.121 473.914C134.121 474.624 133.949 475.223 133.604 475.711C133.258 476.199 132.754 476.57 132.09 476.824C131.432 477.072 130.625 477.195 129.668 477.195C128.913 477.195 128.262 477.14 127.715 477.029C127.174 476.925 126.663 476.762 126.182 476.541V474.559C126.696 474.799 127.272 475.008 127.91 475.184C128.555 475.359 129.163 475.447 129.736 475.447C130.492 475.447 131.035 475.33 131.367 475.096C131.699 474.855 131.865 474.536 131.865 474.139C131.865 473.904 131.797 473.696 131.66 473.514C131.53 473.325 131.283 473.133 130.918 472.938C130.56 472.736 130.033 472.495 129.336 472.215C128.652 471.941 128.076 471.668 127.607 471.395C127.139 471.121 126.784 470.792 126.543 470.408C126.302 470.018 126.182 469.52 126.182 468.914C126.182 467.957 126.559 467.231 127.314 466.736C128.076 466.235 129.082 465.984 130.332 465.984C130.996 465.984 131.621 466.053 132.207 466.189C132.799 466.32 133.379 466.512 133.945 466.766L133.223 468.494C132.734 468.279 132.243 468.104 131.748 467.967C131.26 467.824 130.762 467.752 130.254 467.752C129.661 467.752 129.209 467.843 128.896 468.025C128.59 468.208 128.438 468.468 128.438 468.807C128.438 469.061 128.512 469.275 128.662 469.451C128.812 469.627 129.069 469.803 129.434 469.979C129.805 470.154 130.319 470.372 130.977 470.633C131.621 470.88 132.178 471.141 132.646 471.414C133.122 471.681 133.486 472.01 133.74 472.4C133.994 472.791 134.121 473.296 134.121 473.914ZM60.7227 501L59.3262 497.035H53.8672L52.4707 501H50L55.3125 486.664H57.9102L63.2129 501H60.7227ZM58.7207 495.023L57.3633 491.117C57.3112 490.948 57.2363 490.71 57.1387 490.404C57.041 490.092 56.9434 489.776 56.8457 489.457C56.748 489.132 56.6667 488.858 56.6016 488.637C56.5365 488.904 56.4551 489.203 56.3574 489.535C56.2663 489.861 56.1751 490.167 56.084 490.453C55.9993 490.74 55.9342 490.961 55.8887 491.117L54.5215 495.023H58.7207ZM67.168 501H64.8633V485.805H67.168V501ZM72.7441 490.189V501H70.4492V490.189H72.7441ZM71.6113 486.049C71.9629 486.049 72.2656 486.143 72.5195 486.332C72.7799 486.521 72.9102 486.846 72.9102 487.309C72.9102 487.764 72.7799 488.09 72.5195 488.285C72.2656 488.474 71.9629 488.568 71.6113 488.568C71.2467 488.568 70.9375 488.474 70.6836 488.285C70.4362 488.09 70.3125 487.764 70.3125 487.309C70.3125 486.846 70.4362 486.521 70.6836 486.332C70.9375 486.143 71.2467 486.049 71.6113 486.049ZM79.1211 505.805C77.6562 505.805 76.5332 505.541 75.752 505.014C74.9707 504.486 74.5801 503.747 74.5801 502.797C74.5801 502.133 74.7884 501.57 75.2051 501.107C75.6217 500.652 76.2174 500.336 76.9922 500.16C76.6992 500.03 76.4453 499.828 76.2305 499.555C76.0221 499.275 75.918 498.965 75.918 498.627C75.918 498.223 76.0319 497.878 76.2598 497.592C76.4876 497.305 76.8294 497.029 77.2852 496.762C76.7188 496.521 76.263 496.13 75.918 495.59C75.5794 495.043 75.4102 494.402 75.4102 493.666C75.4102 492.885 75.5762 492.221 75.9082 491.674C76.2402 491.12 76.7253 490.701 77.3633 490.414C78.0013 490.121 78.7728 489.975 79.6777 489.975C79.873 489.975 80.0846 489.988 80.3125 490.014C80.5469 490.033 80.7617 490.059 80.957 490.092C81.1589 490.118 81.3118 490.147 81.416 490.18H85.1562V491.459L83.3203 491.801C83.4961 492.048 83.6361 492.331 83.7402 492.65C83.8444 492.963 83.8965 493.305 83.8965 493.676C83.8965 494.796 83.5091 495.678 82.7344 496.322C81.9661 496.96 80.9049 497.279 79.5508 497.279C79.2253 497.266 78.9095 497.24 78.6035 497.201C78.3691 497.344 78.1901 497.504 78.0664 497.68C77.9427 497.849 77.8809 498.041 77.8809 498.256C77.8809 498.432 77.9427 498.575 78.0664 498.686C78.1901 498.79 78.3724 498.868 78.6133 498.92C78.8607 498.972 79.1602 498.998 79.5117 498.998H81.377C82.5618 498.998 83.4668 499.249 84.0918 499.75C84.7168 500.251 85.0293 500.987 85.0293 501.957C85.0293 503.188 84.5215 504.135 83.5059 504.799C82.4902 505.469 81.0286 505.805 79.1211 505.805ZM79.209 504.193C80.0098 504.193 80.6836 504.115 81.2305 503.959C81.7773 503.803 82.1908 503.578 82.4707 503.285C82.7507 502.999 82.8906 502.657 82.8906 502.26C82.8906 501.908 82.8027 501.638 82.627 501.449C82.4512 501.26 82.1875 501.13 81.8359 501.059C81.4844 500.987 81.0482 500.951 80.5273 500.951H78.8281C78.4049 500.951 78.0306 501.016 77.7051 501.146C77.3796 501.283 77.1257 501.479 76.9434 501.732C76.7676 501.986 76.6797 502.292 76.6797 502.65C76.6797 503.145 76.8978 503.526 77.334 503.793C77.7767 504.06 78.4017 504.193 79.209 504.193ZM79.6582 495.775C80.3288 495.775 80.8268 495.593 81.1523 495.229C81.4779 494.857 81.6406 494.337 81.6406 493.666C81.6406 492.937 81.4714 492.39 81.1328 492.025C80.8008 491.661 80.306 491.479 79.6484 491.479C79.0039 491.479 78.5124 491.664 78.1738 492.035C77.8418 492.406 77.6758 492.956 77.6758 493.686C77.6758 494.343 77.8418 494.857 78.1738 495.229C78.5124 495.593 79.0072 495.775 79.6582 495.775ZM92.7637 489.984C93.9811 489.984 94.9284 490.3 95.6055 490.932C96.2891 491.557 96.6309 492.562 96.6309 493.949V501H94.3359V494.379C94.3359 493.539 94.1634 492.911 93.8184 492.494C93.4733 492.071 92.9395 491.859 92.2168 491.859C91.1686 491.859 90.4395 492.182 90.0293 492.826C89.6257 493.471 89.4238 494.405 89.4238 495.629V501H87.1289V490.189H88.916L89.2383 491.654H89.3652C89.5996 491.277 89.8893 490.967 90.2344 490.727C90.5859 490.479 90.9766 490.294 91.4062 490.17C91.8424 490.046 92.2949 489.984 92.7637 489.984ZM112.061 489.984C113.271 489.984 114.183 490.297 114.795 490.922C115.413 491.547 115.723 492.549 115.723 493.93V501H113.428V494.34C113.428 493.52 113.268 492.901 112.949 492.484C112.63 492.068 112.145 491.859 111.494 491.859C110.583 491.859 109.925 492.152 109.521 492.738C109.124 493.318 108.926 494.161 108.926 495.268V501H106.631V494.34C106.631 493.793 106.559 493.337 106.416 492.973C106.279 492.602 106.068 492.325 105.781 492.143C105.495 491.954 105.133 491.859 104.697 491.859C104.066 491.859 103.561 492.003 103.184 492.289C102.812 492.576 102.546 492.999 102.383 493.559C102.22 494.112 102.139 494.792 102.139 495.6V501H99.8438V490.189H101.631L101.953 491.645H102.08C102.301 491.267 102.575 490.958 102.9 490.717C103.232 490.469 103.6 490.287 104.004 490.17C104.408 490.046 104.827 489.984 105.264 489.984C106.071 489.984 106.751 490.128 107.305 490.414C107.858 490.694 108.271 491.124 108.545 491.703H108.721C109.059 491.117 109.531 490.684 110.137 490.404C110.742 490.124 111.383 489.984 112.061 489.984ZM123.232 489.984C124.196 489.984 125.023 490.183 125.713 490.58C126.403 490.977 126.934 491.54 127.305 492.27C127.676 492.999 127.861 493.871 127.861 494.887V496.117H120.645C120.671 497.165 120.951 497.973 121.484 498.539C122.025 499.105 122.78 499.389 123.75 499.389C124.44 499.389 125.059 499.324 125.605 499.193C126.159 499.057 126.729 498.858 127.314 498.598V500.463C126.774 500.717 126.224 500.902 125.664 501.02C125.104 501.137 124.434 501.195 123.652 501.195C122.591 501.195 121.657 500.99 120.85 500.58C120.049 500.163 119.421 499.545 118.965 498.725C118.516 497.904 118.291 496.885 118.291 495.668C118.291 494.457 118.496 493.428 118.906 492.582C119.316 491.736 119.893 491.091 120.635 490.648C121.377 490.206 122.243 489.984 123.232 489.984ZM123.232 491.713C122.51 491.713 121.924 491.947 121.475 492.416C121.032 492.885 120.771 493.572 120.693 494.477H125.615C125.609 493.936 125.518 493.458 125.342 493.041C125.173 492.624 124.912 492.299 124.561 492.064C124.215 491.83 123.773 491.713 123.232 491.713ZM136.084 489.984C137.301 489.984 138.249 490.3 138.926 490.932C139.609 491.557 139.951 492.562 139.951 493.949V501H137.656V494.379C137.656 493.539 137.484 492.911 137.139 492.494C136.794 492.071 136.26 491.859 135.537 491.859C134.489 491.859 133.76 492.182 133.35 492.826C132.946 493.471 132.744 494.405 132.744 495.629V501H130.449V490.189H132.236L132.559 491.654H132.686C132.92 491.277 133.21 490.967 133.555 490.727C133.906 490.479 134.297 490.294 134.727 490.17C135.163 490.046 135.615 489.984 136.084 489.984ZM147.188 499.34C147.487 499.34 147.783 499.314 148.076 499.262C148.369 499.203 148.636 499.135 148.877 499.057V500.795C148.623 500.906 148.294 501 147.891 501.078C147.487 501.156 147.067 501.195 146.631 501.195C146.019 501.195 145.469 501.094 144.98 500.893C144.492 500.684 144.105 500.329 143.818 499.828C143.532 499.327 143.389 498.633 143.389 497.748V491.938H141.914V490.912L143.496 490.102L144.248 487.787H145.693V490.189H148.789V491.938H145.693V497.719C145.693 498.266 145.83 498.673 146.104 498.939C146.377 499.206 146.738 499.34 147.188 499.34Z" fill="#231F20"/>
<path d="M51.875 319V304.723H54.2188V317.008H60.2832V319H51.875ZM66.7578 307.984C68.125 307.984 69.1569 308.287 69.8535 308.893C70.5566 309.498 70.9082 310.442 70.9082 311.725V319H69.2773L68.8379 317.467H68.7598C68.4538 317.857 68.138 318.18 67.8125 318.434C67.487 318.688 67.1094 318.876 66.6797 319C66.2565 319.13 65.7389 319.195 65.127 319.195C64.4824 319.195 63.9062 319.078 63.3984 318.844C62.8906 318.603 62.4902 318.238 62.1973 317.75C61.9043 317.262 61.7578 316.643 61.7578 315.895C61.7578 314.781 62.1712 313.945 62.998 313.385C63.8314 312.825 65.0879 312.516 66.7676 312.457L68.6426 312.389V311.822C68.6426 311.074 68.4668 310.54 68.1152 310.221C67.7702 309.902 67.2819 309.742 66.6504 309.742C66.11 309.742 65.5859 309.82 65.0781 309.977C64.5703 310.133 64.0755 310.325 63.5938 310.553L62.8516 308.932C63.3789 308.652 63.9779 308.424 64.6484 308.248C65.3255 308.072 66.0286 307.984 66.7578 307.984ZM68.6328 313.834L67.2363 313.883C66.0905 313.922 65.2865 314.117 64.8242 314.469C64.362 314.82 64.1309 315.302 64.1309 315.914C64.1309 316.448 64.2904 316.839 64.6094 317.086C64.9284 317.327 65.3483 317.447 65.8691 317.447C66.6634 317.447 67.321 317.223 67.8418 316.773C68.3691 316.318 68.6328 315.65 68.6328 314.771V313.834ZM78.4766 319.195C77.4544 319.195 76.569 318.997 75.8203 318.6C75.0716 318.202 74.4954 317.594 74.0918 316.773C73.6882 315.953 73.4863 314.911 73.4863 313.648C73.4863 312.333 73.7077 311.259 74.1504 310.426C74.5931 309.592 75.2051 308.977 75.9863 308.58C76.7741 308.183 77.6758 307.984 78.6914 307.984C79.3359 307.984 79.9186 308.049 80.4395 308.18C80.9668 308.303 81.4128 308.456 81.7773 308.639L81.0938 310.475C80.6966 310.312 80.2897 310.175 79.873 310.064C79.4564 309.954 79.056 309.898 78.6719 309.898C78.0404 309.898 77.513 310.038 77.0898 310.318C76.6732 310.598 76.3607 311.015 76.1523 311.568C75.9505 312.122 75.8496 312.809 75.8496 313.629C75.8496 314.423 75.9538 315.094 76.1621 315.641C76.3704 316.181 76.6797 316.591 77.0898 316.871C77.5 317.145 78.0046 317.281 78.6035 317.281C79.196 317.281 79.7266 317.21 80.1953 317.066C80.6641 316.923 81.1068 316.738 81.5234 316.51V318.502C81.1133 318.736 80.6738 318.909 80.2051 319.02C79.7363 319.137 79.1602 319.195 78.4766 319.195ZM86.3574 303.805V311.148C86.3574 311.48 86.3444 311.845 86.3184 312.242C86.2923 312.633 86.2663 313.001 86.2402 313.346H86.2891C86.4583 313.118 86.6602 312.851 86.8945 312.545C87.1354 312.239 87.3633 311.972 87.5781 311.744L90.8789 308.189H93.5156L89.1895 312.838L93.7988 319H91.1035L87.6465 314.254L86.3574 315.357V319H84.0625V303.805H86.3574ZM110.293 313.57C110.293 314.469 110.176 315.266 109.941 315.963C109.707 316.66 109.365 317.249 108.916 317.73C108.467 318.206 107.926 318.57 107.295 318.824C106.663 319.072 105.951 319.195 105.156 319.195C104.414 319.195 103.734 319.072 103.115 318.824C102.497 318.57 101.96 318.206 101.504 317.73C101.055 317.249 100.706 316.66 100.459 315.963C100.212 315.266 100.088 314.469 100.088 313.57C100.088 312.379 100.293 311.37 100.703 310.543C101.12 309.71 101.712 309.075 102.48 308.639C103.249 308.202 104.163 307.984 105.225 307.984C106.221 307.984 107.1 308.202 107.861 308.639C108.623 309.075 109.219 309.71 109.648 310.543C110.078 311.376 110.293 312.385 110.293 313.57ZM102.451 313.57C102.451 314.358 102.546 315.032 102.734 315.592C102.93 316.152 103.229 316.581 103.633 316.881C104.036 317.174 104.557 317.32 105.195 317.32C105.833 317.32 106.354 317.174 106.758 316.881C107.161 316.581 107.458 316.152 107.646 315.592C107.835 315.032 107.93 314.358 107.93 313.57C107.93 312.783 107.835 312.115 107.646 311.568C107.458 311.015 107.161 310.595 106.758 310.309C106.354 310.016 105.83 309.869 105.186 309.869C104.235 309.869 103.542 310.188 103.105 310.826C102.669 311.464 102.451 312.379 102.451 313.57ZM118.33 309.938H115.703V319H113.408V309.938H111.641V308.834L113.408 308.16V307.408C113.408 306.49 113.551 305.761 113.838 305.221C114.131 304.68 114.548 304.293 115.088 304.059C115.635 303.818 116.286 303.697 117.041 303.697C117.536 303.697 117.988 303.74 118.398 303.824C118.809 303.902 119.154 303.993 119.434 304.098L118.838 305.836C118.617 305.764 118.369 305.699 118.096 305.641C117.822 305.576 117.529 305.543 117.217 305.543C116.696 305.543 116.312 305.706 116.064 306.031C115.824 306.357 115.703 306.832 115.703 307.457V308.189H118.33V309.938ZM57.959 330.51C57.2754 330.51 56.6634 330.633 56.123 330.881C55.5892 331.128 55.1367 331.486 54.7656 331.955C54.3945 332.417 54.1113 332.98 53.916 333.645C53.7207 334.302 53.623 335.044 53.623 335.871C53.623 336.978 53.7793 337.932 54.0918 338.732C54.4043 339.527 54.8796 340.139 55.5176 340.568C56.1556 340.992 56.9629 341.203 57.9395 341.203C58.5449 341.203 59.1341 341.145 59.707 341.027C60.2799 340.91 60.8724 340.751 61.4844 340.549V342.541C60.9049 342.769 60.319 342.935 59.7266 343.039C59.1341 343.143 58.4505 343.195 57.6758 343.195C56.2174 343.195 55.0065 342.893 54.043 342.287C53.0859 341.682 52.3698 340.829 51.8945 339.729C51.4258 338.628 51.1914 337.339 51.1914 335.861C51.1914 334.781 51.3411 333.791 51.6406 332.893C51.9401 331.994 52.3763 331.219 52.9492 330.568C53.5221 329.911 54.2285 329.406 55.0684 329.055C55.9147 328.697 56.8815 328.518 57.9688 328.518C58.6849 328.518 59.388 328.599 60.0781 328.762C60.7747 328.918 61.4193 329.143 62.0117 329.436L61.1914 331.369C60.6966 331.135 60.179 330.933 59.6387 330.764C59.0983 330.594 58.5384 330.51 57.959 330.51ZM68.623 331.984C69.5866 331.984 70.4134 332.183 71.1035 332.58C71.7936 332.977 72.3242 333.54 72.6953 334.27C73.0664 334.999 73.252 335.871 73.252 336.887V338.117H66.0352C66.0612 339.165 66.3411 339.973 66.875 340.539C67.4154 341.105 68.1706 341.389 69.1406 341.389C69.8307 341.389 70.4492 341.324 70.9961 341.193C71.5495 341.057 72.1191 340.858 72.7051 340.598V342.463C72.1647 342.717 71.6146 342.902 71.0547 343.02C70.4948 343.137 69.8242 343.195 69.043 343.195C67.9818 343.195 67.0475 342.99 66.2402 342.58C65.4395 342.163 64.8112 341.545 64.3555 340.725C63.9062 339.904 63.6816 338.885 63.6816 337.668C63.6816 336.457 63.8867 335.428 64.2969 334.582C64.707 333.736 65.2832 333.091 66.0254 332.648C66.7676 332.206 67.6335 331.984 68.623 331.984ZM68.623 333.713C67.9004 333.713 67.3145 333.947 66.8652 334.416C66.4225 334.885 66.1621 335.572 66.084 336.477H71.0059C70.9993 335.936 70.9082 335.458 70.7324 335.041C70.5632 334.624 70.3027 334.299 69.9512 334.064C69.6061 333.83 69.1634 333.713 68.623 333.713ZM81.4746 331.984C82.6921 331.984 83.6393 332.3 84.3164 332.932C85 333.557 85.3418 334.562 85.3418 335.949V343H83.0469V336.379C83.0469 335.539 82.8743 334.911 82.5293 334.494C82.1842 334.071 81.6504 333.859 80.9277 333.859C79.8796 333.859 79.1504 334.182 78.7402 334.826C78.3366 335.471 78.1348 336.405 78.1348 337.629V343H75.8398V332.189H77.627L77.9492 333.654H78.0762C78.3105 333.277 78.6003 332.967 78.9453 332.727C79.2969 332.479 79.6875 332.294 80.1172 332.17C80.5534 332.046 81.0059 331.984 81.4746 331.984ZM92.5781 341.34C92.8776 341.34 93.1738 341.314 93.4668 341.262C93.7598 341.203 94.0267 341.135 94.2676 341.057V342.795C94.0137 342.906 93.6849 343 93.2812 343.078C92.8776 343.156 92.4577 343.195 92.0215 343.195C91.4095 343.195 90.8594 343.094 90.3711 342.893C89.8828 342.684 89.4954 342.329 89.209 341.828C88.9225 341.327 88.7793 340.633 88.7793 339.748V333.938H87.3047V332.912L88.8867 332.102L89.6387 329.787H91.084V332.189H94.1797V333.938H91.084V339.719C91.084 340.266 91.2207 340.673 91.4941 340.939C91.7676 341.206 92.1289 341.34 92.5781 341.34ZM101.943 331.984C102.126 331.984 102.324 331.994 102.539 332.014C102.754 332.033 102.939 332.059 103.096 332.092L102.881 334.24C102.744 334.201 102.575 334.172 102.373 334.152C102.178 334.133 102.002 334.123 101.846 334.123C101.436 334.123 101.045 334.191 100.674 334.328C100.303 334.458 99.974 334.66 99.6875 334.934C99.401 335.201 99.1764 335.536 99.0137 335.939C98.8509 336.343 98.7695 336.812 98.7695 337.346V343H96.4648V332.189H98.2617L98.5742 334.094H98.6816C98.8965 333.71 99.1634 333.358 99.4824 333.039C99.8014 332.72 100.166 332.466 100.576 332.277C100.993 332.082 101.449 331.984 101.943 331.984ZM109.336 331.984C110.703 331.984 111.735 332.287 112.432 332.893C113.135 333.498 113.486 334.442 113.486 335.725V343H111.855L111.416 341.467H111.338C111.032 341.857 110.716 342.18 110.391 342.434C110.065 342.688 109.688 342.876 109.258 343C108.835 343.13 108.317 343.195 107.705 343.195C107.061 343.195 106.484 343.078 105.977 342.844C105.469 342.603 105.068 342.238 104.775 341.75C104.482 341.262 104.336 340.643 104.336 339.895C104.336 338.781 104.749 337.945 105.576 337.385C106.41 336.825 107.666 336.516 109.346 336.457L111.221 336.389V335.822C111.221 335.074 111.045 334.54 110.693 334.221C110.348 333.902 109.86 333.742 109.229 333.742C108.688 333.742 108.164 333.82 107.656 333.977C107.148 334.133 106.654 334.325 106.172 334.553L105.43 332.932C105.957 332.652 106.556 332.424 107.227 332.248C107.904 332.072 108.607 331.984 109.336 331.984ZM111.211 337.834L109.814 337.883C108.669 337.922 107.865 338.117 107.402 338.469C106.94 338.82 106.709 339.302 106.709 339.914C106.709 340.448 106.868 340.839 107.188 341.086C107.507 341.327 107.926 341.447 108.447 341.447C109.242 341.447 109.899 341.223 110.42 340.773C110.947 340.318 111.211 339.65 111.211 338.771V337.834ZM119.004 343H116.699V327.805H119.004V343ZM124.58 332.189V343H122.285V332.189H124.58ZM123.447 328.049C123.799 328.049 124.102 328.143 124.355 328.332C124.616 328.521 124.746 328.846 124.746 329.309C124.746 329.764 124.616 330.09 124.355 330.285C124.102 330.474 123.799 330.568 123.447 330.568C123.083 330.568 122.773 330.474 122.52 330.285C122.272 330.09 122.148 329.764 122.148 329.309C122.148 328.846 122.272 328.521 122.52 328.332C122.773 328.143 123.083 328.049 123.447 328.049ZM135.107 343H126.895V341.584L132.354 333.957H127.227V332.189H134.951V333.752L129.6 341.232H135.107V343ZM141.748 331.984C142.712 331.984 143.538 332.183 144.229 332.58C144.919 332.977 145.449 333.54 145.82 334.27C146.191 334.999 146.377 335.871 146.377 336.887V338.117H139.16C139.186 339.165 139.466 339.973 140 340.539C140.54 341.105 141.296 341.389 142.266 341.389C142.956 341.389 143.574 341.324 144.121 341.193C144.674 341.057 145.244 340.858 145.83 340.598V342.463C145.29 342.717 144.74 342.902 144.18 343.02C143.62 343.137 142.949 343.195 142.168 343.195C141.107 343.195 140.173 342.99 139.365 342.58C138.564 342.163 137.936 341.545 137.48 340.725C137.031 339.904 136.807 338.885 136.807 337.668C136.807 336.457 137.012 335.428 137.422 334.582C137.832 333.736 138.408 333.091 139.15 332.648C139.893 332.206 140.758 331.984 141.748 331.984ZM141.748 333.713C141.025 333.713 140.439 333.947 139.99 334.416C139.548 334.885 139.287 335.572 139.209 336.477H144.131C144.124 335.936 144.033 335.458 143.857 335.041C143.688 334.624 143.428 334.299 143.076 334.064C142.731 333.83 142.288 333.713 141.748 333.713ZM152.598 343.195C151.309 343.195 150.273 342.727 149.492 341.789C148.717 340.845 148.33 339.455 148.33 337.619C148.33 335.764 148.724 334.361 149.512 333.41C150.306 332.46 151.351 331.984 152.646 331.984C153.193 331.984 153.672 332.059 154.082 332.209C154.492 332.352 154.844 332.548 155.137 332.795C155.436 333.042 155.69 333.319 155.898 333.625H156.006C155.973 333.423 155.934 333.133 155.889 332.756C155.85 332.372 155.83 332.017 155.83 331.691V327.805H158.135V343H156.338L155.928 341.525H155.83C155.635 341.838 155.387 342.121 155.088 342.375C154.795 342.622 154.443 342.821 154.033 342.971C153.63 343.12 153.151 343.195 152.598 343.195ZM153.242 341.33C154.225 341.33 154.919 341.047 155.322 340.48C155.726 339.914 155.934 339.064 155.947 337.932V337.629C155.947 336.418 155.752 335.49 155.361 334.846C154.971 334.195 154.258 333.869 153.223 333.869C152.396 333.869 151.764 334.204 151.328 334.875C150.898 335.539 150.684 336.467 150.684 337.658C150.684 338.85 150.898 339.761 151.328 340.393C151.764 341.018 152.402 341.33 153.242 341.33ZM56.0254 352.723C57.8678 352.723 59.2122 353.1 60.0586 353.855C60.9049 354.611 61.3281 355.669 61.3281 357.029C61.3281 357.648 61.2305 358.237 61.0352 358.797C60.8464 359.35 60.5339 359.842 60.0977 360.271C59.6615 360.695 59.0853 361.03 58.3691 361.277C57.6595 361.525 56.7839 361.648 55.7422 361.648H54.2188V367H51.875V352.723H56.0254ZM55.8691 354.666H54.2188V359.695H55.498C56.2337 359.695 56.8587 359.611 57.373 359.441C57.8874 359.266 58.278 358.989 58.5449 358.611C58.8118 358.234 58.9453 357.736 58.9453 357.117C58.9453 356.29 58.6947 355.675 58.1934 355.271C57.6986 354.868 56.9238 354.666 55.8691 354.666ZM73.5156 361.57C73.5156 362.469 73.3984 363.266 73.1641 363.963C72.9297 364.66 72.5879 365.249 72.1387 365.73C71.6895 366.206 71.1491 366.57 70.5176 366.824C69.8861 367.072 69.1732 367.195 68.3789 367.195C67.6367 367.195 66.9564 367.072 66.3379 366.824C65.7194 366.57 65.1823 366.206 64.7266 365.73C64.2773 365.249 63.929 364.66 63.6816 363.963C63.4342 363.266 63.3105 362.469 63.3105 361.57C63.3105 360.379 63.5156 359.37 63.9258 358.543C64.3424 357.71 64.9349 357.075 65.7031 356.639C66.4714 356.202 67.3861 355.984 68.4473 355.984C69.4434 355.984 70.3223 356.202 71.084 356.639C71.8457 357.075 72.4414 357.71 72.8711 358.543C73.3008 359.376 73.5156 360.385 73.5156 361.57ZM65.6738 361.57C65.6738 362.358 65.7682 363.032 65.957 363.592C66.1523 364.152 66.4518 364.581 66.8555 364.881C67.2591 365.174 67.7799 365.32 68.418 365.32C69.056 365.32 69.5768 365.174 69.9805 364.881C70.3841 364.581 70.6803 364.152 70.8691 363.592C71.0579 363.032 71.1523 362.358 71.1523 361.57C71.1523 360.783 71.0579 360.115 70.8691 359.568C70.6803 359.015 70.3841 358.595 69.9805 358.309C69.5768 358.016 69.0527 357.869 68.4082 357.869C67.4577 357.869 66.7643 358.188 66.3281 358.826C65.8919 359.464 65.6738 360.379 65.6738 361.57ZM78.457 367H76.1523V351.805H78.457V367ZM84.0332 356.189V367H81.7383V356.189H84.0332ZM82.9004 352.049C83.252 352.049 83.5547 352.143 83.8086 352.332C84.069 352.521 84.1992 352.846 84.1992 353.309C84.1992 353.764 84.069 354.09 83.8086 354.285C83.5547 354.474 83.252 354.568 82.9004 354.568C82.5358 354.568 82.2266 354.474 81.9727 354.285C81.7253 354.09 81.6016 353.764 81.6016 353.309C81.6016 352.846 81.7253 352.521 81.9727 352.332C82.2266 352.143 82.5358 352.049 82.9004 352.049ZM91.6797 367.195C90.6576 367.195 89.7721 366.997 89.0234 366.6C88.2747 366.202 87.6986 365.594 87.2949 364.773C86.8913 363.953 86.6895 362.911 86.6895 361.648C86.6895 360.333 86.9108 359.259 87.3535 358.426C87.7962 357.592 88.4082 356.977 89.1895 356.58C89.9772 356.183 90.8789 355.984 91.8945 355.984C92.5391 355.984 93.1217 356.049 93.6426 356.18C94.1699 356.303 94.6159 356.456 94.9805 356.639L94.2969 358.475C93.8997 358.312 93.4928 358.175 93.0762 358.064C92.6595 357.954 92.2591 357.898 91.875 357.898C91.2435 357.898 90.7161 358.038 90.293 358.318C89.8763 358.598 89.5638 359.015 89.3555 359.568C89.1536 360.122 89.0527 360.809 89.0527 361.629C89.0527 362.423 89.1569 363.094 89.3652 363.641C89.5736 364.181 89.8828 364.591 90.293 364.871C90.7031 365.145 91.2077 365.281 91.8066 365.281C92.3991 365.281 92.9297 365.21 93.3984 365.066C93.8672 364.923 94.3099 364.738 94.7266 364.51V366.502C94.3164 366.736 93.877 366.909 93.4082 367.02C92.9395 367.137 92.3633 367.195 91.6797 367.195ZM95.6348 356.189H98.1348L100.352 362.361C100.449 362.641 100.537 362.918 100.615 363.191C100.7 363.458 100.771 363.722 100.83 363.982C100.895 364.243 100.947 364.503 100.986 364.764H101.045C101.11 364.425 101.201 364.048 101.318 363.631C101.442 363.208 101.579 362.785 101.729 362.361L103.857 356.189H106.328L101.689 368.484C101.423 369.188 101.094 369.786 100.703 370.281C100.319 370.783 99.8633 371.16 99.3359 371.414C98.8086 371.674 98.2064 371.805 97.5293 371.805C97.2038 371.805 96.9206 371.785 96.6797 371.746C96.4388 371.714 96.2337 371.678 96.0645 371.639V369.803C96.2012 369.835 96.3737 369.865 96.582 369.891C96.7904 369.917 97.0052 369.93 97.2266 369.93C97.6367 369.93 97.9915 369.848 98.291 369.686C98.5905 369.523 98.8444 369.292 99.0527 368.992C99.2611 368.699 99.4336 368.364 99.5703 367.986L99.9512 366.971L95.6348 356.189Z" fill="#231F20"/>
<path d="M523.488 234.723V243.961C523.488 244.957 523.277 245.849 522.854 246.637C522.437 247.424 521.805 248.049 520.959 248.512C520.113 248.967 519.048 249.195 517.766 249.195C515.936 249.195 514.543 248.717 513.586 247.76C512.635 246.796 512.16 245.517 512.16 243.922V234.723H514.504V243.717C514.504 244.908 514.784 245.787 515.344 246.354C515.904 246.92 516.74 247.203 517.854 247.203C518.622 247.203 519.247 247.07 519.729 246.803C520.217 246.529 520.575 246.132 520.803 245.611C521.037 245.084 521.154 244.449 521.154 243.707V234.723H523.488ZM532.541 237.984C533.758 237.984 534.706 238.3 535.383 238.932C536.066 239.557 536.408 240.562 536.408 241.949V249H534.113V242.379C534.113 241.539 533.941 240.911 533.596 240.494C533.251 240.071 532.717 239.859 531.994 239.859C530.946 239.859 530.217 240.182 529.807 240.826C529.403 241.471 529.201 242.405 529.201 243.629V249H526.906V238.189H528.693L529.016 239.654H529.143C529.377 239.277 529.667 238.967 530.012 238.727C530.363 238.479 530.754 238.294 531.184 238.17C531.62 238.046 532.072 237.984 532.541 237.984ZM541.916 238.189V249H539.621V238.189H541.916ZM540.783 234.049C541.135 234.049 541.438 234.143 541.691 234.332C541.952 234.521 542.082 234.846 542.082 235.309C542.082 235.764 541.952 236.09 541.691 236.285C541.438 236.474 541.135 236.568 540.783 236.568C540.419 236.568 540.109 236.474 539.855 236.285C539.608 236.09 539.484 235.764 539.484 235.309C539.484 234.846 539.608 234.521 539.855 234.332C540.109 234.143 540.419 234.049 540.783 234.049ZM550.607 239.938H547.98V249H545.686V239.938H543.918V238.834L545.686 238.16V237.408C545.686 236.49 545.829 235.761 546.115 235.221C546.408 234.68 546.825 234.293 547.365 234.059C547.912 233.818 548.563 233.697 549.318 233.697C549.813 233.697 550.266 233.74 550.676 233.824C551.086 233.902 551.431 233.993 551.711 234.098L551.115 235.836C550.894 235.764 550.646 235.699 550.373 235.641C550.1 235.576 549.807 235.543 549.494 235.543C548.973 235.543 548.589 235.706 548.342 236.031C548.101 236.357 547.98 236.832 547.98 237.457V238.189H550.607V239.938ZM554.738 238.189V249H552.443V238.189H554.738ZM553.605 234.049C553.957 234.049 554.26 234.143 554.514 234.332C554.774 234.521 554.904 234.846 554.904 235.309C554.904 235.764 554.774 236.09 554.514 236.285C554.26 236.474 553.957 236.568 553.605 236.568C553.241 236.568 552.932 236.474 552.678 236.285C552.43 236.09 552.307 235.764 552.307 235.309C552.307 234.846 552.43 234.521 552.678 234.332C552.932 234.143 553.241 234.049 553.605 234.049ZM562.326 237.984C563.29 237.984 564.117 238.183 564.807 238.58C565.497 238.977 566.027 239.54 566.398 240.27C566.77 240.999 566.955 241.871 566.955 242.887V244.117H559.738C559.764 245.165 560.044 245.973 560.578 246.539C561.118 247.105 561.874 247.389 562.844 247.389C563.534 247.389 564.152 247.324 564.699 247.193C565.253 247.057 565.822 246.858 566.408 246.598V248.463C565.868 248.717 565.318 248.902 564.758 249.02C564.198 249.137 563.527 249.195 562.746 249.195C561.685 249.195 560.751 248.99 559.943 248.58C559.143 248.163 558.514 247.545 558.059 246.725C557.609 245.904 557.385 244.885 557.385 243.668C557.385 242.457 557.59 241.428 558 240.582C558.41 239.736 558.986 239.091 559.729 238.648C560.471 238.206 561.337 237.984 562.326 237.984ZM562.326 239.713C561.604 239.713 561.018 239.947 560.568 240.416C560.126 240.885 559.865 241.572 559.787 242.477H564.709C564.702 241.936 564.611 241.458 564.436 241.041C564.266 240.624 564.006 240.299 563.654 240.064C563.309 239.83 562.867 239.713 562.326 239.713ZM573.176 249.195C571.887 249.195 570.852 248.727 570.07 247.789C569.296 246.845 568.908 245.455 568.908 243.619C568.908 241.764 569.302 240.361 570.09 239.41C570.884 238.46 571.929 237.984 573.225 237.984C573.771 237.984 574.25 238.059 574.66 238.209C575.07 238.352 575.422 238.548 575.715 238.795C576.014 239.042 576.268 239.319 576.477 239.625H576.584C576.551 239.423 576.512 239.133 576.467 238.756C576.428 238.372 576.408 238.017 576.408 237.691V233.805H578.713V249H576.916L576.506 247.525H576.408C576.213 247.838 575.965 248.121 575.666 248.375C575.373 248.622 575.021 248.821 574.611 248.971C574.208 249.12 573.729 249.195 573.176 249.195ZM573.82 247.33C574.803 247.33 575.497 247.047 575.9 246.48C576.304 245.914 576.512 245.064 576.525 243.932V243.629C576.525 242.418 576.33 241.49 575.939 240.846C575.549 240.195 574.836 239.869 573.801 239.869C572.974 239.869 572.342 240.204 571.906 240.875C571.477 241.539 571.262 242.467 571.262 243.658C571.262 244.85 571.477 245.761 571.906 246.393C572.342 247.018 572.98 247.33 573.82 247.33ZM600.109 241.842C600.109 242.942 599.969 243.945 599.689 244.85C599.416 245.748 599.003 246.523 598.449 247.174C597.896 247.818 597.202 248.316 596.369 248.668C595.536 249.02 594.559 249.195 593.439 249.195C592.3 249.195 591.311 249.02 590.471 248.668C589.637 248.316 588.944 247.815 588.391 247.164C587.844 246.513 587.434 245.735 587.16 244.83C586.887 243.925 586.75 242.923 586.75 241.822C586.75 240.351 586.991 239.068 587.473 237.975C587.961 236.874 588.7 236.021 589.689 235.416C590.686 234.804 591.942 234.498 593.459 234.498C594.943 234.498 596.177 234.801 597.16 235.406C598.143 236.012 598.879 236.865 599.367 237.965C599.862 239.059 600.109 240.351 600.109 241.842ZM589.211 241.842C589.211 242.942 589.361 243.896 589.66 244.703C589.96 245.504 590.419 246.122 591.037 246.559C591.662 246.988 592.463 247.203 593.439 247.203C594.423 247.203 595.223 246.988 595.842 246.559C596.46 246.122 596.916 245.504 597.209 244.703C597.502 243.896 597.648 242.942 597.648 241.842C597.648 240.169 597.313 238.86 596.643 237.916C595.979 236.965 594.917 236.49 593.459 236.49C592.482 236.49 591.678 236.705 591.047 237.135C590.422 237.564 589.96 238.18 589.66 238.98C589.361 239.775 589.211 240.729 589.211 241.842ZM608.488 237.984C609.771 237.984 610.799 238.453 611.574 239.391C612.355 240.328 612.746 241.721 612.746 243.57C612.746 244.794 612.564 245.826 612.199 246.666C611.841 247.499 611.337 248.131 610.686 248.561C610.041 248.984 609.289 249.195 608.43 249.195C607.883 249.195 607.408 249.124 607.004 248.98C606.6 248.837 606.255 248.652 605.969 248.424C605.682 248.189 605.441 247.936 605.246 247.662H605.109C605.142 247.923 605.171 248.212 605.197 248.531C605.23 248.844 605.246 249.13 605.246 249.391V253.795H602.941V238.189H604.816L605.139 239.684H605.246C605.448 239.378 605.692 239.094 605.979 238.834C606.271 238.574 606.623 238.368 607.033 238.219C607.45 238.062 607.935 237.984 608.488 237.984ZM607.873 239.859C607.242 239.859 606.734 239.986 606.35 240.24C605.972 240.488 605.695 240.862 605.52 241.363C605.35 241.865 605.259 242.493 605.246 243.248V243.57C605.246 244.371 605.327 245.051 605.49 245.611C605.66 246.165 605.936 246.588 606.32 246.881C606.711 247.167 607.238 247.311 607.902 247.311C608.462 247.311 608.924 247.158 609.289 246.852C609.66 246.546 609.937 246.109 610.119 245.543C610.301 244.977 610.393 244.309 610.393 243.541C610.393 242.376 610.184 241.471 609.768 240.826C609.357 240.182 608.726 239.859 607.873 239.859ZM619.709 237.984C620.673 237.984 621.499 238.183 622.189 238.58C622.88 238.977 623.41 239.54 623.781 240.27C624.152 240.999 624.338 241.871 624.338 242.887V244.117H617.121C617.147 245.165 617.427 245.973 617.961 246.539C618.501 247.105 619.257 247.389 620.227 247.389C620.917 247.389 621.535 247.324 622.082 247.193C622.635 247.057 623.205 246.858 623.791 246.598V248.463C623.251 248.717 622.701 248.902 622.141 249.02C621.581 249.137 620.91 249.195 620.129 249.195C619.068 249.195 618.133 248.99 617.326 248.58C616.525 248.163 615.897 247.545 615.441 246.725C614.992 245.904 614.768 244.885 614.768 243.668C614.768 242.457 614.973 241.428 615.383 240.582C615.793 239.736 616.369 239.091 617.111 238.648C617.854 238.206 618.719 237.984 619.709 237.984ZM619.709 239.713C618.986 239.713 618.4 239.947 617.951 240.416C617.508 240.885 617.248 241.572 617.17 242.477H622.092C622.085 241.936 621.994 241.458 621.818 241.041C621.649 240.624 621.389 240.299 621.037 240.064C620.692 239.83 620.249 239.713 619.709 239.713ZM632.561 237.984C633.778 237.984 634.725 238.3 635.402 238.932C636.086 239.557 636.428 240.562 636.428 241.949V249H634.133V242.379C634.133 241.539 633.96 240.911 633.615 240.494C633.27 240.071 632.736 239.859 632.014 239.859C630.965 239.859 630.236 240.182 629.826 240.826C629.423 241.471 629.221 242.405 629.221 243.629V249H626.926V238.189H628.713L629.035 239.654H629.162C629.396 239.277 629.686 238.967 630.031 238.727C630.383 238.479 630.773 238.294 631.203 238.17C631.639 238.046 632.092 237.984 632.561 237.984ZM582.102 269.113C582.102 269.96 581.893 270.689 581.477 271.301C581.066 271.913 580.474 272.382 579.699 272.707C578.931 273.033 578.013 273.195 576.945 273.195C576.424 273.195 575.926 273.166 575.451 273.107C574.976 273.049 574.527 272.964 574.104 272.854C573.687 272.736 573.306 272.596 572.961 272.434V270.227C573.54 270.48 574.188 270.712 574.904 270.92C575.62 271.122 576.35 271.223 577.092 271.223C577.697 271.223 578.199 271.145 578.596 270.988C578.999 270.826 579.299 270.598 579.494 270.305C579.689 270.005 579.787 269.657 579.787 269.26C579.787 268.837 579.673 268.479 579.445 268.186C579.217 267.893 578.872 267.626 578.41 267.385C577.954 267.137 577.382 266.874 576.691 266.594C576.223 266.405 575.773 266.19 575.344 265.949C574.921 265.708 574.543 265.425 574.211 265.1C573.879 264.774 573.615 264.39 573.42 263.947C573.231 263.498 573.137 262.971 573.137 262.365C573.137 261.558 573.329 260.868 573.713 260.295C574.104 259.722 574.65 259.283 575.354 258.977C576.063 258.671 576.89 258.518 577.834 258.518C578.583 258.518 579.286 258.596 579.943 258.752C580.607 258.908 581.258 259.13 581.896 259.416L581.154 261.301C580.568 261.06 579.999 260.868 579.445 260.725C578.898 260.581 578.339 260.51 577.766 260.51C577.271 260.51 576.851 260.585 576.506 260.734C576.161 260.884 575.897 261.096 575.715 261.369C575.539 261.636 575.451 261.955 575.451 262.326C575.451 262.743 575.552 263.094 575.754 263.381C575.962 263.661 576.281 263.918 576.711 264.152C577.147 264.387 577.707 264.647 578.391 264.934C579.178 265.259 579.846 265.601 580.393 265.959C580.946 266.317 581.369 266.747 581.662 267.248C581.955 267.743 582.102 268.365 582.102 269.113ZM594.191 267.57C594.191 268.469 594.074 269.266 593.84 269.963C593.605 270.66 593.264 271.249 592.814 271.73C592.365 272.206 591.825 272.57 591.193 272.824C590.562 273.072 589.849 273.195 589.055 273.195C588.312 273.195 587.632 273.072 587.014 272.824C586.395 272.57 585.858 272.206 585.402 271.73C584.953 271.249 584.605 270.66 584.357 269.963C584.11 269.266 583.986 268.469 583.986 267.57C583.986 266.379 584.191 265.37 584.602 264.543C585.018 263.71 585.611 263.075 586.379 262.639C587.147 262.202 588.062 261.984 589.123 261.984C590.119 261.984 590.998 262.202 591.76 262.639C592.521 263.075 593.117 263.71 593.547 264.543C593.977 265.376 594.191 266.385 594.191 267.57ZM586.35 267.57C586.35 268.358 586.444 269.032 586.633 269.592C586.828 270.152 587.128 270.581 587.531 270.881C587.935 271.174 588.456 271.32 589.094 271.32C589.732 271.32 590.253 271.174 590.656 270.881C591.06 270.581 591.356 270.152 591.545 269.592C591.734 269.032 591.828 268.358 591.828 267.57C591.828 266.783 591.734 266.115 591.545 265.568C591.356 265.015 591.06 264.595 590.656 264.309C590.253 264.016 589.729 263.869 589.084 263.869C588.133 263.869 587.44 264.188 587.004 264.826C586.568 265.464 586.35 266.379 586.35 267.57ZM606.252 262.189V273H604.445L604.133 271.545H604.006C603.778 271.916 603.488 272.225 603.137 272.473C602.785 272.714 602.395 272.893 601.965 273.01C601.535 273.133 601.083 273.195 600.607 273.195C599.794 273.195 599.097 273.059 598.518 272.785C597.945 272.505 597.505 272.076 597.199 271.496C596.893 270.917 596.74 270.168 596.74 269.25V262.189H599.045V268.82C599.045 269.66 599.214 270.288 599.553 270.705C599.898 271.122 600.432 271.33 601.154 271.33C601.851 271.33 602.404 271.187 602.814 270.9C603.225 270.614 603.514 270.191 603.684 269.631C603.859 269.071 603.947 268.384 603.947 267.57V262.189H606.252ZM615.021 261.984C615.204 261.984 615.402 261.994 615.617 262.014C615.832 262.033 616.018 262.059 616.174 262.092L615.959 264.24C615.822 264.201 615.653 264.172 615.451 264.152C615.256 264.133 615.08 264.123 614.924 264.123C614.514 264.123 614.123 264.191 613.752 264.328C613.381 264.458 613.052 264.66 612.766 264.934C612.479 265.201 612.255 265.536 612.092 265.939C611.929 266.343 611.848 266.812 611.848 267.346V273H609.543V262.189H611.34L611.652 264.094H611.76C611.975 263.71 612.242 263.358 612.561 263.039C612.88 262.72 613.244 262.466 613.654 262.277C614.071 262.082 614.527 261.984 615.021 261.984ZM622.531 273.195C621.509 273.195 620.624 272.997 619.875 272.6C619.126 272.202 618.55 271.594 618.146 270.773C617.743 269.953 617.541 268.911 617.541 267.648C617.541 266.333 617.762 265.259 618.205 264.426C618.648 263.592 619.26 262.977 620.041 262.58C620.829 262.183 621.73 261.984 622.746 261.984C623.391 261.984 623.973 262.049 624.494 262.18C625.021 262.303 625.467 262.456 625.832 262.639L625.148 264.475C624.751 264.312 624.344 264.175 623.928 264.064C623.511 263.954 623.111 263.898 622.727 263.898C622.095 263.898 621.568 264.038 621.145 264.318C620.728 264.598 620.415 265.015 620.207 265.568C620.005 266.122 619.904 266.809 619.904 267.629C619.904 268.423 620.008 269.094 620.217 269.641C620.425 270.181 620.734 270.591 621.145 270.871C621.555 271.145 622.059 271.281 622.658 271.281C623.251 271.281 623.781 271.21 624.25 271.066C624.719 270.923 625.161 270.738 625.578 270.51V272.502C625.168 272.736 624.729 272.909 624.26 273.02C623.791 273.137 623.215 273.195 622.531 273.195ZM632.424 261.984C633.387 261.984 634.214 262.183 634.904 262.58C635.594 262.977 636.125 263.54 636.496 264.27C636.867 264.999 637.053 265.871 637.053 266.887V268.117H629.836C629.862 269.165 630.142 269.973 630.676 270.539C631.216 271.105 631.971 271.389 632.941 271.389C633.632 271.389 634.25 271.324 634.797 271.193C635.35 271.057 635.92 270.858 636.506 270.598V272.463C635.965 272.717 635.415 272.902 634.855 273.02C634.296 273.137 633.625 273.195 632.844 273.195C631.783 273.195 630.848 272.99 630.041 272.58C629.24 272.163 628.612 271.545 628.156 270.725C627.707 269.904 627.482 268.885 627.482 267.668C627.482 266.457 627.688 265.428 628.098 264.582C628.508 263.736 629.084 263.091 629.826 262.648C630.568 262.206 631.434 261.984 632.424 261.984ZM632.424 263.713C631.701 263.713 631.115 263.947 630.666 264.416C630.223 264.885 629.963 265.572 629.885 266.477H634.807C634.8 265.936 634.709 265.458 634.533 265.041C634.364 264.624 634.104 264.299 633.752 264.064C633.407 263.83 632.964 263.713 632.424 263.713ZM567.746 293.113C567.746 293.96 567.538 294.689 567.121 295.301C566.711 295.913 566.118 296.382 565.344 296.707C564.576 297.033 563.658 297.195 562.59 297.195C562.069 297.195 561.571 297.166 561.096 297.107C560.62 297.049 560.171 296.964 559.748 296.854C559.331 296.736 558.951 296.596 558.605 296.434V294.227C559.185 294.48 559.833 294.712 560.549 294.92C561.265 295.122 561.994 295.223 562.736 295.223C563.342 295.223 563.843 295.145 564.24 294.988C564.644 294.826 564.943 294.598 565.139 294.305C565.334 294.005 565.432 293.657 565.432 293.26C565.432 292.837 565.318 292.479 565.09 292.186C564.862 291.893 564.517 291.626 564.055 291.385C563.599 291.137 563.026 290.874 562.336 290.594C561.867 290.405 561.418 290.19 560.988 289.949C560.565 289.708 560.188 289.425 559.855 289.1C559.523 288.774 559.26 288.39 559.064 287.947C558.876 287.498 558.781 286.971 558.781 286.365C558.781 285.558 558.973 284.868 559.357 284.295C559.748 283.722 560.295 283.283 560.998 282.977C561.708 282.671 562.535 282.518 563.479 282.518C564.227 282.518 564.93 282.596 565.588 282.752C566.252 282.908 566.903 283.13 567.541 283.416L566.799 285.301C566.213 285.06 565.643 284.868 565.09 284.725C564.543 284.581 563.983 284.51 563.41 284.51C562.915 284.51 562.495 284.585 562.15 284.734C561.805 284.884 561.542 285.096 561.359 285.369C561.184 285.636 561.096 285.955 561.096 286.326C561.096 286.743 561.197 287.094 561.398 287.381C561.607 287.661 561.926 287.918 562.355 288.152C562.792 288.387 563.352 288.647 564.035 288.934C564.823 289.259 565.49 289.601 566.037 289.959C566.59 290.317 567.014 290.747 567.307 291.248C567.6 291.743 567.746 292.365 567.746 293.113ZM574.289 295.34C574.589 295.34 574.885 295.314 575.178 295.262C575.471 295.203 575.738 295.135 575.979 295.057V296.795C575.725 296.906 575.396 297 574.992 297.078C574.589 297.156 574.169 297.195 573.732 297.195C573.12 297.195 572.57 297.094 572.082 296.893C571.594 296.684 571.206 296.329 570.92 295.828C570.633 295.327 570.49 294.633 570.49 293.748V287.938H569.016V286.912L570.598 286.102L571.35 283.787H572.795V286.189H575.891V287.938H572.795V293.719C572.795 294.266 572.932 294.673 573.205 294.939C573.479 295.206 573.84 295.34 574.289 295.34ZM583.654 285.984C583.837 285.984 584.035 285.994 584.25 286.014C584.465 286.033 584.65 286.059 584.807 286.092L584.592 288.24C584.455 288.201 584.286 288.172 584.084 288.152C583.889 288.133 583.713 288.123 583.557 288.123C583.146 288.123 582.756 288.191 582.385 288.328C582.014 288.458 581.685 288.66 581.398 288.934C581.112 289.201 580.887 289.536 580.725 289.939C580.562 290.343 580.48 290.812 580.48 291.346V297H578.176V286.189H579.973L580.285 288.094H580.393C580.607 287.71 580.874 287.358 581.193 287.039C581.512 286.72 581.877 286.466 582.287 286.277C582.704 286.082 583.16 285.984 583.654 285.984ZM591.047 285.984C592.414 285.984 593.446 286.287 594.143 286.893C594.846 287.498 595.197 288.442 595.197 289.725V297H593.566L593.127 295.467H593.049C592.743 295.857 592.427 296.18 592.102 296.434C591.776 296.688 591.398 296.876 590.969 297C590.546 297.13 590.028 297.195 589.416 297.195C588.771 297.195 588.195 297.078 587.688 296.844C587.18 296.603 586.779 296.238 586.486 295.75C586.193 295.262 586.047 294.643 586.047 293.895C586.047 292.781 586.46 291.945 587.287 291.385C588.12 290.825 589.377 290.516 591.057 290.457L592.932 290.389V289.822C592.932 289.074 592.756 288.54 592.404 288.221C592.059 287.902 591.571 287.742 590.939 287.742C590.399 287.742 589.875 287.82 589.367 287.977C588.859 288.133 588.365 288.325 587.883 288.553L587.141 286.932C587.668 286.652 588.267 286.424 588.938 286.248C589.615 286.072 590.318 285.984 591.047 285.984ZM592.922 291.834L591.525 291.883C590.38 291.922 589.576 292.117 589.113 292.469C588.651 292.82 588.42 293.302 588.42 293.914C588.42 294.448 588.579 294.839 588.898 295.086C589.217 295.327 589.637 295.447 590.158 295.447C590.952 295.447 591.61 295.223 592.131 294.773C592.658 294.318 592.922 293.65 592.922 292.771V291.834ZM602.434 295.34C602.733 295.34 603.029 295.314 603.322 295.262C603.615 295.203 603.882 295.135 604.123 295.057V296.795C603.869 296.906 603.54 297 603.137 297.078C602.733 297.156 602.313 297.195 601.877 297.195C601.265 297.195 600.715 297.094 600.227 296.893C599.738 296.684 599.351 296.329 599.064 295.828C598.778 295.327 598.635 294.633 598.635 293.748V287.938H597.16V286.912L598.742 286.102L599.494 283.787H600.939V286.189H604.035V287.938H600.939V293.719C600.939 294.266 601.076 294.673 601.35 294.939C601.623 295.206 601.984 295.34 602.434 295.34ZM610.627 285.984C611.59 285.984 612.417 286.183 613.107 286.58C613.798 286.977 614.328 287.54 614.699 288.27C615.07 288.999 615.256 289.871 615.256 290.887V292.117H608.039C608.065 293.165 608.345 293.973 608.879 294.539C609.419 295.105 610.174 295.389 611.145 295.389C611.835 295.389 612.453 295.324 613 295.193C613.553 295.057 614.123 294.858 614.709 294.598V296.463C614.169 296.717 613.618 296.902 613.059 297.02C612.499 297.137 611.828 297.195 611.047 297.195C609.986 297.195 609.051 296.99 608.244 296.58C607.443 296.163 606.815 295.545 606.359 294.725C605.91 293.904 605.686 292.885 605.686 291.668C605.686 290.457 605.891 289.428 606.301 288.582C606.711 287.736 607.287 287.091 608.029 286.648C608.771 286.206 609.637 285.984 610.627 285.984ZM610.627 287.713C609.904 287.713 609.318 287.947 608.869 288.416C608.426 288.885 608.166 289.572 608.088 290.477H613.01C613.003 289.936 612.912 289.458 612.736 289.041C612.567 288.624 612.307 288.299 611.955 288.064C611.61 287.83 611.167 287.713 610.627 287.713ZM620.93 301.805C619.465 301.805 618.342 301.541 617.561 301.014C616.779 300.486 616.389 299.747 616.389 298.797C616.389 298.133 616.597 297.57 617.014 297.107C617.43 296.652 618.026 296.336 618.801 296.16C618.508 296.03 618.254 295.828 618.039 295.555C617.831 295.275 617.727 294.965 617.727 294.627C617.727 294.223 617.84 293.878 618.068 293.592C618.296 293.305 618.638 293.029 619.094 292.762C618.527 292.521 618.072 292.13 617.727 291.59C617.388 291.043 617.219 290.402 617.219 289.666C617.219 288.885 617.385 288.221 617.717 287.674C618.049 287.12 618.534 286.701 619.172 286.414C619.81 286.121 620.581 285.975 621.486 285.975C621.682 285.975 621.893 285.988 622.121 286.014C622.355 286.033 622.57 286.059 622.766 286.092C622.967 286.118 623.12 286.147 623.225 286.18H626.965V287.459L625.129 287.801C625.305 288.048 625.445 288.331 625.549 288.65C625.653 288.963 625.705 289.305 625.705 289.676C625.705 290.796 625.318 291.678 624.543 292.322C623.775 292.96 622.714 293.279 621.359 293.279C621.034 293.266 620.718 293.24 620.412 293.201C620.178 293.344 619.999 293.504 619.875 293.68C619.751 293.849 619.689 294.041 619.689 294.256C619.689 294.432 619.751 294.575 619.875 294.686C619.999 294.79 620.181 294.868 620.422 294.92C620.669 294.972 620.969 294.998 621.32 294.998H623.186C624.37 294.998 625.275 295.249 625.9 295.75C626.525 296.251 626.838 296.987 626.838 297.957C626.838 299.188 626.33 300.135 625.314 300.799C624.299 301.469 622.837 301.805 620.93 301.805ZM621.018 300.193C621.818 300.193 622.492 300.115 623.039 299.959C623.586 299.803 623.999 299.578 624.279 299.285C624.559 298.999 624.699 298.657 624.699 298.26C624.699 297.908 624.611 297.638 624.436 297.449C624.26 297.26 623.996 297.13 623.645 297.059C623.293 296.987 622.857 296.951 622.336 296.951H620.637C620.214 296.951 619.839 297.016 619.514 297.146C619.188 297.283 618.934 297.479 618.752 297.732C618.576 297.986 618.488 298.292 618.488 298.65C618.488 299.145 618.706 299.526 619.143 299.793C619.585 300.06 620.21 300.193 621.018 300.193ZM621.467 291.775C622.137 291.775 622.635 291.593 622.961 291.229C623.286 290.857 623.449 290.337 623.449 289.666C623.449 288.937 623.28 288.39 622.941 288.025C622.609 287.661 622.115 287.479 621.457 287.479C620.812 287.479 620.321 287.664 619.982 288.035C619.65 288.406 619.484 288.956 619.484 289.686C619.484 290.343 619.65 290.857 619.982 291.229C620.321 291.593 620.816 291.775 621.467 291.775ZM627.307 286.189H629.807L632.023 292.361C632.121 292.641 632.209 292.918 632.287 293.191C632.372 293.458 632.443 293.722 632.502 293.982C632.567 294.243 632.619 294.503 632.658 294.764H632.717C632.782 294.425 632.873 294.048 632.99 293.631C633.114 293.208 633.251 292.785 633.4 292.361L635.529 286.189H638L633.361 298.484C633.094 299.188 632.766 299.786 632.375 300.281C631.991 300.783 631.535 301.16 631.008 301.414C630.48 301.674 629.878 301.805 629.201 301.805C628.876 301.805 628.592 301.785 628.352 301.746C628.111 301.714 627.906 301.678 627.736 301.639V299.803C627.873 299.835 628.046 299.865 628.254 299.891C628.462 299.917 628.677 299.93 628.898 299.93C629.309 299.93 629.663 299.848 629.963 299.686C630.262 299.523 630.516 299.292 630.725 298.992C630.933 298.699 631.105 298.364 631.242 297.986L631.623 296.971L627.307 286.189Z" fill="#231F20"/>
<circle cx="667" cy="254" r="3.25" stroke="#231F20" stroke-width="1.5"/>
<rect x="666" y="257" width="2" height="4" fill="#231F20" stroke="#231F20" stroke-width="0.5" stroke-linejoin="round"/>
<rect x="671.121" y="249" width="2" height="3" transform="rotate(45 671.121 249)" fill="#231F20" stroke="#231F20" stroke-width="0.5" stroke-linejoin="round"/>
<rect x="673.353" y="256.255" width="2" height="3" transform="rotate(120 673.353 256.255)" fill="#231F20" stroke="#231F20" stroke-width="0.5" stroke-linejoin="round"/>
<circle cx="4" cy="4" r="3.25" transform="matrix(-1 0 0 1 707.353 250)" stroke="#231F20" stroke-width="1.5"/>
<rect width="2" height="3" transform="matrix(-1 0 0 1 704 258)" fill="#231F20" stroke="#231F20" stroke-width="0.5" stroke-linejoin="round"/>
<rect width="2" height="3" transform="matrix(-0.707107 0.707107 0.707107 0.707107 699.525 249)" fill="#231F20" stroke="#231F20" stroke-width="0.5" stroke-linejoin="round"/>
<rect width="2" height="3" transform="matrix(0.5 0.866025 0.866025 -0.5 697 256.255)" fill="#231F20" stroke="#231F20" stroke-width="0.5" stroke-linejoin="round"/>
<circle cx="4" cy="4" r="3.25" transform="matrix(-0.338409 0.940999 0.940999 0.338409 683 239.82)" stroke="#231F20" stroke-width="1.5"/>
<rect width="2" height="3" transform="matrix(-0.338409 0.940999 0.940999 0.338409 689.552 244.944)" fill="#231F20" stroke="#231F20" stroke-width="0.5" stroke-linejoin="round"/>
<rect width="2" height="3" transform="matrix(0.426095 0.904678 0.904678 -0.426095 679 245.278)" fill="#231F20" stroke="#231F20" stroke-width="0.5" stroke-linejoin="round"/>
<circle cx="667" cy="275" r="3.25" stroke="#231F20" stroke-width="1.5"/>
<rect x="666" y="268" width="2" height="3" fill="#231F20" stroke="#231F20" stroke-width="0.5" stroke-linejoin="round"/>
<rect x="668.879" y="277.294" width="2" height="3" transform="rotate(-45 668.879 277.294)" fill="#231F20" stroke="#231F20" stroke-width="0.5" stroke-linejoin="round"/>
<circle cx="4" cy="4" r="3.25" transform="matrix(-1 0 0 1 707.121 271)" stroke="#231F20" stroke-width="1.5"/>
<rect width="2" height="3" transform="matrix(-1 0 0 1 704 268)" fill="#231F20" stroke="#231F20" stroke-width="0.5" stroke-linejoin="round"/>
<rect width="2" height="3" transform="matrix(-0.707107 -0.707107 -0.707107 0.707107 701.243 277.294)" fill="#231F20" stroke="#231F20" stroke-width="0.5" stroke-linejoin="round"/>
<circle cx="685" cy="263" r="3.25" stroke="#231F20" stroke-width="1.5"/>
<rect x="684" y="266" width="2" height="3" fill="#231F20" stroke="#231F20" stroke-width="0.5" stroke-linejoin="round"/>
<rect x="684" y="257" width="2" height="3" fill="#231F20" stroke="#231F20" stroke-width="0.5" stroke-linejoin="round"/>
<rect width="2" height="3" transform="matrix(0.5 0.866025 0.866025 -0.5 687 260)" fill="#231F20" stroke="#231F20" stroke-width="0.5" stroke-linejoin="round"/>
<rect x="682.598" y="260" width="2" height="3" transform="rotate(120 682.598 260)" fill="#231F20" stroke="#231F20" stroke-width="0.5" stroke-linejoin="round"/>
<circle cx="685" cy="284" r="3.25" stroke="#231F20" stroke-width="1.5"/>
<rect x="684" y="277" width="2" height="3" fill="#231F20" stroke="#231F20" stroke-width="0.5" stroke-linejoin="round"/>
<rect width="2" height="4" transform="matrix(0.5 0.866025 0.866025 -0.5 688 282)" fill="#231F20" stroke="#231F20" stroke-width="0.5" stroke-linejoin="round"/>
<rect x="682.464" y="282" width="2" height="4" transform="rotate(120 682.464 282)" fill="#231F20" stroke="#231F20" stroke-width="0.5" stroke-linejoin="round"/>
</svg>
