<svg xmlns="http://www.w3.org/2000/svg" viewBox="-382.255615234375,-205.23617553710938,704.27069091796881,622.93939208984381"><style>
  .node text {
    font-family: 'Arial', sans-serif;
  }
   .node--internal text {
    paint-order: stroke;
    stroke: white;
    stroke-width: 1em;
  }
  .link {
    stroke-width: 1px;
  }</style><g><g><path class="link" fill="none" stroke="#4CDEF5" d="M0,0C2.534887833323899,43.48868530919815,21.796501816666026,-37.717421900311194,43.59300363333205,-75.43484380062239"/><path class="link" fill="none" stroke="#A4D555" d="M0,0C2.534887833323899,43.48868530919815,43.261320493517715,5.113663599333074,86.52264098703543,10.227327198666147"/><path class="link" fill="none" stroke="#FF5992" d="M0,0C2.534887833323899,43.48868530919815,-21.79650181666602,37.7174219003112,-43.59300363333204,75.4348438006224"/><path class="link" fill="none" stroke="#841983" d="M0,0C2.534887833323899,43.48868530919815,-26.030985610526884,-34.92963203920909,-52.06197122105377,-69.85926407841818"/><path class="link" fill="none" stroke="#4CDEF5" d="M43.59300363333205,-75.43484380062239C65.38950544999807,-113.1522657009336,44.7308581026496,-122.79402668554619,59.64114413686613,-163.72536891406156"/><path class="link" fill="none" stroke="#4CDEF5" d="M43.59300363333205,-75.43484380062239C65.38950544999807,-113.1522657009336,58.6944120149379,-116.7655285367677,78.2592160199172,-155.68737138235693"/><path class="link" fill="none" stroke="#4CDEF5" d="M43.59300363333205,-75.43484380062239C65.38950544999807,-113.1522657009336,71.86299975156138,-109.15554004702231,95.81733300208184,-145.5407200626964"/><path class="link" fill="none" stroke="#4CDEF5" d="M43.59300363333205,-75.43484380062239C65.38950544999807,-113.1522657009336,84.05826392767686,-100.06713207499763,112.07768523690248,-133.4228427666635"/><path class="link" fill="none" stroke="#A4D555" d="M86.52264098703543,10.227327198666147C129.78396148055313,15.340990797999222,128.72645659984084,-22.55486704681045,171.63527546645443,-30.073156062413933"/><path class="link" fill="none" stroke="#A4D555" d="M86.52264098703543,10.227327198666147C129.78396148055313,15.340990797999222,130.4751841779389,-7.446406514750712,173.96691223725188,-9.928542019667615"/><path class="link" fill="none" stroke="#A4D555" d="M86.52264098703543,10.227327198666147C129.78396148055313,15.340990797999222,130.45673572301524,7.762909296478853,173.94231429735365,10.35054572863847"/><path class="link" fill="none" stroke="#A4D555" d="M86.52264098703543,10.227327198666147C129.78396148055313,15.340990797999222,128.67136110379082,22.86708306601146,171.5618148050544,30.48944408801528"/><path class="link" fill="none" stroke="#A4D555" d="M86.52264098703543,10.227327198666147C129.78396148055313,15.340990797999222,125.14324170967645,37.661541533021385,166.85765561290194,50.21538871069518"/><path class="link" fill="none" stroke="#A4D555" d="M86.52264098703543,10.227327198666147C129.78396148055313,15.340990797999222,119.92016293430238,51.945906268544086,159.89355057906985,69.26120835805878"/><path class="link" fill="none" stroke="#FF5992" d="M-43.59300363333204,75.4348438006224C-65.38950544999805,113.15226570093361,58.41097338091577,116.90757394174233,77.88129784122103,155.87676525565644"/><path class="link" fill="none" stroke="#FF5992" d="M-43.59300363333204,75.4348438006224C-65.38950544999805,113.15226570093361,-62.90361100968061,114.55286281098691,-83.87148134624081,152.73715041464922"/><path class="link" fill="none" stroke="#FF5992" d="M-43.59300363333204,75.4348438006224C-65.38950544999805,113.15226570093361,-113.07286696277134,65.52670763184592,-150.76382261702844,87.36894350912789"/><path class="link" fill="none" stroke="#FF5992" d="M-43.59300363333204,75.4348438006224C-65.38950544999805,113.15226570093361,-130.45673572301524,7.762909296478811,-173.94231429735365,10.350545728638414"/><path class="link" fill="none" stroke="#841983" d="M-52.06197122105377,-69.85926407841818C-78.09295683158065,-104.78889611762727,-104.8835434311473,-77.96579361217738,-139.84472457486308,-103.95439148290318"/><path class="link" fill="none" stroke="#841983" d="M-52.06197122105377,-69.85926407841818C-78.09295683158065,-104.78889611762727,-95.11503000297476,-89.62339942103965,-126.82004000396635,-119.49786589471954"/><path class="link" fill="none" stroke="#841983" d="M-52.06197122105377,-69.85926407841818C-78.09295683158065,-104.78889611762727,-84.05826392767686,-100.06713207499763,-112.07768523690248,-133.4228427666635"/><path class="link" fill="none" stroke="#841983" d="M-52.06197122105377,-69.85926407841818C-78.09295683158065,-104.78889611762727,-71.86299975156139,-109.1555400470223,-95.81733300208185,-145.54072006269638"/><path class="link" fill="none" stroke="#841983" d="M-52.06197122105377,-69.85926407841818C-78.09295683158065,-104.78889611762727,-58.694412014937946,-116.76552853676769,-78.25921601991726,-155.68737138235693"/><path class="link" fill="none" stroke="#841983" d="M-52.06197122105377,-69.85926407841818C-78.09295683158065,-104.78889611762727,-44.730858102649556,-122.7940266855462,-59.641144136866075,-163.7253689140616"/><path class="link" fill="none" stroke="#FF5992" d="M77.88129784122103,155.87676525565644C97.35162230152629,194.84595656957055,168.6329223536813,137.85943077899063,202.35950682441754,165.43131693478873"/><path class="link" fill="none" stroke="#FF5992" d="M77.88129784122103,155.87676525565644C97.35162230152629,194.84595656957055,88.75320192857322,198.90991504617338,106.50384231428787,238.69189805540805"/><path class="link" fill="none" stroke="#FF5992" d="M77.88129784122103,155.87676525565644C97.35162230152629,194.84595656957055,8.980255830711632,217.6272964530529,10.77630699685396,261.1527557436635"/><path class="link" fill="none" stroke="#FF5992" d="M-83.87148134624081,152.73715041464922C-104.83935168280101,190.9214380183115,-89.71724063314466,198.4769555626658,-107.66068875977358,238.17234667519898"/><path class="link" fill="none" stroke="#FF5992" d="M-83.87148134624081,152.73715041464922C-104.83935168280101,190.9214380183115,-104.83935168280101,190.9214380183115,-125.80722201936122,229.10572562197382"/><path class="link" fill="none" stroke="#FF5992" d="M-83.87148134624081,152.73715041464922C-104.83935168280101,190.9214380183115,-119.32997287868217,182.21592336846683,-143.1959674544186,218.6591080421602"/><path class="link" fill="none" stroke="#FF5992" d="M-150.76382261702844,87.36894350912789C-188.45477827128556,109.21117938640987,-188.45477827128556,109.21117938640987,-226.1457339255427,131.05341526369185"/><path class="link" fill="none" stroke="#FF5992" d="M-173.94231429735365,10.350545728638414C-217.42789287169208,12.938182160798018,-217.42789287169208,12.938182160798018,-260.9134714460305,15.525818592957622"/><path class="link" fill="none" stroke="#FF5992" d="M202.35950682441754,165.43131693478873C236.0860912951538,193.00320309058685,252.02061926983274,171.67552641276512,288.0235648798089,196.2006016145887"/><path class="link" fill="none" stroke="#FF5992" d="M202.35950682441754,165.43131693478873C236.0860912951538,193.00320309058685,241.60383815602412,186.04962857938662,276.11867217831326,212.62814694787042"/><path class="link" fill="none" stroke="#FF5992" d="M202.35950682441754,165.43131693478873C236.0860912951538,193.00320309058685,230.3682834360161,199.79322534308656,263.2780382125898,228.3351146778132"/><path class="link" fill="none" stroke="#FF5992" d="M202.35950682441754,165.43131693478873C236.0860912951538,193.00320309058685,218.3520313909059,212.85974089459674,249.54517873246388,243.26827530811056"/><path class="link" fill="none" stroke="#FF5992" d="M106.50384231428787,238.69189805540805C124.25448270000251,278.47388106464274,132.3074226971604,274.7391941559939,151.20848308246903,313.9876504639931"/><path class="link" fill="none" stroke="#FF5992" d="M106.50384231428787,238.69189805540805C124.25448270000251,278.47388106464274,116.09624858868585,281.972587266713,132.68142695849812,322.25438544767195"/><path class="link" fill="none" stroke="#FF5992" d="M10.77630699685396,261.1527557436635C12.572358162996284,304.67821503427405,12.572358162996284,304.67821503427405,14.368409329138611,348.2036743248846"/></g><g><g class="node node--internal" transform="rotate(86.66409266409266) translate(0,0)"><text style="font-size: 4px;" dy="0.31em" x="-5" text-anchor="end">OSPO Mind Map</text></g><g class="node node--internal" transform="rotate(-59.97683397683397) translate(87.125,0)"><text style="font-size: 4px;" dy="0.31em" x="-5" text-anchor="end">SIZE</text></g><g class="node node--internal" transform="rotate(6.741312741312754) translate(87.125,0)"><text style="font-size: 4px;" dy="0.31em" x="-5" text-anchor="end">BEHAVIOR</text></g><g class="node node--internal" transform="rotate(120.02316602316603) translate(87.125,0)"><text style="font-size: 4px;" dy="0.31em" x="5" text-anchor="start" transform="rotate(180)">RESPONSIBILITIES</text></g><g class="node node--internal" transform="rotate(233.3050193050193) translate(87.125,0)"><text style="font-size: 4px;" dy="0.31em" x="5" text-anchor="start" transform="rotate(180)">ROLES</text></g><g class="node node--leaf" transform="rotate(-69.98455598455598) translate(174.25,0)"><text style="font-size: 4px;" dy="0.31em" x="5" text-anchor="start">FTE large team</text></g><g class="node node--leaf" transform="rotate(-63.312741312741316) translate(174.25,0)"><text style="font-size: 4px;" dy="0.31em" x="5" text-anchor="start">FTE small team</text></g><g class="node node--leaf" transform="rotate(-56.640926640926644) translate(174.25,0)"><text style="font-size: 4px;" dy="0.31em" x="5" text-anchor="start">Virtual team (not FTE)</text></g><g class="node node--leaf" transform="rotate(-49.96911196911197) translate(174.25,0)"><text style="font-size: 4px;" dy="0.31em" x="5" text-anchor="start">Single FTE Managing multiple teams</text></g><g class="node node--leaf" transform="rotate(-9.938223938223942) translate(174.25,0)"><text style="font-size: 4px;" dy="0.31em" x="5" text-anchor="start">Industry Collaborative</text></g><g class="node node--leaf" transform="rotate(-3.266409266409255) translate(174.25,0)"><text style="font-size: 4px;" dy="0.31em" x="5" text-anchor="start">Cross-Industry Collaborative</text></g><g class="node node--leaf" transform="rotate(3.4054054054054035) translate(174.25,0)"><text style="font-size: 4px;" dy="0.31em" x="5" text-anchor="start">Big Project Facilitators</text></g><g class="node node--leaf" transform="rotate(10.077220077220076) translate(174.25,0)"><text style="font-size: 4px;" dy="0.31em" x="5" text-anchor="start">Open Source First</text></g><g class="node node--leaf" transform="rotate(16.749034749034735) translate(174.25,0)"><text style="font-size: 4px;" dy="0.31em" x="5" text-anchor="start">Technology Strategy Experts</text></g><g class="node node--leaf" transform="rotate(23.42084942084942) translate(174.25,0)"><text style="font-size: 4px;" dy="0.31em" x="5" text-anchor="start">Software Company</text></g><g class="node node--internal" transform="rotate(63.45173745173744) translate(174.25,0)"><text style="font-size: 4px;" dy="0.31em" x="-5" text-anchor="end">OS Legal Education</text></g><g class="node node--internal" transform="rotate(118.77220077220079) translate(174.25,0)"><text style="font-size: 4px;" dy="0.31em" x="5" text-anchor="start" transform="rotate(180)">OS Community Education</text></g><g class="node node--internal" transform="rotate(149.90733590733592) translate(174.25,0)"><text style="font-size: 4px;" dy="0.31em" x="5" text-anchor="start" transform="rotate(180)">OS Community Engagement</text></g><g class="node node--internal" transform="rotate(176.59459459459458) translate(174.25,0)"><text style="font-size: 4px;" dy="0.31em" x="5" text-anchor="start" transform="rotate(180)">OS Leadership</text></g><g class="node node--leaf" transform="rotate(216.62548262548268) translate(174.25,0)"><text style="font-size: 4px;" dy="0.31em" x="-5" text-anchor="end" transform="rotate(180)">Governance</text></g><g class="node node--leaf" transform="rotate(223.2972972972973) translate(174.25,0)"><text style="font-size: 4px;" dy="0.31em" x="-5" text-anchor="end" transform="rotate(180)">Project Management</text></g><g class="node node--leaf" transform="rotate(229.96911196911196) translate(174.25,0)"><text style="font-size: 4px;" dy="0.31em" x="-5" text-anchor="end" transform="rotate(180)">Licensing</text></g><g class="node node--leaf" transform="rotate(236.6409266409267) translate(174.25,0)"><text style="font-size: 4px;" dy="0.31em" x="-5" text-anchor="end" transform="rotate(180)">Security</text></g><g class="node node--leaf" transform="rotate(243.3127413127413) translate(174.25,0)"><text style="font-size: 4px;" dy="0.31em" x="-5" text-anchor="end" transform="rotate(180)">Community engagement</text></g><g class="node node--leaf" transform="rotate(249.98455598455598) translate(174.25,0)"><text style="font-size: 4px;" dy="0.31em" x="-5" text-anchor="end" transform="rotate(180)">Developer Education</text></g><g class="node node--internal" transform="rotate(39.26640926640928) translate(261.375,0)"><text style="font-size: 4px;" dy="0.31em" x="-5" text-anchor="end">Manage Legal Risks and Licenses</text></g><g class="node node--internal" transform="rotate(65.95366795366797) translate(261.375,0)"><text style="font-size: 4px;" dy="0.31em" x="-5" text-anchor="end">Educate Developers</text></g><g class="node node--internal" transform="rotate(87.63706563706563) translate(261.375,0)"><text style="font-size: 4px;" dy="0.31em" x="-5" text-anchor="end">Taking Software Inventory</text></g><g class="node node--leaf" transform="rotate(114.32432432432435) translate(261.375,0)"><text style="font-size: 4px;" dy="0.31em" x="-5" text-anchor="end" transform="rotate(180)">Create Internal OS Ambassadors</text></g><g class="node node--leaf" transform="rotate(118.77220077220079) translate(261.375,0)"><text style="font-size: 4px;" dy="0.31em" x="-5" text-anchor="end" transform="rotate(180)">Create educational programs</text></g><g class="node node--leaf" transform="rotate(123.2200772200772) translate(261.375,0)"><text style="font-size: 4px;" dy="0.31em" x="-5" text-anchor="end" transform="rotate(180)">Optimize outbound OS contributions</text></g><g class="node node--leaf" transform="rotate(149.90733590733592) translate(261.375,0)"><text style="font-size: 4px;" dy="0.31em" x="-5" text-anchor="end" transform="rotate(180)">Incubate and launch OS projects into the public sphere</text></g><g class="node node--leaf" transform="rotate(176.59459459459458) translate(261.375,0)"><text style="font-size: 4px;" dy="0.31em" x="-5" text-anchor="end" transform="rotate(180)">Provide open source consultancy and become a strategic partner</text></g><g class="node node--leaf" transform="rotate(34.26254826254825) translate(348.5,0)"><text style="font-size: 4px;" dy="0.31em" x="5" text-anchor="start">Security Standards</text></g><g class="node node--leaf" transform="rotate(37.59845559845557) translate(348.5,0)"><text style="font-size: 4px;" dy="0.31em" x="5" text-anchor="start">License Compliance Policies</text></g><g class="node node--leaf" transform="rotate(40.93436293436295) translate(348.5,0)"><text style="font-size: 4px;" dy="0.31em" x="5" text-anchor="start">Tooling</text></g><g class="node node--leaf" transform="rotate(44.27027027027029) translate(348.5,0)"><text style="font-size: 4px;" dy="0.31em" x="5" text-anchor="start">Design OSS infrastructure</text></g><g class="node node--leaf" transform="rotate(64.2857142857143) translate(348.5,0)"><text style="font-size: 4px;" dy="0.31em" x="5" text-anchor="start">Create education programs</text></g><g class="node node--leaf" transform="rotate(67.62162162162161) translate(348.5,0)"><text style="font-size: 4px;" dy="0.31em" x="5" text-anchor="start">Build CLA Policies and documentation</text></g><g class="node node--leaf" transform="rotate(87.63706563706563) translate(348.5,0)"><text style="font-size: 4px;" dy="0.31em" x="5" text-anchor="start">Set up software inventory processes</text></g></g></g></svg>
